G75*
%MOIN*%
%OFA0B0*%
%FSLAX25Y25*%
%IPPOS*%
%LPD*%
%AMOC8*
5,1,8,0,0,1.08239X$1,22.5*
%
%ADD10C,0.00000*%
D10*
X0006010Y0039675D02*
X0006010Y0208967D01*
X0360341Y0208967D01*
X0360341Y0039675D01*
X0006010Y0039675D01*
X0011523Y0051486D02*
X0011525Y0051644D01*
X0011531Y0051802D01*
X0011541Y0051960D01*
X0011555Y0052118D01*
X0011573Y0052275D01*
X0011594Y0052432D01*
X0011620Y0052588D01*
X0011650Y0052744D01*
X0011683Y0052899D01*
X0011721Y0053052D01*
X0011762Y0053205D01*
X0011807Y0053357D01*
X0011856Y0053508D01*
X0011909Y0053657D01*
X0011965Y0053805D01*
X0012025Y0053951D01*
X0012089Y0054096D01*
X0012157Y0054239D01*
X0012228Y0054381D01*
X0012302Y0054521D01*
X0012380Y0054658D01*
X0012462Y0054794D01*
X0012546Y0054928D01*
X0012635Y0055059D01*
X0012726Y0055188D01*
X0012821Y0055315D01*
X0012918Y0055440D01*
X0013019Y0055562D01*
X0013123Y0055681D01*
X0013230Y0055798D01*
X0013340Y0055912D01*
X0013453Y0056023D01*
X0013568Y0056132D01*
X0013686Y0056237D01*
X0013807Y0056339D01*
X0013930Y0056439D01*
X0014056Y0056535D01*
X0014184Y0056628D01*
X0014314Y0056718D01*
X0014447Y0056804D01*
X0014582Y0056888D01*
X0014718Y0056967D01*
X0014857Y0057044D01*
X0014998Y0057116D01*
X0015140Y0057186D01*
X0015284Y0057251D01*
X0015430Y0057313D01*
X0015577Y0057371D01*
X0015726Y0057426D01*
X0015876Y0057477D01*
X0016027Y0057524D01*
X0016179Y0057567D01*
X0016332Y0057606D01*
X0016487Y0057642D01*
X0016642Y0057673D01*
X0016798Y0057701D01*
X0016954Y0057725D01*
X0017111Y0057745D01*
X0017269Y0057761D01*
X0017426Y0057773D01*
X0017585Y0057781D01*
X0017743Y0057785D01*
X0017901Y0057785D01*
X0018059Y0057781D01*
X0018218Y0057773D01*
X0018375Y0057761D01*
X0018533Y0057745D01*
X0018690Y0057725D01*
X0018846Y0057701D01*
X0019002Y0057673D01*
X0019157Y0057642D01*
X0019312Y0057606D01*
X0019465Y0057567D01*
X0019617Y0057524D01*
X0019768Y0057477D01*
X0019918Y0057426D01*
X0020067Y0057371D01*
X0020214Y0057313D01*
X0020360Y0057251D01*
X0020504Y0057186D01*
X0020646Y0057116D01*
X0020787Y0057044D01*
X0020926Y0056967D01*
X0021062Y0056888D01*
X0021197Y0056804D01*
X0021330Y0056718D01*
X0021460Y0056628D01*
X0021588Y0056535D01*
X0021714Y0056439D01*
X0021837Y0056339D01*
X0021958Y0056237D01*
X0022076Y0056132D01*
X0022191Y0056023D01*
X0022304Y0055912D01*
X0022414Y0055798D01*
X0022521Y0055681D01*
X0022625Y0055562D01*
X0022726Y0055440D01*
X0022823Y0055315D01*
X0022918Y0055188D01*
X0023009Y0055059D01*
X0023098Y0054928D01*
X0023182Y0054794D01*
X0023264Y0054658D01*
X0023342Y0054521D01*
X0023416Y0054381D01*
X0023487Y0054239D01*
X0023555Y0054096D01*
X0023619Y0053951D01*
X0023679Y0053805D01*
X0023735Y0053657D01*
X0023788Y0053508D01*
X0023837Y0053357D01*
X0023882Y0053205D01*
X0023923Y0053052D01*
X0023961Y0052899D01*
X0023994Y0052744D01*
X0024024Y0052588D01*
X0024050Y0052432D01*
X0024071Y0052275D01*
X0024089Y0052118D01*
X0024103Y0051960D01*
X0024113Y0051802D01*
X0024119Y0051644D01*
X0024121Y0051486D01*
X0024119Y0051328D01*
X0024113Y0051170D01*
X0024103Y0051012D01*
X0024089Y0050854D01*
X0024071Y0050697D01*
X0024050Y0050540D01*
X0024024Y0050384D01*
X0023994Y0050228D01*
X0023961Y0050073D01*
X0023923Y0049920D01*
X0023882Y0049767D01*
X0023837Y0049615D01*
X0023788Y0049464D01*
X0023735Y0049315D01*
X0023679Y0049167D01*
X0023619Y0049021D01*
X0023555Y0048876D01*
X0023487Y0048733D01*
X0023416Y0048591D01*
X0023342Y0048451D01*
X0023264Y0048314D01*
X0023182Y0048178D01*
X0023098Y0048044D01*
X0023009Y0047913D01*
X0022918Y0047784D01*
X0022823Y0047657D01*
X0022726Y0047532D01*
X0022625Y0047410D01*
X0022521Y0047291D01*
X0022414Y0047174D01*
X0022304Y0047060D01*
X0022191Y0046949D01*
X0022076Y0046840D01*
X0021958Y0046735D01*
X0021837Y0046633D01*
X0021714Y0046533D01*
X0021588Y0046437D01*
X0021460Y0046344D01*
X0021330Y0046254D01*
X0021197Y0046168D01*
X0021062Y0046084D01*
X0020926Y0046005D01*
X0020787Y0045928D01*
X0020646Y0045856D01*
X0020504Y0045786D01*
X0020360Y0045721D01*
X0020214Y0045659D01*
X0020067Y0045601D01*
X0019918Y0045546D01*
X0019768Y0045495D01*
X0019617Y0045448D01*
X0019465Y0045405D01*
X0019312Y0045366D01*
X0019157Y0045330D01*
X0019002Y0045299D01*
X0018846Y0045271D01*
X0018690Y0045247D01*
X0018533Y0045227D01*
X0018375Y0045211D01*
X0018218Y0045199D01*
X0018059Y0045191D01*
X0017901Y0045187D01*
X0017743Y0045187D01*
X0017585Y0045191D01*
X0017426Y0045199D01*
X0017269Y0045211D01*
X0017111Y0045227D01*
X0016954Y0045247D01*
X0016798Y0045271D01*
X0016642Y0045299D01*
X0016487Y0045330D01*
X0016332Y0045366D01*
X0016179Y0045405D01*
X0016027Y0045448D01*
X0015876Y0045495D01*
X0015726Y0045546D01*
X0015577Y0045601D01*
X0015430Y0045659D01*
X0015284Y0045721D01*
X0015140Y0045786D01*
X0014998Y0045856D01*
X0014857Y0045928D01*
X0014718Y0046005D01*
X0014582Y0046084D01*
X0014447Y0046168D01*
X0014314Y0046254D01*
X0014184Y0046344D01*
X0014056Y0046437D01*
X0013930Y0046533D01*
X0013807Y0046633D01*
X0013686Y0046735D01*
X0013568Y0046840D01*
X0013453Y0046949D01*
X0013340Y0047060D01*
X0013230Y0047174D01*
X0013123Y0047291D01*
X0013019Y0047410D01*
X0012918Y0047532D01*
X0012821Y0047657D01*
X0012726Y0047784D01*
X0012635Y0047913D01*
X0012546Y0048044D01*
X0012462Y0048178D01*
X0012380Y0048314D01*
X0012302Y0048451D01*
X0012228Y0048591D01*
X0012157Y0048733D01*
X0012089Y0048876D01*
X0012025Y0049021D01*
X0011965Y0049167D01*
X0011909Y0049315D01*
X0011856Y0049464D01*
X0011807Y0049615D01*
X0011762Y0049767D01*
X0011721Y0049920D01*
X0011683Y0050073D01*
X0011650Y0050228D01*
X0011620Y0050384D01*
X0011594Y0050540D01*
X0011573Y0050697D01*
X0011555Y0050854D01*
X0011541Y0051012D01*
X0011531Y0051170D01*
X0011525Y0051328D01*
X0011523Y0051486D01*
X0054830Y0054793D02*
X0054832Y0054951D01*
X0054838Y0055109D01*
X0054848Y0055267D01*
X0054862Y0055425D01*
X0054880Y0055582D01*
X0054901Y0055739D01*
X0054927Y0055895D01*
X0054957Y0056051D01*
X0054990Y0056206D01*
X0055028Y0056359D01*
X0055069Y0056512D01*
X0055114Y0056664D01*
X0055163Y0056815D01*
X0055216Y0056964D01*
X0055272Y0057112D01*
X0055332Y0057258D01*
X0055396Y0057403D01*
X0055464Y0057546D01*
X0055535Y0057688D01*
X0055609Y0057828D01*
X0055687Y0057965D01*
X0055769Y0058101D01*
X0055853Y0058235D01*
X0055942Y0058366D01*
X0056033Y0058495D01*
X0056128Y0058622D01*
X0056225Y0058747D01*
X0056326Y0058869D01*
X0056430Y0058988D01*
X0056537Y0059105D01*
X0056647Y0059219D01*
X0056760Y0059330D01*
X0056875Y0059439D01*
X0056993Y0059544D01*
X0057114Y0059646D01*
X0057237Y0059746D01*
X0057363Y0059842D01*
X0057491Y0059935D01*
X0057621Y0060025D01*
X0057754Y0060111D01*
X0057889Y0060195D01*
X0058025Y0060274D01*
X0058164Y0060351D01*
X0058305Y0060423D01*
X0058447Y0060493D01*
X0058591Y0060558D01*
X0058737Y0060620D01*
X0058884Y0060678D01*
X0059033Y0060733D01*
X0059183Y0060784D01*
X0059334Y0060831D01*
X0059486Y0060874D01*
X0059639Y0060913D01*
X0059794Y0060949D01*
X0059949Y0060980D01*
X0060105Y0061008D01*
X0060261Y0061032D01*
X0060418Y0061052D01*
X0060576Y0061068D01*
X0060733Y0061080D01*
X0060892Y0061088D01*
X0061050Y0061092D01*
X0061208Y0061092D01*
X0061366Y0061088D01*
X0061525Y0061080D01*
X0061682Y0061068D01*
X0061840Y0061052D01*
X0061997Y0061032D01*
X0062153Y0061008D01*
X0062309Y0060980D01*
X0062464Y0060949D01*
X0062619Y0060913D01*
X0062772Y0060874D01*
X0062924Y0060831D01*
X0063075Y0060784D01*
X0063225Y0060733D01*
X0063374Y0060678D01*
X0063521Y0060620D01*
X0063667Y0060558D01*
X0063811Y0060493D01*
X0063953Y0060423D01*
X0064094Y0060351D01*
X0064233Y0060274D01*
X0064369Y0060195D01*
X0064504Y0060111D01*
X0064637Y0060025D01*
X0064767Y0059935D01*
X0064895Y0059842D01*
X0065021Y0059746D01*
X0065144Y0059646D01*
X0065265Y0059544D01*
X0065383Y0059439D01*
X0065498Y0059330D01*
X0065611Y0059219D01*
X0065721Y0059105D01*
X0065828Y0058988D01*
X0065932Y0058869D01*
X0066033Y0058747D01*
X0066130Y0058622D01*
X0066225Y0058495D01*
X0066316Y0058366D01*
X0066405Y0058235D01*
X0066489Y0058101D01*
X0066571Y0057965D01*
X0066649Y0057828D01*
X0066723Y0057688D01*
X0066794Y0057546D01*
X0066862Y0057403D01*
X0066926Y0057258D01*
X0066986Y0057112D01*
X0067042Y0056964D01*
X0067095Y0056815D01*
X0067144Y0056664D01*
X0067189Y0056512D01*
X0067230Y0056359D01*
X0067268Y0056206D01*
X0067301Y0056051D01*
X0067331Y0055895D01*
X0067357Y0055739D01*
X0067378Y0055582D01*
X0067396Y0055425D01*
X0067410Y0055267D01*
X0067420Y0055109D01*
X0067426Y0054951D01*
X0067428Y0054793D01*
X0067426Y0054635D01*
X0067420Y0054477D01*
X0067410Y0054319D01*
X0067396Y0054161D01*
X0067378Y0054004D01*
X0067357Y0053847D01*
X0067331Y0053691D01*
X0067301Y0053535D01*
X0067268Y0053380D01*
X0067230Y0053227D01*
X0067189Y0053074D01*
X0067144Y0052922D01*
X0067095Y0052771D01*
X0067042Y0052622D01*
X0066986Y0052474D01*
X0066926Y0052328D01*
X0066862Y0052183D01*
X0066794Y0052040D01*
X0066723Y0051898D01*
X0066649Y0051758D01*
X0066571Y0051621D01*
X0066489Y0051485D01*
X0066405Y0051351D01*
X0066316Y0051220D01*
X0066225Y0051091D01*
X0066130Y0050964D01*
X0066033Y0050839D01*
X0065932Y0050717D01*
X0065828Y0050598D01*
X0065721Y0050481D01*
X0065611Y0050367D01*
X0065498Y0050256D01*
X0065383Y0050147D01*
X0065265Y0050042D01*
X0065144Y0049940D01*
X0065021Y0049840D01*
X0064895Y0049744D01*
X0064767Y0049651D01*
X0064637Y0049561D01*
X0064504Y0049475D01*
X0064369Y0049391D01*
X0064233Y0049312D01*
X0064094Y0049235D01*
X0063953Y0049163D01*
X0063811Y0049093D01*
X0063667Y0049028D01*
X0063521Y0048966D01*
X0063374Y0048908D01*
X0063225Y0048853D01*
X0063075Y0048802D01*
X0062924Y0048755D01*
X0062772Y0048712D01*
X0062619Y0048673D01*
X0062464Y0048637D01*
X0062309Y0048606D01*
X0062153Y0048578D01*
X0061997Y0048554D01*
X0061840Y0048534D01*
X0061682Y0048518D01*
X0061525Y0048506D01*
X0061366Y0048498D01*
X0061208Y0048494D01*
X0061050Y0048494D01*
X0060892Y0048498D01*
X0060733Y0048506D01*
X0060576Y0048518D01*
X0060418Y0048534D01*
X0060261Y0048554D01*
X0060105Y0048578D01*
X0059949Y0048606D01*
X0059794Y0048637D01*
X0059639Y0048673D01*
X0059486Y0048712D01*
X0059334Y0048755D01*
X0059183Y0048802D01*
X0059033Y0048853D01*
X0058884Y0048908D01*
X0058737Y0048966D01*
X0058591Y0049028D01*
X0058447Y0049093D01*
X0058305Y0049163D01*
X0058164Y0049235D01*
X0058025Y0049312D01*
X0057889Y0049391D01*
X0057754Y0049475D01*
X0057621Y0049561D01*
X0057491Y0049651D01*
X0057363Y0049744D01*
X0057237Y0049840D01*
X0057114Y0049940D01*
X0056993Y0050042D01*
X0056875Y0050147D01*
X0056760Y0050256D01*
X0056647Y0050367D01*
X0056537Y0050481D01*
X0056430Y0050598D01*
X0056326Y0050717D01*
X0056225Y0050839D01*
X0056128Y0050964D01*
X0056033Y0051091D01*
X0055942Y0051220D01*
X0055853Y0051351D01*
X0055769Y0051485D01*
X0055687Y0051621D01*
X0055609Y0051758D01*
X0055535Y0051898D01*
X0055464Y0052040D01*
X0055396Y0052183D01*
X0055332Y0052328D01*
X0055272Y0052474D01*
X0055216Y0052622D01*
X0055163Y0052771D01*
X0055114Y0052922D01*
X0055069Y0053074D01*
X0055028Y0053227D01*
X0054990Y0053380D01*
X0054957Y0053535D01*
X0054927Y0053691D01*
X0054901Y0053847D01*
X0054880Y0054004D01*
X0054862Y0054161D01*
X0054848Y0054319D01*
X0054838Y0054477D01*
X0054832Y0054635D01*
X0054830Y0054793D01*
X0011523Y0197156D02*
X0011525Y0197314D01*
X0011531Y0197472D01*
X0011541Y0197630D01*
X0011555Y0197788D01*
X0011573Y0197945D01*
X0011594Y0198102D01*
X0011620Y0198258D01*
X0011650Y0198414D01*
X0011683Y0198569D01*
X0011721Y0198722D01*
X0011762Y0198875D01*
X0011807Y0199027D01*
X0011856Y0199178D01*
X0011909Y0199327D01*
X0011965Y0199475D01*
X0012025Y0199621D01*
X0012089Y0199766D01*
X0012157Y0199909D01*
X0012228Y0200051D01*
X0012302Y0200191D01*
X0012380Y0200328D01*
X0012462Y0200464D01*
X0012546Y0200598D01*
X0012635Y0200729D01*
X0012726Y0200858D01*
X0012821Y0200985D01*
X0012918Y0201110D01*
X0013019Y0201232D01*
X0013123Y0201351D01*
X0013230Y0201468D01*
X0013340Y0201582D01*
X0013453Y0201693D01*
X0013568Y0201802D01*
X0013686Y0201907D01*
X0013807Y0202009D01*
X0013930Y0202109D01*
X0014056Y0202205D01*
X0014184Y0202298D01*
X0014314Y0202388D01*
X0014447Y0202474D01*
X0014582Y0202558D01*
X0014718Y0202637D01*
X0014857Y0202714D01*
X0014998Y0202786D01*
X0015140Y0202856D01*
X0015284Y0202921D01*
X0015430Y0202983D01*
X0015577Y0203041D01*
X0015726Y0203096D01*
X0015876Y0203147D01*
X0016027Y0203194D01*
X0016179Y0203237D01*
X0016332Y0203276D01*
X0016487Y0203312D01*
X0016642Y0203343D01*
X0016798Y0203371D01*
X0016954Y0203395D01*
X0017111Y0203415D01*
X0017269Y0203431D01*
X0017426Y0203443D01*
X0017585Y0203451D01*
X0017743Y0203455D01*
X0017901Y0203455D01*
X0018059Y0203451D01*
X0018218Y0203443D01*
X0018375Y0203431D01*
X0018533Y0203415D01*
X0018690Y0203395D01*
X0018846Y0203371D01*
X0019002Y0203343D01*
X0019157Y0203312D01*
X0019312Y0203276D01*
X0019465Y0203237D01*
X0019617Y0203194D01*
X0019768Y0203147D01*
X0019918Y0203096D01*
X0020067Y0203041D01*
X0020214Y0202983D01*
X0020360Y0202921D01*
X0020504Y0202856D01*
X0020646Y0202786D01*
X0020787Y0202714D01*
X0020926Y0202637D01*
X0021062Y0202558D01*
X0021197Y0202474D01*
X0021330Y0202388D01*
X0021460Y0202298D01*
X0021588Y0202205D01*
X0021714Y0202109D01*
X0021837Y0202009D01*
X0021958Y0201907D01*
X0022076Y0201802D01*
X0022191Y0201693D01*
X0022304Y0201582D01*
X0022414Y0201468D01*
X0022521Y0201351D01*
X0022625Y0201232D01*
X0022726Y0201110D01*
X0022823Y0200985D01*
X0022918Y0200858D01*
X0023009Y0200729D01*
X0023098Y0200598D01*
X0023182Y0200464D01*
X0023264Y0200328D01*
X0023342Y0200191D01*
X0023416Y0200051D01*
X0023487Y0199909D01*
X0023555Y0199766D01*
X0023619Y0199621D01*
X0023679Y0199475D01*
X0023735Y0199327D01*
X0023788Y0199178D01*
X0023837Y0199027D01*
X0023882Y0198875D01*
X0023923Y0198722D01*
X0023961Y0198569D01*
X0023994Y0198414D01*
X0024024Y0198258D01*
X0024050Y0198102D01*
X0024071Y0197945D01*
X0024089Y0197788D01*
X0024103Y0197630D01*
X0024113Y0197472D01*
X0024119Y0197314D01*
X0024121Y0197156D01*
X0024119Y0196998D01*
X0024113Y0196840D01*
X0024103Y0196682D01*
X0024089Y0196524D01*
X0024071Y0196367D01*
X0024050Y0196210D01*
X0024024Y0196054D01*
X0023994Y0195898D01*
X0023961Y0195743D01*
X0023923Y0195590D01*
X0023882Y0195437D01*
X0023837Y0195285D01*
X0023788Y0195134D01*
X0023735Y0194985D01*
X0023679Y0194837D01*
X0023619Y0194691D01*
X0023555Y0194546D01*
X0023487Y0194403D01*
X0023416Y0194261D01*
X0023342Y0194121D01*
X0023264Y0193984D01*
X0023182Y0193848D01*
X0023098Y0193714D01*
X0023009Y0193583D01*
X0022918Y0193454D01*
X0022823Y0193327D01*
X0022726Y0193202D01*
X0022625Y0193080D01*
X0022521Y0192961D01*
X0022414Y0192844D01*
X0022304Y0192730D01*
X0022191Y0192619D01*
X0022076Y0192510D01*
X0021958Y0192405D01*
X0021837Y0192303D01*
X0021714Y0192203D01*
X0021588Y0192107D01*
X0021460Y0192014D01*
X0021330Y0191924D01*
X0021197Y0191838D01*
X0021062Y0191754D01*
X0020926Y0191675D01*
X0020787Y0191598D01*
X0020646Y0191526D01*
X0020504Y0191456D01*
X0020360Y0191391D01*
X0020214Y0191329D01*
X0020067Y0191271D01*
X0019918Y0191216D01*
X0019768Y0191165D01*
X0019617Y0191118D01*
X0019465Y0191075D01*
X0019312Y0191036D01*
X0019157Y0191000D01*
X0019002Y0190969D01*
X0018846Y0190941D01*
X0018690Y0190917D01*
X0018533Y0190897D01*
X0018375Y0190881D01*
X0018218Y0190869D01*
X0018059Y0190861D01*
X0017901Y0190857D01*
X0017743Y0190857D01*
X0017585Y0190861D01*
X0017426Y0190869D01*
X0017269Y0190881D01*
X0017111Y0190897D01*
X0016954Y0190917D01*
X0016798Y0190941D01*
X0016642Y0190969D01*
X0016487Y0191000D01*
X0016332Y0191036D01*
X0016179Y0191075D01*
X0016027Y0191118D01*
X0015876Y0191165D01*
X0015726Y0191216D01*
X0015577Y0191271D01*
X0015430Y0191329D01*
X0015284Y0191391D01*
X0015140Y0191456D01*
X0014998Y0191526D01*
X0014857Y0191598D01*
X0014718Y0191675D01*
X0014582Y0191754D01*
X0014447Y0191838D01*
X0014314Y0191924D01*
X0014184Y0192014D01*
X0014056Y0192107D01*
X0013930Y0192203D01*
X0013807Y0192303D01*
X0013686Y0192405D01*
X0013568Y0192510D01*
X0013453Y0192619D01*
X0013340Y0192730D01*
X0013230Y0192844D01*
X0013123Y0192961D01*
X0013019Y0193080D01*
X0012918Y0193202D01*
X0012821Y0193327D01*
X0012726Y0193454D01*
X0012635Y0193583D01*
X0012546Y0193714D01*
X0012462Y0193848D01*
X0012380Y0193984D01*
X0012302Y0194121D01*
X0012228Y0194261D01*
X0012157Y0194403D01*
X0012089Y0194546D01*
X0012025Y0194691D01*
X0011965Y0194837D01*
X0011909Y0194985D01*
X0011856Y0195134D01*
X0011807Y0195285D01*
X0011762Y0195437D01*
X0011721Y0195590D01*
X0011683Y0195743D01*
X0011650Y0195898D01*
X0011620Y0196054D01*
X0011594Y0196210D01*
X0011573Y0196367D01*
X0011555Y0196524D01*
X0011541Y0196682D01*
X0011531Y0196840D01*
X0011525Y0196998D01*
X0011523Y0197156D01*
X0342231Y0197156D02*
X0342233Y0197314D01*
X0342239Y0197472D01*
X0342249Y0197630D01*
X0342263Y0197788D01*
X0342281Y0197945D01*
X0342302Y0198102D01*
X0342328Y0198258D01*
X0342358Y0198414D01*
X0342391Y0198569D01*
X0342429Y0198722D01*
X0342470Y0198875D01*
X0342515Y0199027D01*
X0342564Y0199178D01*
X0342617Y0199327D01*
X0342673Y0199475D01*
X0342733Y0199621D01*
X0342797Y0199766D01*
X0342865Y0199909D01*
X0342936Y0200051D01*
X0343010Y0200191D01*
X0343088Y0200328D01*
X0343170Y0200464D01*
X0343254Y0200598D01*
X0343343Y0200729D01*
X0343434Y0200858D01*
X0343529Y0200985D01*
X0343626Y0201110D01*
X0343727Y0201232D01*
X0343831Y0201351D01*
X0343938Y0201468D01*
X0344048Y0201582D01*
X0344161Y0201693D01*
X0344276Y0201802D01*
X0344394Y0201907D01*
X0344515Y0202009D01*
X0344638Y0202109D01*
X0344764Y0202205D01*
X0344892Y0202298D01*
X0345022Y0202388D01*
X0345155Y0202474D01*
X0345290Y0202558D01*
X0345426Y0202637D01*
X0345565Y0202714D01*
X0345706Y0202786D01*
X0345848Y0202856D01*
X0345992Y0202921D01*
X0346138Y0202983D01*
X0346285Y0203041D01*
X0346434Y0203096D01*
X0346584Y0203147D01*
X0346735Y0203194D01*
X0346887Y0203237D01*
X0347040Y0203276D01*
X0347195Y0203312D01*
X0347350Y0203343D01*
X0347506Y0203371D01*
X0347662Y0203395D01*
X0347819Y0203415D01*
X0347977Y0203431D01*
X0348134Y0203443D01*
X0348293Y0203451D01*
X0348451Y0203455D01*
X0348609Y0203455D01*
X0348767Y0203451D01*
X0348926Y0203443D01*
X0349083Y0203431D01*
X0349241Y0203415D01*
X0349398Y0203395D01*
X0349554Y0203371D01*
X0349710Y0203343D01*
X0349865Y0203312D01*
X0350020Y0203276D01*
X0350173Y0203237D01*
X0350325Y0203194D01*
X0350476Y0203147D01*
X0350626Y0203096D01*
X0350775Y0203041D01*
X0350922Y0202983D01*
X0351068Y0202921D01*
X0351212Y0202856D01*
X0351354Y0202786D01*
X0351495Y0202714D01*
X0351634Y0202637D01*
X0351770Y0202558D01*
X0351905Y0202474D01*
X0352038Y0202388D01*
X0352168Y0202298D01*
X0352296Y0202205D01*
X0352422Y0202109D01*
X0352545Y0202009D01*
X0352666Y0201907D01*
X0352784Y0201802D01*
X0352899Y0201693D01*
X0353012Y0201582D01*
X0353122Y0201468D01*
X0353229Y0201351D01*
X0353333Y0201232D01*
X0353434Y0201110D01*
X0353531Y0200985D01*
X0353626Y0200858D01*
X0353717Y0200729D01*
X0353806Y0200598D01*
X0353890Y0200464D01*
X0353972Y0200328D01*
X0354050Y0200191D01*
X0354124Y0200051D01*
X0354195Y0199909D01*
X0354263Y0199766D01*
X0354327Y0199621D01*
X0354387Y0199475D01*
X0354443Y0199327D01*
X0354496Y0199178D01*
X0354545Y0199027D01*
X0354590Y0198875D01*
X0354631Y0198722D01*
X0354669Y0198569D01*
X0354702Y0198414D01*
X0354732Y0198258D01*
X0354758Y0198102D01*
X0354779Y0197945D01*
X0354797Y0197788D01*
X0354811Y0197630D01*
X0354821Y0197472D01*
X0354827Y0197314D01*
X0354829Y0197156D01*
X0354827Y0196998D01*
X0354821Y0196840D01*
X0354811Y0196682D01*
X0354797Y0196524D01*
X0354779Y0196367D01*
X0354758Y0196210D01*
X0354732Y0196054D01*
X0354702Y0195898D01*
X0354669Y0195743D01*
X0354631Y0195590D01*
X0354590Y0195437D01*
X0354545Y0195285D01*
X0354496Y0195134D01*
X0354443Y0194985D01*
X0354387Y0194837D01*
X0354327Y0194691D01*
X0354263Y0194546D01*
X0354195Y0194403D01*
X0354124Y0194261D01*
X0354050Y0194121D01*
X0353972Y0193984D01*
X0353890Y0193848D01*
X0353806Y0193714D01*
X0353717Y0193583D01*
X0353626Y0193454D01*
X0353531Y0193327D01*
X0353434Y0193202D01*
X0353333Y0193080D01*
X0353229Y0192961D01*
X0353122Y0192844D01*
X0353012Y0192730D01*
X0352899Y0192619D01*
X0352784Y0192510D01*
X0352666Y0192405D01*
X0352545Y0192303D01*
X0352422Y0192203D01*
X0352296Y0192107D01*
X0352168Y0192014D01*
X0352038Y0191924D01*
X0351905Y0191838D01*
X0351770Y0191754D01*
X0351634Y0191675D01*
X0351495Y0191598D01*
X0351354Y0191526D01*
X0351212Y0191456D01*
X0351068Y0191391D01*
X0350922Y0191329D01*
X0350775Y0191271D01*
X0350626Y0191216D01*
X0350476Y0191165D01*
X0350325Y0191118D01*
X0350173Y0191075D01*
X0350020Y0191036D01*
X0349865Y0191000D01*
X0349710Y0190969D01*
X0349554Y0190941D01*
X0349398Y0190917D01*
X0349241Y0190897D01*
X0349083Y0190881D01*
X0348926Y0190869D01*
X0348767Y0190861D01*
X0348609Y0190857D01*
X0348451Y0190857D01*
X0348293Y0190861D01*
X0348134Y0190869D01*
X0347977Y0190881D01*
X0347819Y0190897D01*
X0347662Y0190917D01*
X0347506Y0190941D01*
X0347350Y0190969D01*
X0347195Y0191000D01*
X0347040Y0191036D01*
X0346887Y0191075D01*
X0346735Y0191118D01*
X0346584Y0191165D01*
X0346434Y0191216D01*
X0346285Y0191271D01*
X0346138Y0191329D01*
X0345992Y0191391D01*
X0345848Y0191456D01*
X0345706Y0191526D01*
X0345565Y0191598D01*
X0345426Y0191675D01*
X0345290Y0191754D01*
X0345155Y0191838D01*
X0345022Y0191924D01*
X0344892Y0192014D01*
X0344764Y0192107D01*
X0344638Y0192203D01*
X0344515Y0192303D01*
X0344394Y0192405D01*
X0344276Y0192510D01*
X0344161Y0192619D01*
X0344048Y0192730D01*
X0343938Y0192844D01*
X0343831Y0192961D01*
X0343727Y0193080D01*
X0343626Y0193202D01*
X0343529Y0193327D01*
X0343434Y0193454D01*
X0343343Y0193583D01*
X0343254Y0193714D01*
X0343170Y0193848D01*
X0343088Y0193984D01*
X0343010Y0194121D01*
X0342936Y0194261D01*
X0342865Y0194403D01*
X0342797Y0194546D01*
X0342733Y0194691D01*
X0342673Y0194837D01*
X0342617Y0194985D01*
X0342564Y0195134D01*
X0342515Y0195285D01*
X0342470Y0195437D01*
X0342429Y0195590D01*
X0342391Y0195743D01*
X0342358Y0195898D01*
X0342328Y0196054D01*
X0342302Y0196210D01*
X0342281Y0196367D01*
X0342263Y0196524D01*
X0342249Y0196682D01*
X0342239Y0196840D01*
X0342233Y0196998D01*
X0342231Y0197156D01*
X0342231Y0051486D02*
X0342233Y0051644D01*
X0342239Y0051802D01*
X0342249Y0051960D01*
X0342263Y0052118D01*
X0342281Y0052275D01*
X0342302Y0052432D01*
X0342328Y0052588D01*
X0342358Y0052744D01*
X0342391Y0052899D01*
X0342429Y0053052D01*
X0342470Y0053205D01*
X0342515Y0053357D01*
X0342564Y0053508D01*
X0342617Y0053657D01*
X0342673Y0053805D01*
X0342733Y0053951D01*
X0342797Y0054096D01*
X0342865Y0054239D01*
X0342936Y0054381D01*
X0343010Y0054521D01*
X0343088Y0054658D01*
X0343170Y0054794D01*
X0343254Y0054928D01*
X0343343Y0055059D01*
X0343434Y0055188D01*
X0343529Y0055315D01*
X0343626Y0055440D01*
X0343727Y0055562D01*
X0343831Y0055681D01*
X0343938Y0055798D01*
X0344048Y0055912D01*
X0344161Y0056023D01*
X0344276Y0056132D01*
X0344394Y0056237D01*
X0344515Y0056339D01*
X0344638Y0056439D01*
X0344764Y0056535D01*
X0344892Y0056628D01*
X0345022Y0056718D01*
X0345155Y0056804D01*
X0345290Y0056888D01*
X0345426Y0056967D01*
X0345565Y0057044D01*
X0345706Y0057116D01*
X0345848Y0057186D01*
X0345992Y0057251D01*
X0346138Y0057313D01*
X0346285Y0057371D01*
X0346434Y0057426D01*
X0346584Y0057477D01*
X0346735Y0057524D01*
X0346887Y0057567D01*
X0347040Y0057606D01*
X0347195Y0057642D01*
X0347350Y0057673D01*
X0347506Y0057701D01*
X0347662Y0057725D01*
X0347819Y0057745D01*
X0347977Y0057761D01*
X0348134Y0057773D01*
X0348293Y0057781D01*
X0348451Y0057785D01*
X0348609Y0057785D01*
X0348767Y0057781D01*
X0348926Y0057773D01*
X0349083Y0057761D01*
X0349241Y0057745D01*
X0349398Y0057725D01*
X0349554Y0057701D01*
X0349710Y0057673D01*
X0349865Y0057642D01*
X0350020Y0057606D01*
X0350173Y0057567D01*
X0350325Y0057524D01*
X0350476Y0057477D01*
X0350626Y0057426D01*
X0350775Y0057371D01*
X0350922Y0057313D01*
X0351068Y0057251D01*
X0351212Y0057186D01*
X0351354Y0057116D01*
X0351495Y0057044D01*
X0351634Y0056967D01*
X0351770Y0056888D01*
X0351905Y0056804D01*
X0352038Y0056718D01*
X0352168Y0056628D01*
X0352296Y0056535D01*
X0352422Y0056439D01*
X0352545Y0056339D01*
X0352666Y0056237D01*
X0352784Y0056132D01*
X0352899Y0056023D01*
X0353012Y0055912D01*
X0353122Y0055798D01*
X0353229Y0055681D01*
X0353333Y0055562D01*
X0353434Y0055440D01*
X0353531Y0055315D01*
X0353626Y0055188D01*
X0353717Y0055059D01*
X0353806Y0054928D01*
X0353890Y0054794D01*
X0353972Y0054658D01*
X0354050Y0054521D01*
X0354124Y0054381D01*
X0354195Y0054239D01*
X0354263Y0054096D01*
X0354327Y0053951D01*
X0354387Y0053805D01*
X0354443Y0053657D01*
X0354496Y0053508D01*
X0354545Y0053357D01*
X0354590Y0053205D01*
X0354631Y0053052D01*
X0354669Y0052899D01*
X0354702Y0052744D01*
X0354732Y0052588D01*
X0354758Y0052432D01*
X0354779Y0052275D01*
X0354797Y0052118D01*
X0354811Y0051960D01*
X0354821Y0051802D01*
X0354827Y0051644D01*
X0354829Y0051486D01*
X0354827Y0051328D01*
X0354821Y0051170D01*
X0354811Y0051012D01*
X0354797Y0050854D01*
X0354779Y0050697D01*
X0354758Y0050540D01*
X0354732Y0050384D01*
X0354702Y0050228D01*
X0354669Y0050073D01*
X0354631Y0049920D01*
X0354590Y0049767D01*
X0354545Y0049615D01*
X0354496Y0049464D01*
X0354443Y0049315D01*
X0354387Y0049167D01*
X0354327Y0049021D01*
X0354263Y0048876D01*
X0354195Y0048733D01*
X0354124Y0048591D01*
X0354050Y0048451D01*
X0353972Y0048314D01*
X0353890Y0048178D01*
X0353806Y0048044D01*
X0353717Y0047913D01*
X0353626Y0047784D01*
X0353531Y0047657D01*
X0353434Y0047532D01*
X0353333Y0047410D01*
X0353229Y0047291D01*
X0353122Y0047174D01*
X0353012Y0047060D01*
X0352899Y0046949D01*
X0352784Y0046840D01*
X0352666Y0046735D01*
X0352545Y0046633D01*
X0352422Y0046533D01*
X0352296Y0046437D01*
X0352168Y0046344D01*
X0352038Y0046254D01*
X0351905Y0046168D01*
X0351770Y0046084D01*
X0351634Y0046005D01*
X0351495Y0045928D01*
X0351354Y0045856D01*
X0351212Y0045786D01*
X0351068Y0045721D01*
X0350922Y0045659D01*
X0350775Y0045601D01*
X0350626Y0045546D01*
X0350476Y0045495D01*
X0350325Y0045448D01*
X0350173Y0045405D01*
X0350020Y0045366D01*
X0349865Y0045330D01*
X0349710Y0045299D01*
X0349554Y0045271D01*
X0349398Y0045247D01*
X0349241Y0045227D01*
X0349083Y0045211D01*
X0348926Y0045199D01*
X0348767Y0045191D01*
X0348609Y0045187D01*
X0348451Y0045187D01*
X0348293Y0045191D01*
X0348134Y0045199D01*
X0347977Y0045211D01*
X0347819Y0045227D01*
X0347662Y0045247D01*
X0347506Y0045271D01*
X0347350Y0045299D01*
X0347195Y0045330D01*
X0347040Y0045366D01*
X0346887Y0045405D01*
X0346735Y0045448D01*
X0346584Y0045495D01*
X0346434Y0045546D01*
X0346285Y0045601D01*
X0346138Y0045659D01*
X0345992Y0045721D01*
X0345848Y0045786D01*
X0345706Y0045856D01*
X0345565Y0045928D01*
X0345426Y0046005D01*
X0345290Y0046084D01*
X0345155Y0046168D01*
X0345022Y0046254D01*
X0344892Y0046344D01*
X0344764Y0046437D01*
X0344638Y0046533D01*
X0344515Y0046633D01*
X0344394Y0046735D01*
X0344276Y0046840D01*
X0344161Y0046949D01*
X0344048Y0047060D01*
X0343938Y0047174D01*
X0343831Y0047291D01*
X0343727Y0047410D01*
X0343626Y0047532D01*
X0343529Y0047657D01*
X0343434Y0047784D01*
X0343343Y0047913D01*
X0343254Y0048044D01*
X0343170Y0048178D01*
X0343088Y0048314D01*
X0343010Y0048451D01*
X0342936Y0048591D01*
X0342865Y0048733D01*
X0342797Y0048876D01*
X0342733Y0049021D01*
X0342673Y0049167D01*
X0342617Y0049315D01*
X0342564Y0049464D01*
X0342515Y0049615D01*
X0342470Y0049767D01*
X0342429Y0049920D01*
X0342391Y0050073D01*
X0342358Y0050228D01*
X0342328Y0050384D01*
X0342302Y0050540D01*
X0342281Y0050697D01*
X0342263Y0050854D01*
X0342249Y0051012D01*
X0342239Y0051170D01*
X0342233Y0051328D01*
X0342231Y0051486D01*
M02*
