%
M48
M72
T01C0.02362
T02C0.03200
T03C0.03543
T04C0.03930
T05C0.03937
T06C0.12598
%
T01
X194987Y51486
X194987Y59360
X273727Y110541
X336719Y94793
X128058Y153848
X69003Y145974
T02
X136444Y138809
X146444Y138809
X119093Y184124
X100093Y184124
X324908Y56486
X324908Y46486
X348530Y74045
X348530Y84045
T03
X149396Y162510
X149396Y172510
X149396Y182510
X149396Y192510
X18333Y172825
X18333Y162825
X18333Y152825
X18333Y142825
X18333Y132825
T04
X184790Y136722
X194790Y136722
X194790Y126722
X184790Y126722
X184790Y116722
X194790Y116722
X194790Y106722
X184790Y106722
X184790Y96722
X194790Y96722
X194790Y86722
X184790Y86722
X214790Y66722
X224790Y66722
X234790Y66722
X244790Y66722
X254790Y66722
X264790Y66722
X274790Y66722
X284790Y66722
X284790Y56722
X274790Y56722
X264790Y56722
X254790Y56722
X244790Y56722
X234790Y56722
X224790Y56722
X214790Y56722
X304790Y86722
X314790Y86722
X314790Y96722
X304790Y96722
X304790Y106722
X314790Y106722
X314790Y116722
X304790Y116722
X304790Y126722
X314790Y126722
X314790Y136722
X304790Y136722
X304790Y146722
X314790Y146722
X314790Y156722
X304790Y156722
X284790Y176722
X274790Y176722
X264790Y176722
X254790Y176722
X244790Y176722
X234790Y176722
X224790Y176722
X214790Y176722
X214790Y186722
X224790Y186722
X234790Y186722
X244790Y186722
X254790Y186722
X264790Y186722
X274790Y186722
X284790Y186722
X194790Y156722
X184790Y156722
X184790Y146722
X194790Y146722
T05
X82467Y173770
X71129Y104793
X51129Y104793
X51129Y84793
X71129Y84793
X98373Y51486
X108373Y51486
X118373Y51486
X137743Y51486
X147743Y51486
X157743Y51486
X348530Y102352
X348530Y112352
X348530Y122352
X348530Y132352
X348530Y142352
X348530Y160659
X348530Y170659
T06
X17822Y51486
X61129Y54793
X17822Y197156
X348530Y197156
X348530Y51486
M30
