G75*
%MOIN*%
%OFA0B0*%
%FSLAX25Y25*%
%IPPOS*%
%LPD*%
%AMOC8*
5,1,8,0,0,1.08239X$1,22.5*
%
%ADD10R,0.07874X0.05906*%
%ADD11R,0.07874X0.14961*%
%ADD12R,0.06000X0.04000*%
%ADD13OC8,0.05543*%
%ADD14R,0.02200X0.05000*%
%ADD15R,0.05000X0.02200*%
%ADD16R,0.09843X0.08661*%
%ADD17R,0.01969X0.07874*%
%ADD18R,0.04000X0.06000*%
%ADD19C,0.05200*%
%ADD20R,0.03000X0.04000*%
%ADD21OC8,0.05937*%
%ADD22OC8,0.05200*%
%ADD23C,0.05543*%
%ADD24C,0.06600*%
%ADD25C,0.05937*%
%ADD26R,0.04331X0.01575*%
%ADD27C,0.01600*%
%ADD28C,0.03200*%
%ADD29C,0.02400*%
%ADD30R,0.03962X0.03962*%
D10*
X0035814Y0114833D03*
X0035814Y0123888D03*
X0035814Y0132943D03*
X0159514Y0172785D03*
X0159514Y0184596D03*
D11*
X0060617Y0123888D03*
D12*
X0025617Y0125780D03*
X0025617Y0118531D03*
X0088688Y0102855D03*
X0088688Y0094606D03*
X0100499Y0086607D03*
X0100499Y0079358D03*
X0124121Y0095106D03*
X0124121Y0102355D03*
X0128058Y0062985D03*
X0128058Y0055736D03*
X0293806Y0059752D03*
X0302310Y0059752D03*
X0302310Y0067001D03*
X0293806Y0067001D03*
X0332861Y0061634D03*
X0332861Y0053385D03*
X0340656Y0070984D03*
X0340656Y0079233D03*
X0332231Y0103059D03*
X0332231Y0110308D03*
X0289554Y0146366D03*
X0289554Y0153615D03*
X0206089Y0185578D03*
X0198215Y0185893D03*
X0206089Y0192827D03*
X0198215Y0193142D03*
X0171444Y0182422D03*
X0171444Y0174172D03*
X0128136Y0172991D03*
X0128136Y0181241D03*
D13*
X0149396Y0182510D03*
X0149396Y0192510D03*
X0149396Y0172510D03*
X0149396Y0162510D03*
D14*
X0106877Y0161457D03*
X0103727Y0161457D03*
X0100577Y0161457D03*
X0097428Y0161457D03*
X0094278Y0161457D03*
X0091129Y0161457D03*
X0087979Y0161457D03*
X0084829Y0161457D03*
X0084829Y0127657D03*
X0087979Y0127657D03*
X0091129Y0127657D03*
X0094278Y0127657D03*
X0097428Y0127657D03*
X0100577Y0127657D03*
X0103727Y0127657D03*
X0106877Y0127657D03*
D15*
X0112753Y0133533D03*
X0112753Y0136683D03*
X0112753Y0139833D03*
X0112753Y0142982D03*
X0112753Y0146132D03*
X0112753Y0149281D03*
X0112753Y0152431D03*
X0112753Y0155581D03*
X0078953Y0155581D03*
X0078953Y0152431D03*
X0078953Y0149281D03*
X0078953Y0146132D03*
X0078953Y0142982D03*
X0078953Y0139833D03*
X0078953Y0136683D03*
X0078953Y0133533D03*
D16*
X0068018Y0181250D03*
X0034948Y0181250D03*
X0034948Y0202116D03*
X0068018Y0202116D03*
D17*
X0057782Y0180266D03*
X0054633Y0180266D03*
X0051483Y0180266D03*
X0048333Y0180266D03*
X0045184Y0180266D03*
D18*
X0108252Y0173455D03*
X0115501Y0173455D03*
X0117701Y0161644D03*
X0124950Y0161644D03*
X0148657Y0130148D03*
X0156907Y0130148D03*
X0104517Y0118337D03*
X0097268Y0118337D03*
X0100311Y0098730D03*
X0108560Y0098730D03*
X0088875Y0075108D03*
X0080626Y0075108D03*
X0080626Y0059360D03*
X0088875Y0059360D03*
X0108185Y0063297D03*
X0116434Y0063297D03*
X0041631Y0082982D03*
X0033382Y0082982D03*
X0033370Y0106683D03*
X0040620Y0106683D03*
X0210811Y0106211D03*
X0218060Y0106211D03*
X0222779Y0161486D03*
X0230029Y0161486D03*
X0270338Y0161801D03*
X0277588Y0161801D03*
D19*
X0119093Y0184124D03*
X0100093Y0184124D03*
D20*
X0099652Y0190423D03*
X0106542Y0190423D03*
X0117329Y0192077D03*
X0124219Y0192077D03*
D21*
X0082467Y0173770D03*
D22*
X0136444Y0138809D03*
X0146444Y0138809D03*
X0324908Y0056486D03*
X0324908Y0046486D03*
X0348530Y0074045D03*
X0348530Y0084045D03*
D23*
X0021105Y0132825D02*
X0015562Y0132825D01*
X0015562Y0142825D02*
X0021105Y0142825D01*
X0021105Y0152825D02*
X0015562Y0152825D01*
X0015562Y0162825D02*
X0021105Y0162825D01*
X0021105Y0172825D02*
X0015562Y0172825D01*
D24*
X0178190Y0156722D02*
X0184790Y0156722D01*
X0194790Y0156722D02*
X0201390Y0156722D01*
X0201390Y0146722D02*
X0194790Y0146722D01*
X0184790Y0146722D02*
X0178190Y0146722D01*
X0178190Y0136722D02*
X0184790Y0136722D01*
X0194790Y0136722D02*
X0201390Y0136722D01*
X0201390Y0126722D02*
X0194790Y0126722D01*
X0184790Y0126722D02*
X0178190Y0126722D01*
X0178190Y0116722D02*
X0184790Y0116722D01*
X0194790Y0116722D02*
X0201390Y0116722D01*
X0201390Y0106722D02*
X0194790Y0106722D01*
X0184790Y0106722D02*
X0178190Y0106722D01*
X0178190Y0096722D02*
X0184790Y0096722D01*
X0194790Y0096722D02*
X0201390Y0096722D01*
X0201390Y0086722D02*
X0194790Y0086722D01*
X0184790Y0086722D02*
X0178190Y0086722D01*
X0214790Y0073322D02*
X0214790Y0066722D01*
X0224790Y0066722D02*
X0224790Y0073322D01*
X0234790Y0073322D02*
X0234790Y0066722D01*
X0244790Y0066722D02*
X0244790Y0073322D01*
X0254790Y0073322D02*
X0254790Y0066722D01*
X0264790Y0066722D02*
X0264790Y0073322D01*
X0274790Y0073322D02*
X0274790Y0066722D01*
X0284790Y0066722D02*
X0284790Y0073322D01*
X0284790Y0056722D02*
X0284790Y0050122D01*
X0274790Y0050122D02*
X0274790Y0056722D01*
X0264790Y0056722D02*
X0264790Y0050122D01*
X0254790Y0050122D02*
X0254790Y0056722D01*
X0244790Y0056722D02*
X0244790Y0050122D01*
X0234790Y0050122D02*
X0234790Y0056722D01*
X0224790Y0056722D02*
X0224790Y0050122D01*
X0214790Y0050122D02*
X0214790Y0056722D01*
X0298190Y0086722D02*
X0304790Y0086722D01*
X0314790Y0086722D02*
X0321390Y0086722D01*
X0321390Y0096722D02*
X0314790Y0096722D01*
X0304790Y0096722D02*
X0298190Y0096722D01*
X0298190Y0106722D02*
X0304790Y0106722D01*
X0314790Y0106722D02*
X0321390Y0106722D01*
X0321390Y0116722D02*
X0314790Y0116722D01*
X0304790Y0116722D02*
X0298190Y0116722D01*
X0298190Y0126722D02*
X0304790Y0126722D01*
X0314790Y0126722D02*
X0321390Y0126722D01*
X0321390Y0136722D02*
X0314790Y0136722D01*
X0304790Y0136722D02*
X0298190Y0136722D01*
X0298190Y0146722D02*
X0304790Y0146722D01*
X0314790Y0146722D02*
X0321390Y0146722D01*
X0321390Y0156722D02*
X0314790Y0156722D01*
X0304790Y0156722D02*
X0298190Y0156722D01*
X0284790Y0170122D02*
X0284790Y0176722D01*
X0274790Y0176722D02*
X0274790Y0170122D01*
X0264790Y0170122D02*
X0264790Y0176722D01*
X0254790Y0176722D02*
X0254790Y0170122D01*
X0244790Y0170122D02*
X0244790Y0176722D01*
X0234790Y0176722D02*
X0234790Y0170122D01*
X0224790Y0170122D02*
X0224790Y0176722D01*
X0214790Y0176722D02*
X0214790Y0170122D01*
X0214790Y0186722D02*
X0214790Y0193322D01*
X0224790Y0193322D02*
X0224790Y0186722D01*
X0234790Y0186722D02*
X0234790Y0193322D01*
X0244790Y0193322D02*
X0244790Y0186722D01*
X0254790Y0186722D02*
X0254790Y0193322D01*
X0264790Y0193322D02*
X0264790Y0186722D01*
X0274790Y0186722D02*
X0274790Y0193322D01*
X0284790Y0193322D02*
X0284790Y0186722D01*
D25*
X0345562Y0170659D02*
X0351499Y0170659D01*
X0351499Y0160659D02*
X0345562Y0160659D01*
X0345562Y0142352D02*
X0351499Y0142352D01*
X0351499Y0132352D02*
X0345562Y0132352D01*
X0345562Y0122352D02*
X0351499Y0122352D01*
X0351499Y0112352D02*
X0345562Y0112352D01*
X0345562Y0102352D02*
X0351499Y0102352D01*
X0157743Y0054455D02*
X0157743Y0048518D01*
X0147743Y0048518D02*
X0147743Y0054455D01*
X0137743Y0054455D02*
X0137743Y0048518D01*
X0118373Y0048518D02*
X0118373Y0054455D01*
X0108373Y0054455D02*
X0108373Y0048518D01*
X0098373Y0048518D02*
X0098373Y0054455D01*
X0071129Y0081825D02*
X0071129Y0087762D01*
X0051129Y0087762D02*
X0051129Y0081825D01*
X0051129Y0101825D02*
X0051129Y0107762D01*
X0071129Y0107762D02*
X0071129Y0101825D01*
D26*
X0127073Y0090758D03*
X0127073Y0088199D03*
X0127073Y0085640D03*
X0127073Y0083081D03*
X0144790Y0083081D03*
X0144790Y0085640D03*
X0144790Y0088199D03*
X0144790Y0090758D03*
D27*
X0006010Y0039675D02*
X0360341Y0039675D01*
X0006010Y0039675D01*
X0006010Y0208967D01*
X0035525Y0208967D01*
X0035525Y0208037D01*
X0029368Y0208037D01*
X0028436Y0207106D01*
X0028436Y0197127D01*
X0029368Y0196195D01*
X0035525Y0196195D01*
X0035525Y0190564D01*
X0035994Y0190096D01*
X0043399Y0190096D01*
X0043399Y0185652D01*
X0042609Y0184861D01*
X0042609Y0175670D01*
X0042794Y0175486D01*
X0042794Y0170987D01*
X0042787Y0170980D01*
X0042765Y0170926D01*
X0036751Y0164913D01*
X0024961Y0164913D01*
X0024803Y0165296D01*
X0023576Y0166523D01*
X0021973Y0167187D01*
X0014694Y0167187D01*
X0013091Y0166523D01*
X0011864Y0165296D01*
X0011200Y0163692D01*
X0011200Y0161957D01*
X0011864Y0160354D01*
X0013091Y0159127D01*
X0014694Y0158463D01*
X0021973Y0158463D01*
X0022140Y0158532D01*
X0038141Y0158532D01*
X0039314Y0159018D01*
X0040211Y0159915D01*
X0040611Y0160881D01*
X0045943Y0166213D01*
X0045943Y0150420D01*
X0046307Y0149542D01*
X0046979Y0148869D01*
X0062891Y0132958D01*
X0056021Y0132958D01*
X0055090Y0132027D01*
X0055090Y0127078D01*
X0041341Y0127078D01*
X0041341Y0127499D01*
X0040425Y0128415D01*
X0041341Y0129331D01*
X0041341Y0136554D01*
X0040409Y0137486D01*
X0035782Y0137486D01*
X0032823Y0140445D01*
X0032823Y0146609D01*
X0032337Y0147781D01*
X0025487Y0154632D01*
X0024589Y0155529D01*
X0024555Y0155544D01*
X0023576Y0156523D01*
X0021973Y0157187D01*
X0014694Y0157187D01*
X0013091Y0156523D01*
X0011864Y0155296D01*
X0011200Y0153692D01*
X0011200Y0151957D01*
X0011864Y0150354D01*
X0013091Y0149127D01*
X0014694Y0148463D01*
X0021973Y0148463D01*
X0022439Y0148656D01*
X0026442Y0144653D01*
X0026442Y0138489D01*
X0026928Y0137317D01*
X0027825Y0136420D01*
X0030286Y0133959D01*
X0030286Y0132812D01*
X0030090Y0132812D01*
X0028918Y0132326D01*
X0025962Y0129370D01*
X0023819Y0129370D01*
X0024803Y0130354D01*
X0025467Y0131957D01*
X0025467Y0133692D01*
X0024803Y0135296D01*
X0023576Y0136523D01*
X0021973Y0137187D01*
X0014694Y0137187D01*
X0013091Y0136523D01*
X0011864Y0135296D01*
X0011200Y0133692D01*
X0011200Y0131957D01*
X0011864Y0130354D01*
X0013091Y0129127D01*
X0014694Y0128463D01*
X0019421Y0128463D01*
X0012077Y0121120D01*
X0011180Y0120222D01*
X0010694Y0119050D01*
X0010694Y0101845D01*
X0011180Y0100672D01*
X0022505Y0089347D01*
X0022505Y0078411D01*
X0022991Y0077238D01*
X0023888Y0076341D01*
X0023888Y0076341D01*
X0034802Y0065427D01*
X0035699Y0064530D01*
X0036872Y0064044D01*
X0057334Y0064044D01*
X0056329Y0063039D01*
X0051829Y0058539D01*
X0051829Y0051048D01*
X0057383Y0045493D01*
X0064874Y0045493D01*
X0065929Y0046548D01*
X0070429Y0051048D01*
X0070429Y0058539D01*
X0069374Y0059593D01*
X0064923Y0064044D01*
X0072184Y0064044D01*
X0075296Y0060932D01*
X0076262Y0060532D01*
X0077036Y0059758D01*
X0077036Y0055702D01*
X0077967Y0054770D01*
X0078236Y0054770D01*
X0078236Y0047262D01*
X0078600Y0046383D01*
X0083397Y0041586D01*
X0084275Y0041222D01*
X0095741Y0041222D01*
X0095847Y0041178D01*
X0140300Y0041178D01*
X0141179Y0041542D01*
X0141851Y0042214D01*
X0144725Y0045088D01*
X0145160Y0044653D01*
X0146836Y0043959D01*
X0148650Y0043959D01*
X0150325Y0044653D01*
X0151607Y0045935D01*
X0152301Y0047611D01*
X0152301Y0055361D01*
X0151617Y0057014D01*
X0153708Y0057014D01*
X0153664Y0056954D01*
X0153324Y0056285D01*
X0153092Y0055571D01*
X0152974Y0054830D01*
X0152974Y0051670D01*
X0157558Y0051670D01*
X0157558Y0051302D01*
X0152974Y0051302D01*
X0152974Y0048142D01*
X0153092Y0047401D01*
X0153324Y0046687D01*
X0153664Y0046018D01*
X0154106Y0045411D01*
X0154636Y0044880D01*
X0155244Y0044439D01*
X0155912Y0044099D01*
X0156626Y0043867D01*
X0157367Y0043749D01*
X0157559Y0043749D01*
X0157559Y0051302D01*
X0157927Y0051302D01*
X0157927Y0051670D01*
X0162511Y0051670D01*
X0162511Y0054830D01*
X0162394Y0055571D01*
X0162162Y0056285D01*
X0161821Y0056954D01*
X0161809Y0056970D01*
X0191416Y0056970D01*
X0191416Y0056720D01*
X0192347Y0055789D01*
X0197627Y0055789D01*
X0198558Y0056720D01*
X0198558Y0062000D01*
X0197627Y0062931D01*
X0192347Y0062931D01*
X0191416Y0062000D01*
X0191416Y0061750D01*
X0160375Y0061750D01*
X0160268Y0061794D01*
X0145217Y0061794D01*
X0144339Y0061431D01*
X0143666Y0060758D01*
X0141580Y0058672D01*
X0141526Y0058649D01*
X0140854Y0057977D01*
X0140760Y0057884D01*
X0140325Y0058319D01*
X0138650Y0059013D01*
X0136836Y0059013D01*
X0135160Y0058319D01*
X0133878Y0057037D01*
X0133184Y0055361D01*
X0133184Y0047611D01*
X0133869Y0045958D01*
X0122407Y0045958D01*
X0122451Y0046018D01*
X0122792Y0046687D01*
X0123024Y0047401D01*
X0123141Y0048142D01*
X0123141Y0051302D01*
X0118557Y0051302D01*
X0118557Y0051670D01*
X0123141Y0051670D01*
X0123141Y0054830D01*
X0123024Y0055571D01*
X0122792Y0056285D01*
X0122451Y0056954D01*
X0122010Y0057561D01*
X0121479Y0058092D01*
X0120872Y0058533D01*
X0120203Y0058874D01*
X0119491Y0059105D01*
X0120024Y0059639D01*
X0120024Y0060595D01*
X0123468Y0060595D01*
X0123468Y0060326D01*
X0124377Y0059417D01*
X0124363Y0059413D01*
X0123953Y0059176D01*
X0123617Y0058841D01*
X0123380Y0058431D01*
X0123258Y0057973D01*
X0123258Y0055936D01*
X0127858Y0055936D01*
X0127858Y0055536D01*
X0128258Y0055536D01*
X0128258Y0055936D01*
X0132858Y0055936D01*
X0132858Y0057973D01*
X0132735Y0058431D01*
X0132498Y0058841D01*
X0132163Y0059176D01*
X0131753Y0059413D01*
X0131738Y0059417D01*
X0132648Y0060326D01*
X0132648Y0060595D01*
X0136095Y0060595D01*
X0136973Y0060959D01*
X0153706Y0077691D01*
X0154070Y0078570D01*
X0154070Y0081145D01*
X0154257Y0080958D01*
X0154270Y0080952D01*
X0167860Y0067363D01*
X0168532Y0066691D01*
X0169411Y0066327D01*
X0209900Y0066327D01*
X0209900Y0065750D01*
X0210644Y0063952D01*
X0212020Y0062577D01*
X0213817Y0061832D01*
X0215763Y0061832D01*
X0217560Y0062577D01*
X0218936Y0063952D01*
X0219680Y0065750D01*
X0219680Y0074295D01*
X0218936Y0076092D01*
X0218815Y0076213D01*
X0220765Y0076213D01*
X0220644Y0076092D01*
X0219900Y0074295D01*
X0219900Y0065750D01*
X0220644Y0063952D01*
X0222020Y0062577D01*
X0223817Y0061832D01*
X0225763Y0061832D01*
X0227560Y0062577D01*
X0228936Y0063952D01*
X0229680Y0065750D01*
X0229680Y0074295D01*
X0228936Y0076092D01*
X0228815Y0076213D01*
X0230765Y0076213D01*
X0230644Y0076092D01*
X0229900Y0074295D01*
X0229900Y0065750D01*
X0230644Y0063952D01*
X0232020Y0062577D01*
X0233817Y0061832D01*
X0235763Y0061832D01*
X0237560Y0062577D01*
X0237823Y0062840D01*
X0238436Y0062228D01*
X0240908Y0059756D01*
X0240644Y0059492D01*
X0239900Y0057695D01*
X0239900Y0049150D01*
X0240644Y0047352D01*
X0242020Y0045977D01*
X0243817Y0045232D01*
X0245763Y0045232D01*
X0247560Y0045977D01*
X0248936Y0047352D01*
X0249680Y0049150D01*
X0249680Y0057695D01*
X0248936Y0059492D01*
X0247560Y0060868D01*
X0245846Y0061578D01*
X0245592Y0061832D01*
X0245763Y0061832D01*
X0247560Y0062577D01*
X0248936Y0063952D01*
X0249680Y0065750D01*
X0249680Y0074295D01*
X0248936Y0076092D01*
X0247560Y0077468D01*
X0245763Y0078213D01*
X0243817Y0078213D01*
X0242020Y0077468D01*
X0241757Y0077205D01*
X0241144Y0077817D01*
X0239004Y0079957D01*
X0238331Y0080630D01*
X0237453Y0080994D01*
X0212127Y0080994D01*
X0211249Y0080630D01*
X0204507Y0073888D01*
X0203467Y0073888D01*
X0214108Y0084529D01*
X0249115Y0084529D01*
X0252400Y0081244D01*
X0252400Y0077625D01*
X0252020Y0077468D01*
X0250644Y0076092D01*
X0249900Y0074295D01*
X0249900Y0065750D01*
X0250644Y0063952D01*
X0252020Y0062577D01*
X0253817Y0061832D01*
X0255763Y0061832D01*
X0257560Y0062577D01*
X0258936Y0063952D01*
X0259680Y0065750D01*
X0259680Y0074295D01*
X0258936Y0076092D01*
X0257560Y0077468D01*
X0257180Y0077625D01*
X0257180Y0082710D01*
X0256816Y0083588D01*
X0251459Y0088946D01*
X0250580Y0089309D01*
X0249630Y0089309D01*
X0212642Y0089309D01*
X0211764Y0088946D01*
X0211091Y0088273D01*
X0199487Y0076669D01*
X0174026Y0076669D01*
X0151767Y0098928D01*
X0151094Y0099601D01*
X0150216Y0099965D01*
X0138241Y0099965D01*
X0137363Y0099601D01*
X0136690Y0098928D01*
X0133443Y0095681D01*
X0132665Y0096459D01*
X0131992Y0097132D01*
X0131114Y0097496D01*
X0128711Y0097496D01*
X0128711Y0097764D01*
X0127801Y0098674D01*
X0127816Y0098677D01*
X0128226Y0098914D01*
X0128561Y0099249D01*
X0128798Y0099660D01*
X0128921Y0100118D01*
X0128921Y0102155D01*
X0124321Y0102155D01*
X0124321Y0102555D01*
X0123921Y0102555D01*
X0123921Y0106155D01*
X0120884Y0106155D01*
X0120426Y0106032D01*
X0120016Y0105795D01*
X0119680Y0105460D01*
X0119443Y0105049D01*
X0119321Y0104592D01*
X0119321Y0102555D01*
X0123921Y0102555D01*
X0123921Y0102155D01*
X0119321Y0102155D01*
X0119321Y0100118D01*
X0119443Y0099660D01*
X0119680Y0099249D01*
X0120016Y0098914D01*
X0120426Y0098677D01*
X0120440Y0098674D01*
X0119531Y0097764D01*
X0119531Y0097496D01*
X0113175Y0097496D01*
X0112150Y0098520D01*
X0112150Y0102389D01*
X0111219Y0103320D01*
X0105901Y0103320D01*
X0104970Y0102389D01*
X0104970Y0095072D01*
X0105901Y0094140D01*
X0109770Y0094140D01*
X0110159Y0093752D01*
X0110664Y0093246D01*
X0093427Y0093246D01*
X0093278Y0093396D01*
X0093278Y0096340D01*
X0096721Y0096340D01*
X0096721Y0095072D01*
X0097652Y0094140D01*
X0102970Y0094140D01*
X0103901Y0095072D01*
X0103901Y0102389D01*
X0102970Y0103320D01*
X0097652Y0103320D01*
X0096721Y0102389D01*
X0096721Y0101120D01*
X0093802Y0101120D01*
X0093278Y0101645D01*
X0093278Y0105513D01*
X0092346Y0106445D01*
X0085029Y0106445D01*
X0084098Y0105513D01*
X0084098Y0105245D01*
X0075687Y0105245D01*
X0075687Y0108669D01*
X0074993Y0110344D01*
X0073711Y0111626D01*
X0072035Y0112320D01*
X0070222Y0112320D01*
X0068546Y0111626D01*
X0067264Y0110344D01*
X0066570Y0108669D01*
X0066570Y0100918D01*
X0067264Y0099243D01*
X0068546Y0097960D01*
X0070222Y0097266D01*
X0072035Y0097266D01*
X0073711Y0097960D01*
X0074993Y0099243D01*
X0075499Y0100465D01*
X0084098Y0100465D01*
X0084098Y0100196D01*
X0085029Y0099265D01*
X0088898Y0099265D01*
X0089967Y0098196D01*
X0085029Y0098196D01*
X0084098Y0097264D01*
X0084098Y0096996D01*
X0062306Y0096996D01*
X0055687Y0103615D01*
X0055687Y0108669D01*
X0054993Y0110344D01*
X0053711Y0111626D01*
X0052035Y0112320D01*
X0050222Y0112320D01*
X0048546Y0111626D01*
X0047264Y0110344D01*
X0046570Y0108669D01*
X0046570Y0104685D01*
X0046127Y0103617D01*
X0046127Y0096115D01*
X0044217Y0094204D01*
X0026672Y0094204D01*
X0017075Y0103801D01*
X0017075Y0117094D01*
X0020842Y0120861D01*
X0020817Y0120768D01*
X0020817Y0118731D01*
X0025417Y0118731D01*
X0025417Y0118331D01*
X0025817Y0118331D01*
X0025817Y0114731D01*
X0028854Y0114731D01*
X0029312Y0114854D01*
X0029722Y0115091D01*
X0030057Y0115426D01*
X0030105Y0115509D01*
X0035137Y0115509D01*
X0035137Y0114156D01*
X0030077Y0114156D01*
X0030077Y0111643D01*
X0030199Y0111185D01*
X0030246Y0111104D01*
X0029930Y0110788D01*
X0029693Y0110378D01*
X0029570Y0109920D01*
X0029570Y0106883D01*
X0033170Y0106883D01*
X0033170Y0106483D01*
X0029570Y0106483D01*
X0029570Y0103446D01*
X0029693Y0102988D01*
X0029930Y0102578D01*
X0030265Y0102243D01*
X0030676Y0102006D01*
X0031133Y0101883D01*
X0033170Y0101883D01*
X0033170Y0106483D01*
X0033570Y0106483D01*
X0033570Y0101883D01*
X0035607Y0101883D01*
X0036065Y0102006D01*
X0036476Y0102243D01*
X0036811Y0102578D01*
X0037048Y0102988D01*
X0037051Y0103002D01*
X0037961Y0102093D01*
X0043278Y0102093D01*
X0044210Y0103024D01*
X0044210Y0110157D01*
X0046734Y0112682D01*
X0047407Y0113354D01*
X0047771Y0114233D01*
X0047771Y0120698D01*
X0055090Y0120698D01*
X0055090Y0115749D01*
X0056021Y0114817D01*
X0065212Y0114817D01*
X0065620Y0115225D01*
X0075555Y0115225D01*
X0082046Y0108734D01*
X0082944Y0107837D01*
X0084116Y0107351D01*
X0154295Y0107351D01*
X0168919Y0092728D01*
X0168919Y0083569D01*
X0169404Y0082396D01*
X0170302Y0081499D01*
X0172967Y0078834D01*
X0173864Y0077937D01*
X0175037Y0077451D01*
X0187943Y0077451D01*
X0189116Y0077937D01*
X0193247Y0082068D01*
X0193817Y0081832D01*
X0202363Y0081832D01*
X0204160Y0082577D01*
X0205510Y0083927D01*
X0205730Y0084018D01*
X0217252Y0095540D01*
X0223180Y0095540D01*
X0224353Y0096026D01*
X0225250Y0096923D01*
X0239615Y0111288D01*
X0252721Y0111288D01*
X0281600Y0082409D01*
X0281600Y0077048D01*
X0280644Y0076092D01*
X0279900Y0074295D01*
X0279900Y0065750D01*
X0280644Y0063952D01*
X0282020Y0062577D01*
X0283817Y0061832D01*
X0285763Y0061832D01*
X0287560Y0062577D01*
X0288936Y0063952D01*
X0289093Y0064332D01*
X0289225Y0064332D01*
X0290125Y0063433D01*
X0290111Y0063429D01*
X0289701Y0063192D01*
X0289365Y0062857D01*
X0289128Y0062446D01*
X0289006Y0061989D01*
X0289006Y0059952D01*
X0293606Y0059952D01*
X0293606Y0059552D01*
X0289038Y0059552D01*
X0288680Y0060045D01*
X0288112Y0060612D01*
X0287463Y0061084D01*
X0286748Y0061449D01*
X0285984Y0061697D01*
X0285191Y0061822D01*
X0284973Y0061822D01*
X0284973Y0056905D01*
X0284608Y0056905D01*
X0284608Y0061822D01*
X0284389Y0061822D01*
X0283596Y0061697D01*
X0282832Y0061449D01*
X0282117Y0061084D01*
X0281468Y0060612D01*
X0280900Y0060045D01*
X0280428Y0059395D01*
X0280064Y0058680D01*
X0279816Y0057917D01*
X0279690Y0057124D01*
X0279690Y0056905D01*
X0284607Y0056905D01*
X0284607Y0056540D01*
X0279690Y0056540D01*
X0279690Y0049721D01*
X0279816Y0048928D01*
X0280064Y0048165D01*
X0280428Y0047449D01*
X0280900Y0046800D01*
X0281468Y0046232D01*
X0282117Y0045761D01*
X0282832Y0045396D01*
X0283596Y0045148D01*
X0284389Y0045022D01*
X0284608Y0045022D01*
X0284608Y0056540D01*
X0284973Y0056540D01*
X0284973Y0045022D01*
X0285191Y0045022D01*
X0285984Y0045148D01*
X0286748Y0045396D01*
X0287463Y0045761D01*
X0288112Y0046232D01*
X0288680Y0046800D01*
X0289152Y0047449D01*
X0289516Y0048165D01*
X0289764Y0048928D01*
X0289890Y0049721D01*
X0289890Y0056202D01*
X0290111Y0056074D01*
X0290569Y0055952D01*
X0293606Y0055952D01*
X0293606Y0059551D01*
X0294006Y0059551D01*
X0294006Y0055952D01*
X0297043Y0055952D01*
X0297501Y0056074D01*
X0297911Y0056311D01*
X0298058Y0056458D01*
X0298204Y0056311D01*
X0298615Y0056074D01*
X0299073Y0055952D01*
X0302110Y0055952D01*
X0302110Y0059551D01*
X0302510Y0059551D01*
X0302510Y0055952D01*
X0305547Y0055952D01*
X0306004Y0056074D01*
X0306415Y0056311D01*
X0306750Y0056646D01*
X0306987Y0057057D01*
X0307110Y0057515D01*
X0307110Y0059552D01*
X0302510Y0059552D01*
X0302510Y0059952D01*
X0307110Y0059952D01*
X0307110Y0060904D01*
X0320718Y0047296D01*
X0320718Y0044751D01*
X0323173Y0042296D01*
X0326644Y0042296D01*
X0329098Y0044751D01*
X0329098Y0048222D01*
X0326644Y0050676D01*
X0324098Y0050676D01*
X0306900Y0067875D01*
X0306900Y0069659D01*
X0305968Y0070591D01*
X0298651Y0070591D01*
X0298058Y0069998D01*
X0297464Y0070591D01*
X0290147Y0070591D01*
X0289680Y0070124D01*
X0289680Y0074295D01*
X0288936Y0076092D01*
X0287980Y0077048D01*
X0287980Y0084365D01*
X0287495Y0085537D01*
X0286597Y0086435D01*
X0257232Y0115800D01*
X0257232Y0117094D01*
X0276432Y0136293D01*
X0276917Y0137466D01*
X0276917Y0140716D01*
X0278400Y0142199D01*
X0278800Y0143165D01*
X0283966Y0148331D01*
X0284366Y0149297D01*
X0285495Y0150425D01*
X0285873Y0150047D01*
X0285859Y0150043D01*
X0285449Y0149806D01*
X0285113Y0149471D01*
X0284876Y0149061D01*
X0284754Y0148603D01*
X0284754Y0146566D01*
X0289354Y0146566D01*
X0289354Y0146166D01*
X0284754Y0146166D01*
X0284754Y0144129D01*
X0284876Y0143671D01*
X0285113Y0143261D01*
X0285449Y0142925D01*
X0285859Y0142688D01*
X0286317Y0142566D01*
X0289354Y0142566D01*
X0289354Y0146166D01*
X0289754Y0146166D01*
X0289754Y0142566D01*
X0292791Y0142566D01*
X0293249Y0142688D01*
X0293659Y0142925D01*
X0293994Y0143261D01*
X0294231Y0143671D01*
X0294251Y0143746D01*
X0295420Y0142577D01*
X0297217Y0141832D01*
X0305763Y0141832D01*
X0306143Y0141990D01*
X0306653Y0141480D01*
X0305984Y0141697D01*
X0305191Y0141822D01*
X0304973Y0141822D01*
X0304973Y0136905D01*
X0304608Y0136905D01*
X0304608Y0141822D01*
X0297789Y0141822D01*
X0296996Y0141697D01*
X0296232Y0141449D01*
X0295517Y0141084D01*
X0294868Y0140612D01*
X0294300Y0140045D01*
X0293828Y0139395D01*
X0293464Y0138680D01*
X0293216Y0137917D01*
X0293090Y0137124D01*
X0293090Y0136905D01*
X0304607Y0136905D01*
X0304607Y0136540D01*
X0293090Y0136540D01*
X0293090Y0136321D01*
X0293216Y0135528D01*
X0293464Y0134765D01*
X0293828Y0134049D01*
X0294300Y0133400D01*
X0294868Y0132832D01*
X0295517Y0132361D01*
X0296232Y0131996D01*
X0296996Y0131748D01*
X0297789Y0131622D01*
X0304608Y0131622D01*
X0304608Y0136540D01*
X0304973Y0136540D01*
X0304973Y0131622D01*
X0305191Y0131622D01*
X0305984Y0131748D01*
X0306748Y0131996D01*
X0307463Y0132361D01*
X0308112Y0132832D01*
X0308184Y0132904D01*
X0310719Y0130369D01*
X0311120Y0129968D01*
X0310644Y0129492D01*
X0309900Y0127695D01*
X0309900Y0125750D01*
X0310644Y0123952D01*
X0312020Y0122577D01*
X0313817Y0121832D01*
X0322363Y0121832D01*
X0324160Y0122577D01*
X0325536Y0123952D01*
X0326280Y0125750D01*
X0326280Y0125921D01*
X0326455Y0125746D01*
X0326455Y0121562D01*
X0326819Y0120683D01*
X0327491Y0120011D01*
X0333604Y0113898D01*
X0328572Y0113898D01*
X0327641Y0112967D01*
X0327641Y0112698D01*
X0326263Y0112698D01*
X0325272Y0113689D01*
X0325536Y0113952D01*
X0326280Y0115750D01*
X0326280Y0117695D01*
X0325536Y0119492D01*
X0324160Y0120868D01*
X0322363Y0121613D01*
X0313817Y0121613D01*
X0312020Y0120868D01*
X0310644Y0119492D01*
X0309900Y0117695D01*
X0309900Y0115750D01*
X0310644Y0113952D01*
X0312020Y0112577D01*
X0313817Y0111832D01*
X0316300Y0111832D01*
X0316520Y0111613D01*
X0313817Y0111613D01*
X0312020Y0110868D01*
X0310644Y0109492D01*
X0309900Y0107695D01*
X0309900Y0105750D01*
X0310644Y0103952D01*
X0312020Y0102577D01*
X0313817Y0101832D01*
X0322275Y0101832D01*
X0322589Y0101519D01*
X0322363Y0101613D01*
X0313817Y0101613D01*
X0312020Y0100868D01*
X0310644Y0099492D01*
X0309900Y0097695D01*
X0309900Y0095750D01*
X0310644Y0093952D01*
X0312020Y0092577D01*
X0313817Y0091832D01*
X0322363Y0091832D01*
X0324160Y0092577D01*
X0325536Y0093952D01*
X0326280Y0095750D01*
X0326280Y0097695D01*
X0326187Y0097921D01*
X0327056Y0097051D01*
X0327935Y0096687D01*
X0331445Y0096687D01*
X0333148Y0094984D01*
X0333148Y0092154D01*
X0334079Y0091222D01*
X0339359Y0091222D01*
X0340290Y0092154D01*
X0340290Y0097433D01*
X0339359Y0098365D01*
X0336528Y0098365D01*
X0335599Y0099294D01*
X0335926Y0099381D01*
X0336336Y0099618D01*
X0336671Y0099953D01*
X0336908Y0100364D01*
X0337031Y0100822D01*
X0337031Y0102859D01*
X0332431Y0102859D01*
X0332431Y0103259D01*
X0337031Y0103259D01*
X0337031Y0105296D01*
X0336908Y0105753D01*
X0336671Y0106164D01*
X0336336Y0106499D01*
X0335926Y0106736D01*
X0335912Y0106740D01*
X0336821Y0107649D01*
X0336821Y0110681D01*
X0342132Y0105370D01*
X0341697Y0104935D01*
X0341003Y0103259D01*
X0341003Y0101446D01*
X0341697Y0099770D01*
X0342979Y0098488D01*
X0344655Y0097794D01*
X0352405Y0097794D01*
X0354081Y0098488D01*
X0355363Y0099770D01*
X0356057Y0101446D01*
X0356057Y0103259D01*
X0355363Y0104935D01*
X0354081Y0106217D01*
X0352405Y0106911D01*
X0347352Y0106911D01*
X0346469Y0107794D01*
X0352405Y0107794D01*
X0354081Y0108488D01*
X0355363Y0109770D01*
X0356057Y0111446D01*
X0356057Y0113259D01*
X0355363Y0114935D01*
X0354081Y0116217D01*
X0352405Y0116911D01*
X0347352Y0116911D01*
X0346469Y0117794D01*
X0352405Y0117794D01*
X0354081Y0118488D01*
X0355363Y0119770D01*
X0356057Y0121446D01*
X0356057Y0123259D01*
X0355363Y0124935D01*
X0354081Y0126217D01*
X0352405Y0126911D01*
X0344655Y0126911D01*
X0342979Y0126217D01*
X0341697Y0124935D01*
X0341003Y0123260D01*
X0335172Y0129090D01*
X0335172Y0134639D01*
X0334808Y0135517D01*
X0331577Y0138749D01*
X0330699Y0139113D01*
X0325693Y0139113D01*
X0325536Y0139492D01*
X0324160Y0140868D01*
X0322363Y0141613D01*
X0313817Y0141613D01*
X0312199Y0140942D01*
X0312199Y0142179D01*
X0312037Y0142570D01*
X0313817Y0141832D01*
X0322363Y0141832D01*
X0324160Y0142577D01*
X0325536Y0143952D01*
X0325693Y0144332D01*
X0341448Y0144332D01*
X0341003Y0143259D01*
X0341003Y0141446D01*
X0341697Y0139770D01*
X0342979Y0138488D01*
X0344655Y0137794D01*
X0352405Y0137794D01*
X0354081Y0138488D01*
X0355363Y0139770D01*
X0356057Y0141446D01*
X0356057Y0143259D01*
X0355363Y0144935D01*
X0354081Y0146217D01*
X0352405Y0146911D01*
X0347352Y0146911D01*
X0345514Y0148749D01*
X0344636Y0149113D01*
X0325693Y0149113D01*
X0325536Y0149492D01*
X0324160Y0150868D01*
X0322363Y0151613D01*
X0313817Y0151613D01*
X0312020Y0150868D01*
X0311757Y0150605D01*
X0309285Y0153076D01*
X0308672Y0153689D01*
X0308936Y0153952D01*
X0309680Y0155750D01*
X0309680Y0157695D01*
X0309523Y0158075D01*
X0310435Y0158987D01*
X0309900Y0157695D01*
X0309900Y0155750D01*
X0310644Y0153952D01*
X0312020Y0152577D01*
X0313817Y0151832D01*
X0322363Y0151832D01*
X0324160Y0152577D01*
X0325536Y0153952D01*
X0326280Y0155750D01*
X0326280Y0157695D01*
X0326042Y0158269D01*
X0341617Y0158269D01*
X0341697Y0158077D01*
X0342979Y0156795D01*
X0344655Y0156101D01*
X0352405Y0156101D01*
X0354081Y0156795D01*
X0355363Y0158077D01*
X0356057Y0159753D01*
X0356057Y0161566D01*
X0355363Y0163242D01*
X0354081Y0164524D01*
X0352405Y0165218D01*
X0344655Y0165218D01*
X0342979Y0164524D01*
X0341697Y0163242D01*
X0341617Y0163050D01*
X0325912Y0163050D01*
X0325604Y0163357D01*
X0324931Y0164030D01*
X0324053Y0164394D01*
X0309596Y0164394D01*
X0308717Y0164030D01*
X0306143Y0161455D01*
X0305763Y0161613D01*
X0297217Y0161613D01*
X0295420Y0160868D01*
X0294044Y0159492D01*
X0293300Y0157695D01*
X0293300Y0157118D01*
X0293212Y0157205D01*
X0285895Y0157205D01*
X0284964Y0156274D01*
X0284964Y0156005D01*
X0284829Y0156005D01*
X0283951Y0155641D01*
X0280986Y0152677D01*
X0280021Y0152277D01*
X0274940Y0147196D01*
X0273080Y0147196D01*
X0272580Y0147696D01*
X0272580Y0154403D01*
X0272180Y0155369D01*
X0272180Y0157211D01*
X0272997Y0157211D01*
X0273907Y0158120D01*
X0273910Y0158106D01*
X0274147Y0157696D01*
X0274482Y0157361D01*
X0274893Y0157124D01*
X0275351Y0157001D01*
X0277388Y0157001D01*
X0277388Y0161601D01*
X0277788Y0161601D01*
X0277788Y0162001D01*
X0281388Y0162001D01*
X0281388Y0165038D01*
X0281265Y0165496D01*
X0281028Y0165906D01*
X0280693Y0166242D01*
X0280282Y0166479D01*
X0279825Y0166601D01*
X0278184Y0166601D01*
X0278936Y0167352D01*
X0279680Y0169150D01*
X0279680Y0177695D01*
X0278936Y0179492D01*
X0277560Y0180868D01*
X0275763Y0181613D01*
X0273817Y0181613D01*
X0272525Y0181077D01*
X0273437Y0181990D01*
X0273817Y0181832D01*
X0275763Y0181832D01*
X0277560Y0182577D01*
X0278936Y0183952D01*
X0279680Y0185750D01*
X0279680Y0194295D01*
X0278936Y0196092D01*
X0277560Y0197468D01*
X0275763Y0198213D01*
X0273817Y0198213D01*
X0272020Y0197468D01*
X0270644Y0196092D01*
X0269900Y0194295D01*
X0269900Y0185750D01*
X0270057Y0185370D01*
X0269145Y0184458D01*
X0269680Y0185750D01*
X0269680Y0194295D01*
X0268936Y0196092D01*
X0267560Y0197468D01*
X0265763Y0198213D01*
X0263817Y0198213D01*
X0262020Y0197468D01*
X0260644Y0196092D01*
X0259900Y0194295D01*
X0259900Y0185750D01*
X0260644Y0183952D01*
X0262020Y0182577D01*
X0263817Y0181832D01*
X0265763Y0181832D01*
X0267556Y0182575D01*
X0267400Y0182198D01*
X0267400Y0180934D01*
X0265763Y0181613D01*
X0263817Y0181613D01*
X0262020Y0180868D01*
X0260644Y0179492D01*
X0259900Y0177695D01*
X0259900Y0169150D01*
X0260644Y0167352D01*
X0262020Y0165977D01*
X0263817Y0165232D01*
X0265763Y0165232D01*
X0267057Y0165768D01*
X0266748Y0165460D01*
X0266748Y0158143D01*
X0267400Y0157491D01*
X0267400Y0155369D01*
X0267000Y0154403D01*
X0267000Y0145419D01*
X0267148Y0145061D01*
X0267148Y0144791D01*
X0267634Y0143619D01*
X0269054Y0142199D01*
X0270537Y0140716D01*
X0270537Y0139422D01*
X0251337Y0120222D01*
X0250266Y0119151D01*
X0248784Y0117668D01*
X0243552Y0117668D01*
X0241484Y0119737D01*
X0241484Y0126924D01*
X0240998Y0128096D01*
X0240101Y0128994D01*
X0217980Y0151115D01*
X0217980Y0166397D01*
X0218936Y0167352D01*
X0219680Y0169150D01*
X0219680Y0177695D01*
X0218936Y0179492D01*
X0217560Y0180868D01*
X0215763Y0181613D01*
X0213817Y0181613D01*
X0213437Y0181455D01*
X0212927Y0181965D01*
X0213596Y0181748D01*
X0214389Y0181622D01*
X0214608Y0181622D01*
X0214608Y0186540D01*
X0214973Y0186540D01*
X0214973Y0186905D01*
X0219890Y0186905D01*
X0219890Y0193724D01*
X0219764Y0194517D01*
X0219516Y0195280D01*
X0219152Y0195995D01*
X0218680Y0196645D01*
X0218112Y0197212D01*
X0217463Y0197684D01*
X0216748Y0198049D01*
X0215984Y0198297D01*
X0215191Y0198422D01*
X0214973Y0198422D01*
X0214973Y0186905D01*
X0214608Y0186905D01*
X0214608Y0198422D01*
X0214389Y0198422D01*
X0213596Y0198297D01*
X0212832Y0198049D01*
X0212117Y0197684D01*
X0211468Y0197212D01*
X0210900Y0196645D01*
X0210444Y0196018D01*
X0210194Y0196268D01*
X0209784Y0196504D01*
X0209326Y0196627D01*
X0206289Y0196627D01*
X0206289Y0193027D01*
X0205889Y0193027D01*
X0205889Y0192627D01*
X0203015Y0192627D01*
X0203015Y0192942D01*
X0198415Y0192942D01*
X0198415Y0193342D01*
X0198015Y0193342D01*
X0198015Y0192942D01*
X0193415Y0192942D01*
X0193415Y0190905D01*
X0193538Y0190447D01*
X0193775Y0190037D01*
X0194110Y0189702D01*
X0194520Y0189465D01*
X0194535Y0189461D01*
X0193625Y0188552D01*
X0193625Y0184053D01*
X0186135Y0176563D01*
X0176034Y0176563D01*
X0176034Y0176831D01*
X0175102Y0177763D01*
X0167785Y0177763D01*
X0166853Y0176831D01*
X0166853Y0171514D01*
X0167785Y0170582D01*
X0175102Y0170582D01*
X0176034Y0171514D01*
X0176034Y0171782D01*
X0187600Y0171782D01*
X0188479Y0172146D01*
X0198635Y0182303D01*
X0201874Y0182303D01*
X0201995Y0182424D01*
X0202431Y0181988D01*
X0206144Y0181988D01*
X0210057Y0178075D01*
X0209900Y0177695D01*
X0209900Y0169150D01*
X0210644Y0167352D01*
X0211600Y0166397D01*
X0211600Y0149159D01*
X0212086Y0147986D01*
X0235104Y0124968D01*
X0235104Y0115800D01*
X0221225Y0101920D01*
X0221019Y0101920D01*
X0221651Y0102552D01*
X0221651Y0109869D01*
X0220719Y0110801D01*
X0215402Y0110801D01*
X0214492Y0109891D01*
X0214489Y0109905D01*
X0214252Y0110316D01*
X0213916Y0110651D01*
X0213506Y0110888D01*
X0213048Y0111011D01*
X0211011Y0111011D01*
X0211011Y0106411D01*
X0210611Y0106411D01*
X0210611Y0111011D01*
X0209188Y0111011D01*
X0209188Y0130702D01*
X0208824Y0131580D01*
X0208152Y0132253D01*
X0207347Y0133057D01*
X0206675Y0133730D01*
X0205796Y0134094D01*
X0205594Y0134094D01*
X0206280Y0135750D01*
X0206280Y0137695D01*
X0205536Y0139492D01*
X0204160Y0140868D01*
X0202363Y0141613D01*
X0193817Y0141613D01*
X0192020Y0140868D01*
X0190644Y0139492D01*
X0189900Y0137695D01*
X0189900Y0135750D01*
X0190586Y0134094D01*
X0188994Y0134094D01*
X0189680Y0135750D01*
X0189680Y0137695D01*
X0188936Y0139492D01*
X0187560Y0140868D01*
X0185763Y0141613D01*
X0177217Y0141613D01*
X0175420Y0140868D01*
X0174044Y0139492D01*
X0173755Y0138794D01*
X0173755Y0144651D01*
X0174044Y0143952D01*
X0175420Y0142577D01*
X0177217Y0141832D01*
X0185763Y0141832D01*
X0187560Y0142577D01*
X0188936Y0143952D01*
X0189680Y0145750D01*
X0189680Y0147695D01*
X0188936Y0149492D01*
X0187560Y0150868D01*
X0185763Y0151613D01*
X0177217Y0151613D01*
X0175420Y0150868D01*
X0174044Y0149492D01*
X0173300Y0147695D01*
X0173300Y0147420D01*
X0172719Y0148001D01*
X0161608Y0159111D01*
X0160936Y0159783D01*
X0160058Y0160147D01*
X0153499Y0160147D01*
X0153968Y0160616D01*
X0153968Y0162424D01*
X0149482Y0162424D01*
X0149482Y0162596D01*
X0149310Y0162596D01*
X0149310Y0162424D01*
X0144825Y0162424D01*
X0144825Y0160616D01*
X0145265Y0160176D01*
X0139393Y0160176D01*
X0138515Y0159812D01*
X0137842Y0159139D01*
X0131629Y0152926D01*
X0131629Y0156488D01*
X0130698Y0157420D01*
X0128271Y0157420D01*
X0128390Y0157538D01*
X0128627Y0157949D01*
X0128750Y0158407D01*
X0128750Y0161444D01*
X0125150Y0161444D01*
X0125150Y0161844D01*
X0124750Y0161844D01*
X0124750Y0166225D01*
X0127927Y0169401D01*
X0131795Y0169401D01*
X0132727Y0170333D01*
X0132727Y0175650D01*
X0131795Y0176581D01*
X0124478Y0176581D01*
X0123546Y0175650D01*
X0123546Y0171781D01*
X0117999Y0166234D01*
X0115042Y0166234D01*
X0114110Y0165302D01*
X0114110Y0164034D01*
X0109567Y0164034D01*
X0109567Y0164616D01*
X0108635Y0165547D01*
X0105673Y0165547D01*
X0105522Y0165634D01*
X0105064Y0165757D01*
X0103934Y0165757D01*
X0107042Y0168865D01*
X0110910Y0168865D01*
X0111820Y0169774D01*
X0111824Y0169760D01*
X0112061Y0169349D01*
X0112396Y0169014D01*
X0112806Y0168777D01*
X0113264Y0168655D01*
X0115301Y0168655D01*
X0115301Y0173255D01*
X0115701Y0173255D01*
X0115701Y0173655D01*
X0115301Y0173655D01*
X0115301Y0178255D01*
X0113264Y0178255D01*
X0112806Y0178132D01*
X0112396Y0177895D01*
X0112061Y0177560D01*
X0111824Y0177149D01*
X0111820Y0177135D01*
X0110910Y0178045D01*
X0108390Y0178045D01*
X0112079Y0181734D01*
X0115558Y0181734D01*
X0116720Y0180572D01*
X0118260Y0179934D01*
X0119927Y0179934D01*
X0121467Y0180572D01*
X0122645Y0181750D01*
X0123283Y0183291D01*
X0123283Y0184957D01*
X0122645Y0186498D01*
X0121467Y0187676D01*
X0119927Y0188314D01*
X0119720Y0188314D01*
X0119720Y0188718D01*
X0120420Y0189418D01*
X0120420Y0194735D01*
X0120390Y0194765D01*
X0121040Y0194765D01*
X0120919Y0194314D01*
X0120919Y0192077D01*
X0124219Y0192077D01*
X0124219Y0192077D01*
X0124219Y0184701D01*
X0123455Y0183937D01*
X0123455Y0180857D01*
X0115501Y0172902D01*
X0115501Y0173455D01*
X0120798Y0173455D01*
X0124316Y0176972D01*
X0134934Y0176972D01*
X0135184Y0176722D01*
X0146887Y0176722D01*
X0147428Y0177263D01*
X0154300Y0177263D01*
X0155191Y0178154D01*
X0182674Y0178154D01*
X0194395Y0189874D01*
X0195656Y0189874D01*
X0198924Y0193142D01*
X0205774Y0193142D01*
X0206089Y0192827D01*
X0208685Y0192827D01*
X0214790Y0186722D01*
X0219509Y0191441D01*
X0219509Y0195510D01*
X0222602Y0198604D01*
X0327397Y0198604D01*
X0350392Y0175609D01*
X0353549Y0175609D01*
X0356448Y0172710D01*
X0356448Y0165659D01*
X0295853Y0165659D01*
X0284790Y0176722D01*
X0284790Y0169004D01*
X0277588Y0161801D01*
X0277788Y0161601D02*
X0281388Y0161601D01*
X0281388Y0158564D01*
X0281265Y0158106D01*
X0281028Y0157696D01*
X0280693Y0157361D01*
X0280282Y0157124D01*
X0279825Y0157001D01*
X0277788Y0157001D01*
X0277788Y0161601D01*
X0277788Y0161162D02*
X0277388Y0161162D01*
X0277388Y0159564D02*
X0277788Y0159564D01*
X0277788Y0157965D02*
X0277388Y0157965D01*
X0273992Y0157965D02*
X0273751Y0157965D01*
X0272180Y0156367D02*
X0285057Y0156367D01*
X0283077Y0154768D02*
X0272429Y0154768D01*
X0272580Y0153170D02*
X0281479Y0153170D01*
X0279315Y0151571D02*
X0272580Y0151571D01*
X0272580Y0149972D02*
X0277716Y0149972D01*
X0276118Y0148374D02*
X0272580Y0148374D01*
X0267000Y0148374D02*
X0220721Y0148374D01*
X0222319Y0146775D02*
X0267000Y0146775D01*
X0267100Y0145177D02*
X0223918Y0145177D01*
X0225516Y0143578D02*
X0267674Y0143578D01*
X0269273Y0141980D02*
X0227115Y0141980D01*
X0228713Y0140381D02*
X0270537Y0140381D01*
X0269898Y0138783D02*
X0230312Y0138783D01*
X0231910Y0137184D02*
X0268299Y0137184D01*
X0266701Y0135586D02*
X0233509Y0135586D01*
X0235108Y0133987D02*
X0265102Y0133987D01*
X0263504Y0132389D02*
X0236706Y0132389D01*
X0238305Y0130790D02*
X0261905Y0130790D01*
X0260307Y0129192D02*
X0239903Y0129192D01*
X0241207Y0127593D02*
X0258708Y0127593D01*
X0257110Y0125995D02*
X0241484Y0125995D01*
X0241484Y0124396D02*
X0255511Y0124396D01*
X0253913Y0122798D02*
X0241484Y0122798D01*
X0241484Y0121199D02*
X0252314Y0121199D01*
X0250716Y0119601D02*
X0241620Y0119601D01*
X0243219Y0118002D02*
X0249117Y0118002D01*
X0250266Y0119151D02*
X0250266Y0119151D01*
X0257232Y0116404D02*
X0276209Y0116404D01*
X0277808Y0118002D02*
X0258140Y0118002D01*
X0259739Y0119601D02*
X0294153Y0119601D01*
X0294044Y0119492D02*
X0293887Y0119113D01*
X0279433Y0119113D01*
X0278554Y0118749D01*
X0273918Y0114113D01*
X0271087Y0114113D01*
X0270156Y0113181D01*
X0270156Y0107902D01*
X0271087Y0106970D01*
X0276367Y0106970D01*
X0277298Y0107902D01*
X0277298Y0110732D01*
X0280898Y0114332D01*
X0293887Y0114332D01*
X0294044Y0113952D01*
X0295420Y0112577D01*
X0297217Y0111832D01*
X0305763Y0111832D01*
X0307560Y0112577D01*
X0308936Y0113952D01*
X0309680Y0115750D01*
X0309680Y0117695D01*
X0308936Y0119492D01*
X0307560Y0120868D01*
X0305763Y0121613D01*
X0297217Y0121613D01*
X0295420Y0120868D01*
X0294044Y0119492D01*
X0296219Y0121199D02*
X0261337Y0121199D01*
X0262936Y0122798D02*
X0295199Y0122798D01*
X0295420Y0122577D02*
X0297217Y0121832D01*
X0305763Y0121832D01*
X0307560Y0122577D01*
X0308936Y0123952D01*
X0309680Y0125750D01*
X0309680Y0127695D01*
X0308936Y0129492D01*
X0307560Y0130868D01*
X0305763Y0131613D01*
X0297217Y0131613D01*
X0295420Y0130868D01*
X0294044Y0129492D01*
X0293300Y0127695D01*
X0293300Y0125750D01*
X0294044Y0123952D01*
X0295420Y0122577D01*
X0293860Y0124396D02*
X0264534Y0124396D01*
X0266133Y0125995D02*
X0293300Y0125995D01*
X0293300Y0127593D02*
X0267732Y0127593D01*
X0269330Y0129192D02*
X0293920Y0129192D01*
X0295342Y0130790D02*
X0270929Y0130790D01*
X0272527Y0132389D02*
X0295478Y0132389D01*
X0293873Y0133987D02*
X0274126Y0133987D01*
X0275724Y0135586D02*
X0293206Y0135586D01*
X0293100Y0137184D02*
X0276801Y0137184D01*
X0276917Y0138783D02*
X0293516Y0138783D01*
X0294637Y0140381D02*
X0276917Y0140381D01*
X0278181Y0141980D02*
X0296861Y0141980D01*
X0294418Y0143578D02*
X0294178Y0143578D01*
X0289754Y0143578D02*
X0289354Y0143578D01*
X0289354Y0145177D02*
X0289754Y0145177D01*
X0289554Y0146366D02*
X0299197Y0136722D01*
X0304790Y0136722D01*
X0300071Y0132004D01*
X0288622Y0132004D01*
X0269863Y0113245D01*
X0269863Y0107581D01*
X0309257Y0068187D01*
X0325861Y0068187D01*
X0332861Y0061187D01*
X0337842Y0056206D01*
X0337842Y0050564D01*
X0329183Y0041905D01*
X0323011Y0041905D01*
X0305164Y0059752D01*
X0302310Y0059752D01*
X0293806Y0059752D01*
X0290777Y0056722D01*
X0284790Y0056722D01*
X0284790Y0046801D01*
X0281601Y0043612D01*
X0218609Y0043612D01*
X0218609Y0046473D01*
X0219147Y0047011D01*
X0219147Y0047435D01*
X0219771Y0048059D01*
X0219771Y0058786D01*
X0216853Y0061704D01*
X0204455Y0061704D01*
X0202861Y0063297D01*
X0145652Y0063297D01*
X0141759Y0059404D01*
X0135693Y0059404D01*
X0132024Y0055736D01*
X0128058Y0055736D01*
X0123808Y0051486D01*
X0118373Y0051486D01*
X0112318Y0057541D01*
X0112318Y0079045D01*
X0100811Y0079045D01*
X0100499Y0079358D01*
X0100499Y0078930D01*
X0091696Y0070127D01*
X0086054Y0070127D01*
X0084894Y0071288D01*
X0084894Y0078642D01*
X0083446Y0080089D01*
X0075833Y0080089D01*
X0071129Y0084793D01*
X0071313Y0084609D02*
X0071313Y0084978D01*
X0075897Y0084978D01*
X0075897Y0088137D01*
X0075780Y0088878D01*
X0075548Y0089592D01*
X0075207Y0090261D01*
X0074766Y0090868D01*
X0074235Y0091399D01*
X0073628Y0091840D01*
X0072959Y0092181D01*
X0072853Y0092215D01*
X0084098Y0092215D01*
X0084098Y0091947D01*
X0085029Y0091015D01*
X0088898Y0091015D01*
X0090411Y0089502D01*
X0091083Y0088830D01*
X0091446Y0088680D01*
X0091333Y0088633D01*
X0090661Y0087961D01*
X0087521Y0084821D01*
X0086849Y0084149D01*
X0086485Y0083270D01*
X0086485Y0079698D01*
X0086216Y0079698D01*
X0085285Y0078767D01*
X0085285Y0071450D01*
X0086216Y0070518D01*
X0091534Y0070518D01*
X0092465Y0071450D01*
X0092465Y0078767D01*
X0091534Y0079698D01*
X0091265Y0079698D01*
X0091265Y0081805D01*
X0093677Y0084217D01*
X0095909Y0084217D01*
X0095909Y0083948D01*
X0096818Y0083039D01*
X0096804Y0083035D01*
X0096393Y0082798D01*
X0096058Y0082463D01*
X0095821Y0082053D01*
X0095699Y0081595D01*
X0095699Y0079558D01*
X0100299Y0079558D01*
X0100299Y0079158D01*
X0100699Y0079158D01*
X0100699Y0079558D01*
X0105299Y0079558D01*
X0105299Y0081595D01*
X0105176Y0082053D01*
X0104939Y0082463D01*
X0104604Y0082798D01*
X0104193Y0083035D01*
X0104179Y0083039D01*
X0105089Y0083948D01*
X0105089Y0084529D01*
X0107387Y0084529D01*
X0120942Y0070973D01*
X0121615Y0070301D01*
X0122493Y0069937D01*
X0133622Y0069937D01*
X0134501Y0070301D01*
X0135173Y0070973D01*
X0135173Y0070973D01*
X0141170Y0076970D01*
X0141842Y0077643D01*
X0142206Y0078521D01*
X0142206Y0080542D01*
X0142388Y0080493D01*
X0144790Y0080493D01*
X0147192Y0080493D01*
X0147650Y0080616D01*
X0148061Y0080853D01*
X0148396Y0081188D01*
X0148633Y0081599D01*
X0148755Y0082056D01*
X0148755Y0082527D01*
X0149290Y0081992D01*
X0149290Y0080035D01*
X0134630Y0065375D01*
X0132648Y0065375D01*
X0132648Y0065644D01*
X0131716Y0066575D01*
X0124399Y0066575D01*
X0123468Y0065644D01*
X0123468Y0065375D01*
X0120024Y0065375D01*
X0120024Y0066956D01*
X0119093Y0067887D01*
X0113775Y0067887D01*
X0112844Y0066956D01*
X0112844Y0059639D01*
X0113775Y0058707D01*
X0116215Y0058707D01*
X0115873Y0058533D01*
X0115266Y0058092D01*
X0114735Y0057561D01*
X0114294Y0056954D01*
X0113954Y0056285D01*
X0113722Y0055571D01*
X0113604Y0054830D01*
X0113604Y0051670D01*
X0118188Y0051670D01*
X0118188Y0051302D01*
X0113604Y0051302D01*
X0113604Y0048142D01*
X0113722Y0047401D01*
X0113954Y0046687D01*
X0114294Y0046018D01*
X0114338Y0045958D01*
X0112247Y0045958D01*
X0112931Y0047611D01*
X0112931Y0055361D01*
X0112237Y0057037D01*
X0110955Y0058319D01*
X0110019Y0058707D01*
X0110844Y0058707D01*
X0111775Y0059639D01*
X0111775Y0066956D01*
X0110844Y0067887D01*
X0105526Y0067887D01*
X0104595Y0066956D01*
X0104595Y0063087D01*
X0100157Y0058650D01*
X0099279Y0059013D01*
X0097466Y0059013D01*
X0095790Y0058319D01*
X0094543Y0057072D01*
X0092465Y0059150D01*
X0092465Y0063019D01*
X0091534Y0063950D01*
X0086216Y0063950D01*
X0085285Y0063019D01*
X0085285Y0055702D01*
X0086216Y0054770D01*
X0090085Y0054770D01*
X0093814Y0051041D01*
X0093814Y0047611D01*
X0094480Y0046002D01*
X0085741Y0046002D01*
X0083016Y0048727D01*
X0083016Y0054770D01*
X0083285Y0054770D01*
X0084216Y0055702D01*
X0084216Y0063019D01*
X0083285Y0063950D01*
X0079626Y0063950D01*
X0079242Y0064878D01*
X0076044Y0068076D01*
X0075644Y0069041D01*
X0074747Y0069939D01*
X0073574Y0070424D01*
X0038828Y0070424D01*
X0030860Y0078392D01*
X0036040Y0078392D01*
X0036972Y0079324D01*
X0036972Y0086641D01*
X0036040Y0087572D01*
X0030723Y0087572D01*
X0029792Y0086641D01*
X0029792Y0085372D01*
X0028886Y0085372D01*
X0028886Y0087824D01*
X0046173Y0087824D01*
X0046570Y0087988D01*
X0046570Y0085372D01*
X0045221Y0085372D01*
X0045221Y0086641D01*
X0044290Y0087572D01*
X0038972Y0087572D01*
X0038041Y0086641D01*
X0038041Y0079324D01*
X0038972Y0078392D01*
X0044290Y0078392D01*
X0045221Y0079324D01*
X0045221Y0080592D01*
X0046705Y0080592D01*
X0047264Y0079243D01*
X0048546Y0077960D01*
X0050222Y0077266D01*
X0052035Y0077266D01*
X0053711Y0077960D01*
X0054146Y0078395D01*
X0059460Y0073082D01*
X0060338Y0072718D01*
X0077036Y0072718D01*
X0077036Y0071450D01*
X0077967Y0070518D01*
X0083285Y0070518D01*
X0084216Y0071450D01*
X0084216Y0078767D01*
X0083285Y0079698D01*
X0077967Y0079698D01*
X0077036Y0078767D01*
X0077036Y0077498D01*
X0073141Y0077498D01*
X0073628Y0077746D01*
X0074235Y0078188D01*
X0074766Y0078718D01*
X0075207Y0079326D01*
X0075548Y0079994D01*
X0075780Y0080708D01*
X0075897Y0081450D01*
X0075897Y0084609D01*
X0071313Y0084609D01*
X0070944Y0084609D02*
X0066360Y0084609D01*
X0066360Y0081450D01*
X0066478Y0080708D01*
X0066709Y0079994D01*
X0067050Y0079326D01*
X0067491Y0078718D01*
X0068022Y0078188D01*
X0068629Y0077746D01*
X0069116Y0077498D01*
X0061804Y0077498D01*
X0055687Y0083615D01*
X0055687Y0088669D01*
X0054993Y0090344D01*
X0053711Y0091626D01*
X0052035Y0092320D01*
X0051356Y0092320D01*
X0052022Y0092986D01*
X0052508Y0094159D01*
X0052508Y0097462D01*
X0053711Y0097960D01*
X0054146Y0098395D01*
X0059290Y0093252D01*
X0059962Y0092579D01*
X0060841Y0092215D01*
X0069404Y0092215D01*
X0069298Y0092181D01*
X0068629Y0091840D01*
X0068022Y0091399D01*
X0067491Y0090868D01*
X0067050Y0090261D01*
X0066709Y0089592D01*
X0066478Y0088878D01*
X0066360Y0088137D01*
X0066360Y0084978D01*
X0070944Y0084978D01*
X0070944Y0084609D01*
X0066360Y0084434D02*
X0055687Y0084434D01*
X0055687Y0086032D02*
X0066360Y0086032D01*
X0066360Y0087631D02*
X0055687Y0087631D01*
X0055455Y0089229D02*
X0066591Y0089229D01*
X0067462Y0090828D02*
X0054510Y0090828D01*
X0051462Y0092426D02*
X0060332Y0092426D01*
X0061316Y0094606D02*
X0088688Y0094606D01*
X0092437Y0090856D01*
X0126975Y0090856D01*
X0127073Y0090758D01*
X0127073Y0088199D02*
X0121463Y0088199D01*
X0120184Y0086919D01*
X0120184Y0079045D01*
X0124121Y0075108D01*
X0131995Y0075108D01*
X0135932Y0079045D01*
X0135932Y0079049D01*
X0137035Y0080152D01*
X0137035Y0091959D01*
X0139869Y0094793D01*
X0147743Y0094793D01*
X0171038Y0071498D01*
X0205497Y0071498D01*
X0212602Y0078604D01*
X0236978Y0078604D01*
X0239790Y0075791D01*
X0239790Y0064254D01*
X0244790Y0059254D01*
X0244790Y0056722D01*
X0240381Y0058857D02*
X0239199Y0058857D01*
X0238936Y0059492D02*
X0237560Y0060868D01*
X0235763Y0061613D01*
X0233817Y0061613D01*
X0232020Y0060868D01*
X0230644Y0059492D01*
X0229900Y0057695D01*
X0229900Y0049150D01*
X0230644Y0047352D01*
X0232020Y0045977D01*
X0233817Y0045232D01*
X0235763Y0045232D01*
X0237560Y0045977D01*
X0238936Y0047352D01*
X0239680Y0049150D01*
X0239680Y0057695D01*
X0238936Y0059492D01*
X0237972Y0060456D02*
X0240208Y0060456D01*
X0238609Y0062054D02*
X0236299Y0062054D01*
X0233281Y0062054D02*
X0226299Y0062054D01*
X0225763Y0061613D02*
X0223817Y0061613D01*
X0222020Y0060868D01*
X0220644Y0059492D01*
X0219900Y0057695D01*
X0219900Y0049150D01*
X0220644Y0047352D01*
X0222020Y0045977D01*
X0223817Y0045232D01*
X0225763Y0045232D01*
X0227560Y0045977D01*
X0228936Y0047352D01*
X0229680Y0049150D01*
X0229680Y0057695D01*
X0228936Y0059492D01*
X0227560Y0060868D01*
X0225763Y0061613D01*
X0227972Y0060456D02*
X0231608Y0060456D01*
X0230381Y0058857D02*
X0229199Y0058857D01*
X0229680Y0057259D02*
X0229900Y0057259D01*
X0229900Y0055660D02*
X0229680Y0055660D01*
X0229680Y0054062D02*
X0229900Y0054062D01*
X0229900Y0052463D02*
X0229680Y0052463D01*
X0229680Y0050865D02*
X0229900Y0050865D01*
X0229900Y0049266D02*
X0229680Y0049266D01*
X0229066Y0047668D02*
X0230514Y0047668D01*
X0231927Y0046069D02*
X0227653Y0046069D01*
X0221927Y0046069D02*
X0217653Y0046069D01*
X0217560Y0045977D02*
X0218936Y0047352D01*
X0219680Y0049150D01*
X0219680Y0057695D01*
X0218936Y0059492D01*
X0217560Y0060868D01*
X0215763Y0061613D01*
X0213817Y0061613D01*
X0212020Y0060868D01*
X0210644Y0059492D01*
X0209900Y0057695D01*
X0209900Y0055212D01*
X0208564Y0053876D01*
X0198558Y0053876D01*
X0198558Y0054126D01*
X0197627Y0055057D01*
X0192347Y0055057D01*
X0191416Y0054126D01*
X0191416Y0048846D01*
X0192347Y0047915D01*
X0197627Y0047915D01*
X0198558Y0048846D01*
X0198558Y0049096D01*
X0209922Y0049096D01*
X0210644Y0047352D01*
X0212020Y0045977D01*
X0213817Y0045232D01*
X0215763Y0045232D01*
X0217560Y0045977D01*
X0219147Y0047011D02*
X0219790Y0047654D01*
X0219066Y0047668D02*
X0220514Y0047668D01*
X0219900Y0049266D02*
X0219680Y0049266D01*
X0219680Y0050865D02*
X0219900Y0050865D01*
X0219900Y0052463D02*
X0219680Y0052463D01*
X0219680Y0054062D02*
X0219900Y0054062D01*
X0219900Y0055660D02*
X0219680Y0055660D01*
X0219680Y0057259D02*
X0219900Y0057259D01*
X0220381Y0058857D02*
X0219199Y0058857D01*
X0217972Y0060456D02*
X0221608Y0060456D01*
X0223281Y0062054D02*
X0216299Y0062054D01*
X0218636Y0063653D02*
X0220944Y0063653D01*
X0220106Y0065251D02*
X0219474Y0065251D01*
X0219680Y0066850D02*
X0219900Y0066850D01*
X0219900Y0068448D02*
X0219680Y0068448D01*
X0219680Y0070047D02*
X0219900Y0070047D01*
X0219900Y0071645D02*
X0219680Y0071645D01*
X0219680Y0073244D02*
X0219900Y0073244D01*
X0220127Y0074842D02*
X0219453Y0074842D01*
X0212796Y0068717D02*
X0169886Y0068717D01*
X0155619Y0082984D01*
X0155611Y0082984D01*
X0150174Y0088421D01*
X0147965Y0088421D01*
X0147743Y0088199D01*
X0144790Y0088199D01*
X0144790Y0090758D02*
X0139862Y0090758D01*
X0139816Y0090804D01*
X0139816Y0078996D01*
X0133147Y0072327D01*
X0122969Y0072327D01*
X0108377Y0086919D01*
X0100811Y0086919D01*
X0100499Y0086607D01*
X0092687Y0086607D01*
X0088875Y0082795D01*
X0088875Y0075108D01*
X0085285Y0074842D02*
X0084216Y0074842D01*
X0084216Y0073244D02*
X0085285Y0073244D01*
X0085285Y0071645D02*
X0084216Y0071645D01*
X0080626Y0075108D02*
X0060814Y0075108D01*
X0051129Y0084793D01*
X0049318Y0082982D01*
X0041631Y0082982D01*
X0038041Y0082835D02*
X0036972Y0082835D01*
X0036972Y0081236D02*
X0038041Y0081236D01*
X0038041Y0079638D02*
X0036972Y0079638D01*
X0033382Y0082982D02*
X0025696Y0082982D01*
X0022505Y0082835D02*
X0006010Y0082835D01*
X0006010Y0081236D02*
X0022505Y0081236D01*
X0022505Y0079638D02*
X0006010Y0079638D01*
X0006010Y0078039D02*
X0022659Y0078039D01*
X0023788Y0076441D02*
X0006010Y0076441D01*
X0006010Y0074842D02*
X0025387Y0074842D01*
X0026985Y0073244D02*
X0006010Y0073244D01*
X0006010Y0071645D02*
X0028584Y0071645D01*
X0030182Y0070047D02*
X0006010Y0070047D01*
X0006010Y0068448D02*
X0031781Y0068448D01*
X0033379Y0066850D02*
X0006010Y0066850D01*
X0006010Y0065251D02*
X0034978Y0065251D01*
X0034802Y0065427D02*
X0034802Y0065427D01*
X0037607Y0071645D02*
X0077036Y0071645D01*
X0074486Y0070047D02*
X0122228Y0070047D01*
X0121817Y0069546D02*
X0112318Y0079045D01*
X0112278Y0079638D02*
X0105299Y0079638D01*
X0105299Y0079158D02*
X0100699Y0079158D01*
X0100699Y0075558D01*
X0103736Y0075558D01*
X0104193Y0075681D01*
X0104604Y0075918D01*
X0104939Y0076253D01*
X0105176Y0076663D01*
X0105299Y0077121D01*
X0105299Y0079158D01*
X0105299Y0078039D02*
X0113876Y0078039D01*
X0115475Y0076441D02*
X0105048Y0076441D01*
X0100699Y0076441D02*
X0100299Y0076441D01*
X0100299Y0075558D02*
X0100299Y0079158D01*
X0095699Y0079158D01*
X0095699Y0077121D01*
X0095821Y0076663D01*
X0096058Y0076253D01*
X0096393Y0075918D01*
X0096804Y0075681D01*
X0097262Y0075558D01*
X0100299Y0075558D01*
X0100299Y0078039D02*
X0100699Y0078039D01*
X0095699Y0078039D02*
X0092465Y0078039D01*
X0092465Y0076441D02*
X0095950Y0076441D01*
X0095699Y0079638D02*
X0091594Y0079638D01*
X0091265Y0081236D02*
X0095699Y0081236D01*
X0096457Y0082835D02*
X0092295Y0082835D01*
X0088732Y0086032D02*
X0075897Y0086032D01*
X0075897Y0084434D02*
X0087134Y0084434D01*
X0087521Y0084821D02*
X0087521Y0084821D01*
X0086485Y0082835D02*
X0075897Y0082835D01*
X0075863Y0081236D02*
X0086485Y0081236D01*
X0086156Y0079638D02*
X0083345Y0079638D01*
X0084216Y0078039D02*
X0085285Y0078039D01*
X0085285Y0076441D02*
X0084216Y0076441D01*
X0077907Y0079638D02*
X0075366Y0079638D01*
X0074031Y0078039D02*
X0077036Y0078039D01*
X0068226Y0078039D02*
X0061263Y0078039D01*
X0059664Y0079638D02*
X0066891Y0079638D01*
X0066394Y0081236D02*
X0058066Y0081236D01*
X0056467Y0082835D02*
X0066360Y0082835D01*
X0075897Y0087631D02*
X0090331Y0087631D01*
X0090684Y0089229D02*
X0075666Y0089229D01*
X0074795Y0090828D02*
X0089085Y0090828D01*
X0088688Y0094606D02*
X0088875Y0094793D01*
X0089342Y0098820D02*
X0074571Y0098820D01*
X0075480Y0100419D02*
X0084098Y0100419D01*
X0084098Y0097222D02*
X0062080Y0097222D01*
X0060482Y0098820D02*
X0067686Y0098820D01*
X0066777Y0100419D02*
X0058883Y0100419D01*
X0057285Y0102017D02*
X0066570Y0102017D01*
X0066570Y0103616D02*
X0055687Y0103616D01*
X0055687Y0105214D02*
X0066570Y0105214D01*
X0066570Y0106813D02*
X0055687Y0106813D01*
X0055687Y0108411D02*
X0066570Y0108411D01*
X0067125Y0110010D02*
X0055132Y0110010D01*
X0053729Y0111608D02*
X0068528Y0111608D01*
X0073179Y0112711D02*
X0049078Y0112711D01*
X0044601Y0108234D01*
X0044601Y0102862D01*
X0040468Y0098730D01*
X0037507Y0098730D01*
X0033370Y0102867D01*
X0033370Y0106683D01*
X0033370Y0112389D01*
X0035814Y0114833D01*
X0029315Y0114833D01*
X0025617Y0118531D01*
X0025417Y0118331D02*
X0025417Y0114731D01*
X0022380Y0114731D01*
X0021922Y0114854D01*
X0021512Y0115091D01*
X0021176Y0115426D01*
X0020939Y0115836D01*
X0020817Y0116294D01*
X0020817Y0118331D01*
X0025417Y0118331D01*
X0025417Y0118002D02*
X0025817Y0118002D01*
X0025817Y0116404D02*
X0025417Y0116404D01*
X0025417Y0114805D02*
X0025817Y0114805D01*
X0029130Y0114805D02*
X0035137Y0114805D01*
X0036490Y0114805D02*
X0042097Y0114805D01*
X0041551Y0115509D02*
X0041551Y0118022D01*
X0041428Y0118480D01*
X0041191Y0118891D01*
X0040856Y0119226D01*
X0040497Y0119433D01*
X0041341Y0120276D01*
X0041341Y0120698D01*
X0042990Y0120698D01*
X0042990Y0115698D01*
X0041449Y0114156D01*
X0036490Y0114156D01*
X0036490Y0115509D01*
X0041551Y0115509D01*
X0041551Y0116404D02*
X0042990Y0116404D01*
X0042990Y0118002D02*
X0041551Y0118002D01*
X0040665Y0119601D02*
X0042990Y0119601D01*
X0047771Y0119601D02*
X0055090Y0119601D01*
X0055090Y0118002D02*
X0047771Y0118002D01*
X0047771Y0116404D02*
X0055090Y0116404D01*
X0047771Y0114805D02*
X0075975Y0114805D01*
X0077574Y0113207D02*
X0047259Y0113207D01*
X0048528Y0111608D02*
X0045661Y0111608D01*
X0044210Y0110010D02*
X0047125Y0110010D01*
X0046570Y0108411D02*
X0044210Y0108411D01*
X0044210Y0106813D02*
X0046570Y0106813D01*
X0046570Y0105214D02*
X0044210Y0105214D01*
X0044210Y0103616D02*
X0046127Y0103616D01*
X0046127Y0102017D02*
X0036085Y0102017D01*
X0033570Y0102017D02*
X0033170Y0102017D01*
X0033170Y0103616D02*
X0033570Y0103616D01*
X0033570Y0105214D02*
X0033170Y0105214D01*
X0033170Y0106813D02*
X0017075Y0106813D01*
X0017075Y0108411D02*
X0029570Y0108411D01*
X0029594Y0110010D02*
X0017075Y0110010D01*
X0017075Y0111608D02*
X0030086Y0111608D01*
X0030077Y0113207D02*
X0017075Y0113207D01*
X0017075Y0114805D02*
X0022103Y0114805D01*
X0020817Y0116404D02*
X0017075Y0116404D01*
X0017983Y0118002D02*
X0020817Y0118002D01*
X0020817Y0119601D02*
X0019581Y0119601D01*
X0015354Y0124396D02*
X0006010Y0124396D01*
X0006010Y0122798D02*
X0013755Y0122798D01*
X0012157Y0121199D02*
X0006010Y0121199D01*
X0006010Y0119601D02*
X0010923Y0119601D01*
X0010694Y0118002D02*
X0006010Y0118002D01*
X0006010Y0116404D02*
X0010694Y0116404D01*
X0010694Y0114805D02*
X0006010Y0114805D01*
X0006010Y0113207D02*
X0010694Y0113207D01*
X0010694Y0111608D02*
X0006010Y0111608D01*
X0006010Y0110010D02*
X0010694Y0110010D01*
X0010694Y0108411D02*
X0006010Y0108411D01*
X0006010Y0106813D02*
X0010694Y0106813D01*
X0010694Y0105214D02*
X0006010Y0105214D01*
X0006010Y0103616D02*
X0010694Y0103616D01*
X0010694Y0102017D02*
X0006010Y0102017D01*
X0006010Y0100419D02*
X0011434Y0100419D01*
X0013032Y0098820D02*
X0006010Y0098820D01*
X0006010Y0097222D02*
X0014631Y0097222D01*
X0016229Y0095623D02*
X0006010Y0095623D01*
X0006010Y0094025D02*
X0017828Y0094025D01*
X0019426Y0092426D02*
X0006010Y0092426D01*
X0006010Y0090828D02*
X0021025Y0090828D01*
X0022505Y0089229D02*
X0006010Y0089229D01*
X0006010Y0087631D02*
X0022505Y0087631D01*
X0022505Y0086032D02*
X0006010Y0086032D01*
X0006010Y0084434D02*
X0022505Y0084434D01*
X0028886Y0086032D02*
X0029792Y0086032D01*
X0028886Y0087631D02*
X0046570Y0087631D01*
X0046570Y0086032D02*
X0045221Y0086032D01*
X0045221Y0079638D02*
X0047100Y0079638D01*
X0048467Y0078039D02*
X0031213Y0078039D01*
X0029792Y0079461D02*
X0028886Y0080367D01*
X0028886Y0080592D01*
X0029792Y0080592D01*
X0029792Y0079461D01*
X0029792Y0079638D02*
X0029614Y0079638D01*
X0032811Y0076441D02*
X0056101Y0076441D01*
X0057699Y0074842D02*
X0034410Y0074842D01*
X0036008Y0073244D02*
X0059298Y0073244D01*
X0054502Y0078039D02*
X0053790Y0078039D01*
X0038041Y0084434D02*
X0036972Y0084434D01*
X0036972Y0086032D02*
X0038041Y0086032D01*
X0045636Y0095623D02*
X0025252Y0095623D01*
X0023654Y0097222D02*
X0046127Y0097222D01*
X0046127Y0098820D02*
X0022055Y0098820D01*
X0020457Y0100419D02*
X0046127Y0100419D01*
X0052508Y0097222D02*
X0055320Y0097222D01*
X0056919Y0095623D02*
X0052508Y0095623D01*
X0052452Y0094025D02*
X0058517Y0094025D01*
X0061316Y0094606D02*
X0051129Y0104793D01*
X0040620Y0106683D02*
X0040620Y0109947D01*
X0045381Y0114708D01*
X0045381Y0123888D01*
X0041247Y0127593D02*
X0055090Y0127593D01*
X0055090Y0129192D02*
X0041201Y0129192D01*
X0041341Y0130790D02*
X0055090Y0130790D01*
X0055452Y0132389D02*
X0041341Y0132389D01*
X0041341Y0133987D02*
X0061861Y0133987D01*
X0060263Y0135586D02*
X0041341Y0135586D01*
X0040711Y0137184D02*
X0058664Y0137184D01*
X0057066Y0138783D02*
X0034485Y0138783D01*
X0032887Y0140381D02*
X0055467Y0140381D01*
X0053869Y0141980D02*
X0032823Y0141980D01*
X0032823Y0143578D02*
X0052270Y0143578D01*
X0050672Y0145177D02*
X0032823Y0145177D01*
X0032754Y0146775D02*
X0049073Y0146775D01*
X0047475Y0148374D02*
X0031745Y0148374D01*
X0030146Y0149972D02*
X0046129Y0149972D01*
X0045943Y0151571D02*
X0028548Y0151571D01*
X0026949Y0153170D02*
X0045943Y0153170D01*
X0045943Y0154768D02*
X0025350Y0154768D01*
X0023732Y0156367D02*
X0045943Y0156367D01*
X0045943Y0157965D02*
X0006010Y0157965D01*
X0006010Y0156367D02*
X0012935Y0156367D01*
X0011645Y0154768D02*
X0006010Y0154768D01*
X0006010Y0153170D02*
X0011200Y0153170D01*
X0011360Y0151571D02*
X0006010Y0151571D01*
X0006010Y0149972D02*
X0012245Y0149972D01*
X0006010Y0148374D02*
X0022721Y0148374D01*
X0021973Y0147187D02*
X0014694Y0147187D01*
X0013091Y0146523D01*
X0011864Y0145296D01*
X0011200Y0143692D01*
X0011200Y0141957D01*
X0011864Y0140354D01*
X0013091Y0139127D01*
X0014694Y0138463D01*
X0021973Y0138463D01*
X0023576Y0139127D01*
X0024803Y0140354D01*
X0025467Y0141957D01*
X0025467Y0143692D01*
X0024803Y0145296D01*
X0023576Y0146523D01*
X0021973Y0147187D01*
X0022965Y0146775D02*
X0024320Y0146775D01*
X0024852Y0145177D02*
X0025918Y0145177D01*
X0025467Y0143578D02*
X0026442Y0143578D01*
X0026442Y0141980D02*
X0025467Y0141980D01*
X0024814Y0140381D02*
X0026442Y0140381D01*
X0026442Y0138783D02*
X0022745Y0138783D01*
X0021978Y0137184D02*
X0027061Y0137184D01*
X0028659Y0135586D02*
X0024512Y0135586D01*
X0025345Y0133987D02*
X0030258Y0133987D01*
X0029069Y0132389D02*
X0025467Y0132389D01*
X0024983Y0130790D02*
X0027382Y0130790D01*
X0030286Y0124672D02*
X0030286Y0121239D01*
X0030057Y0121636D01*
X0029722Y0121971D01*
X0029312Y0122208D01*
X0029297Y0122212D01*
X0030207Y0123122D01*
X0030207Y0124592D01*
X0030286Y0124672D01*
X0030286Y0124396D02*
X0030207Y0124396D01*
X0030286Y0122798D02*
X0029883Y0122798D01*
X0030417Y0120146D02*
X0031130Y0119433D01*
X0030771Y0119226D01*
X0030436Y0118891D01*
X0030417Y0118857D01*
X0030417Y0120146D01*
X0030417Y0119601D02*
X0030962Y0119601D01*
X0018551Y0127593D02*
X0006010Y0127593D01*
X0006010Y0125995D02*
X0016952Y0125995D01*
X0013026Y0129192D02*
X0006010Y0129192D01*
X0006010Y0130790D02*
X0011683Y0130790D01*
X0011200Y0132389D02*
X0006010Y0132389D01*
X0006010Y0133987D02*
X0011322Y0133987D01*
X0012154Y0135586D02*
X0006010Y0135586D01*
X0006010Y0137184D02*
X0014689Y0137184D01*
X0013922Y0138783D02*
X0006010Y0138783D01*
X0006010Y0140381D02*
X0011853Y0140381D01*
X0011200Y0141980D02*
X0006010Y0141980D01*
X0006010Y0143578D02*
X0011200Y0143578D01*
X0011815Y0145177D02*
X0006010Y0145177D01*
X0006010Y0146775D02*
X0013701Y0146775D01*
X0012654Y0159564D02*
X0006010Y0159564D01*
X0006010Y0161162D02*
X0011529Y0161162D01*
X0011200Y0162761D02*
X0006010Y0162761D01*
X0006010Y0164359D02*
X0011476Y0164359D01*
X0012526Y0165958D02*
X0006010Y0165958D01*
X0006010Y0167556D02*
X0039394Y0167556D01*
X0037796Y0165958D02*
X0024141Y0165958D01*
X0023576Y0169127D02*
X0024803Y0170354D01*
X0025467Y0171957D01*
X0025467Y0173692D01*
X0024803Y0175296D01*
X0023576Y0176523D01*
X0021973Y0177187D01*
X0014694Y0177187D01*
X0013091Y0176523D01*
X0011864Y0175296D01*
X0011200Y0173692D01*
X0011200Y0171957D01*
X0011864Y0170354D01*
X0013091Y0169127D01*
X0014694Y0168463D01*
X0021973Y0168463D01*
X0023576Y0169127D01*
X0023603Y0169155D02*
X0040993Y0169155D01*
X0042591Y0170753D02*
X0024968Y0170753D01*
X0025467Y0172352D02*
X0042794Y0172352D01*
X0042794Y0173950D02*
X0025360Y0173950D01*
X0024550Y0175549D02*
X0029148Y0175549D01*
X0029368Y0175329D02*
X0028436Y0176261D01*
X0028436Y0186239D01*
X0029368Y0187171D01*
X0040527Y0187171D01*
X0041459Y0186239D01*
X0041459Y0176261D01*
X0040527Y0175329D01*
X0029368Y0175329D01*
X0028436Y0177147D02*
X0022068Y0177147D01*
X0028436Y0178746D02*
X0006010Y0178746D01*
X0006010Y0180344D02*
X0028436Y0180344D01*
X0028436Y0181943D02*
X0006010Y0181943D01*
X0006010Y0183541D02*
X0028436Y0183541D01*
X0028436Y0185140D02*
X0006010Y0185140D01*
X0006010Y0186738D02*
X0028935Y0186738D01*
X0035525Y0191534D02*
X0022240Y0191534D01*
X0021843Y0191137D02*
X0023840Y0193134D01*
X0024921Y0195743D01*
X0024921Y0198568D01*
X0023840Y0201177D01*
X0021843Y0203174D01*
X0019234Y0204255D01*
X0016409Y0204255D01*
X0013800Y0203174D01*
X0011803Y0201177D01*
X0010722Y0198568D01*
X0010722Y0195743D01*
X0011803Y0193134D01*
X0013800Y0191137D01*
X0016409Y0190056D01*
X0019234Y0190056D01*
X0021843Y0191137D01*
X0023838Y0193132D02*
X0035525Y0193132D01*
X0035525Y0194731D02*
X0024501Y0194731D01*
X0024921Y0196329D02*
X0029234Y0196329D01*
X0028436Y0197928D02*
X0024921Y0197928D01*
X0024524Y0199526D02*
X0028436Y0199526D01*
X0028436Y0201125D02*
X0023861Y0201125D01*
X0022293Y0202723D02*
X0028436Y0202723D01*
X0028436Y0204322D02*
X0006010Y0204322D01*
X0006010Y0205920D02*
X0028436Y0205920D01*
X0028849Y0207519D02*
X0006010Y0207519D01*
X0006010Y0202723D02*
X0013350Y0202723D01*
X0011782Y0201125D02*
X0006010Y0201125D01*
X0006010Y0199526D02*
X0011119Y0199526D01*
X0010722Y0197928D02*
X0006010Y0197928D01*
X0006010Y0196329D02*
X0010722Y0196329D01*
X0011142Y0194731D02*
X0006010Y0194731D01*
X0006010Y0193132D02*
X0011805Y0193132D01*
X0013403Y0191534D02*
X0006010Y0191534D01*
X0006010Y0189935D02*
X0043399Y0189935D01*
X0043399Y0188337D02*
X0006010Y0188337D01*
X0006010Y0177147D02*
X0014599Y0177147D01*
X0012117Y0175549D02*
X0006010Y0175549D01*
X0006010Y0173950D02*
X0011307Y0173950D01*
X0011200Y0172352D02*
X0006010Y0172352D01*
X0006010Y0170753D02*
X0011699Y0170753D01*
X0013063Y0169155D02*
X0006010Y0169155D01*
X0039859Y0159564D02*
X0045943Y0159564D01*
X0045943Y0161162D02*
X0040892Y0161162D01*
X0042491Y0162761D02*
X0045943Y0162761D01*
X0045943Y0164359D02*
X0044089Y0164359D01*
X0045688Y0165958D02*
X0045943Y0165958D01*
X0045152Y0169368D02*
X0045184Y0169400D01*
X0045184Y0173533D01*
X0045184Y0180266D01*
X0042609Y0180344D02*
X0041459Y0180344D01*
X0041459Y0178746D02*
X0042609Y0178746D01*
X0042609Y0177147D02*
X0041459Y0177147D01*
X0040747Y0175549D02*
X0042731Y0175549D01*
X0042609Y0181943D02*
X0041459Y0181943D01*
X0041459Y0183541D02*
X0042609Y0183541D01*
X0042888Y0185140D02*
X0041459Y0185140D01*
X0040960Y0186738D02*
X0043399Y0186738D01*
X0048333Y0180266D02*
X0048333Y0150896D01*
X0076053Y0123176D01*
X0086750Y0123176D01*
X0087910Y0124336D01*
X0087910Y0127589D01*
X0087979Y0127657D01*
X0084829Y0127657D02*
X0075509Y0127657D01*
X0051483Y0151683D01*
X0051483Y0180266D01*
X0057782Y0180266D02*
X0057782Y0180266D01*
X0061116Y0183600D01*
X0061116Y0186401D01*
X0062277Y0187562D01*
X0065078Y0187562D01*
X0068018Y0190502D01*
X0068018Y0202116D01*
X0077904Y0202116D01*
X0079662Y0203874D01*
X0191497Y0203874D01*
X0198215Y0197156D01*
X0198215Y0193142D01*
X0198924Y0193142D01*
X0198415Y0193132D02*
X0201289Y0193132D01*
X0201289Y0193027D02*
X0205889Y0193027D01*
X0205889Y0196627D01*
X0202852Y0196627D01*
X0202398Y0196505D01*
X0202320Y0196582D01*
X0201910Y0196819D01*
X0201452Y0196942D01*
X0198415Y0196942D01*
X0198415Y0193342D01*
X0201289Y0193342D01*
X0201289Y0193027D01*
X0198015Y0193132D02*
X0153758Y0193132D01*
X0153758Y0194317D02*
X0151203Y0196872D01*
X0147590Y0196872D01*
X0145035Y0194317D01*
X0145035Y0190703D01*
X0147590Y0188148D01*
X0151203Y0188148D01*
X0153758Y0190703D01*
X0153758Y0194317D01*
X0153344Y0194731D02*
X0193415Y0194731D01*
X0193415Y0195379D02*
X0193415Y0193342D01*
X0198015Y0193342D01*
X0198015Y0196942D01*
X0194978Y0196942D01*
X0194520Y0196819D01*
X0194110Y0196582D01*
X0193775Y0196247D01*
X0193538Y0195837D01*
X0193415Y0195379D01*
X0193857Y0196329D02*
X0151745Y0196329D01*
X0147047Y0196329D02*
X0138957Y0196329D01*
X0140556Y0194731D02*
X0145449Y0194731D01*
X0145035Y0193132D02*
X0142154Y0193132D01*
X0143753Y0191534D02*
X0145035Y0191534D01*
X0145351Y0189935D02*
X0145802Y0189935D01*
X0146950Y0188337D02*
X0147401Y0188337D01*
X0148415Y0186872D02*
X0132840Y0202446D01*
X0132840Y0202446D01*
X0132168Y0203119D01*
X0131289Y0203483D01*
X0080338Y0203483D01*
X0079460Y0203119D01*
X0078787Y0202446D01*
X0075523Y0199182D01*
X0074850Y0198509D01*
X0074740Y0198242D01*
X0074740Y0201316D01*
X0068818Y0201316D01*
X0068818Y0195985D01*
X0073177Y0195985D01*
X0073634Y0196108D01*
X0074045Y0196345D01*
X0074380Y0196680D01*
X0074486Y0196865D01*
X0074486Y0186283D01*
X0073598Y0187171D01*
X0062438Y0187171D01*
X0061507Y0186239D01*
X0061507Y0176261D01*
X0062438Y0175329D01*
X0073598Y0175329D01*
X0074486Y0176217D01*
X0074486Y0165184D01*
X0074850Y0164306D01*
X0078984Y0160172D01*
X0079657Y0159499D01*
X0080535Y0159135D01*
X0082139Y0159135D01*
X0082139Y0158298D01*
X0083071Y0157367D01*
X0089183Y0157367D01*
X0089334Y0157280D01*
X0089792Y0157157D01*
X0091129Y0157157D01*
X0092466Y0157157D01*
X0092923Y0157280D01*
X0093074Y0157367D01*
X0101781Y0157367D01*
X0101932Y0157280D01*
X0102390Y0157157D01*
X0103727Y0157157D01*
X0103727Y0161457D01*
X0103727Y0161457D01*
X0103727Y0157157D01*
X0104486Y0157157D01*
X0104486Y0144498D01*
X0092320Y0132332D01*
X0092078Y0131747D01*
X0083071Y0131747D01*
X0082139Y0130816D01*
X0082139Y0130047D01*
X0076499Y0130047D01*
X0053873Y0152673D01*
X0053873Y0174739D01*
X0055952Y0174739D01*
X0056103Y0174651D01*
X0056561Y0174529D01*
X0057782Y0174529D01*
X0057782Y0180266D01*
X0060566Y0180266D01*
X0060566Y0184440D01*
X0060444Y0184898D01*
X0060207Y0185308D01*
X0059872Y0185643D01*
X0059566Y0185819D01*
X0059566Y0190096D01*
X0066972Y0190096D01*
X0067440Y0190564D01*
X0067440Y0198018D01*
X0067218Y0198240D01*
X0067218Y0201316D01*
X0068818Y0201316D01*
X0068818Y0202916D01*
X0067218Y0202916D01*
X0067218Y0205992D01*
X0067440Y0206214D01*
X0067440Y0208967D01*
X0360341Y0208967D01*
X0360341Y0039675D01*
X0360341Y0041274D02*
X0140531Y0041274D01*
X0139825Y0043568D02*
X0096323Y0043568D01*
X0096278Y0043612D01*
X0084751Y0043612D01*
X0080626Y0047737D01*
X0080626Y0059360D01*
X0080626Y0059548D02*
X0076877Y0063297D01*
X0078868Y0065251D02*
X0104595Y0065251D01*
X0104595Y0063653D02*
X0091831Y0063653D01*
X0092465Y0062054D02*
X0103562Y0062054D01*
X0101963Y0060456D02*
X0092465Y0060456D01*
X0092758Y0058857D02*
X0097089Y0058857D01*
X0099656Y0058857D02*
X0100365Y0058857D01*
X0094730Y0057259D02*
X0094357Y0057259D01*
X0090793Y0054062D02*
X0083016Y0054062D01*
X0083016Y0052463D02*
X0092392Y0052463D01*
X0093814Y0050865D02*
X0083016Y0050865D01*
X0083016Y0049266D02*
X0093814Y0049266D01*
X0093814Y0047668D02*
X0084075Y0047668D01*
X0085674Y0046069D02*
X0094453Y0046069D01*
X0096749Y0051486D02*
X0098373Y0051486D01*
X0098373Y0053485D01*
X0108185Y0063297D01*
X0111775Y0063653D02*
X0112844Y0063653D01*
X0112844Y0065251D02*
X0111775Y0065251D01*
X0111775Y0066850D02*
X0112844Y0066850D01*
X0120024Y0066850D02*
X0136104Y0066850D01*
X0137703Y0068448D02*
X0075890Y0068448D01*
X0077270Y0066850D02*
X0104595Y0066850D01*
X0111775Y0062054D02*
X0112844Y0062054D01*
X0112844Y0060456D02*
X0111775Y0060456D01*
X0110994Y0058857D02*
X0113625Y0058857D01*
X0114516Y0057259D02*
X0112016Y0057259D01*
X0112808Y0055660D02*
X0113751Y0055660D01*
X0113604Y0054062D02*
X0112931Y0054062D01*
X0112931Y0052463D02*
X0113604Y0052463D01*
X0113604Y0050865D02*
X0112931Y0050865D01*
X0112931Y0049266D02*
X0113604Y0049266D01*
X0113679Y0047668D02*
X0112931Y0047668D01*
X0112293Y0046069D02*
X0114268Y0046069D01*
X0122477Y0046069D02*
X0133823Y0046069D01*
X0133184Y0047668D02*
X0123066Y0047668D01*
X0123141Y0049266D02*
X0133184Y0049266D01*
X0133184Y0050865D02*
X0123141Y0050865D01*
X0123141Y0052463D02*
X0123785Y0052463D01*
X0123953Y0052295D02*
X0124363Y0052058D01*
X0124821Y0051936D01*
X0127858Y0051936D01*
X0127858Y0055536D01*
X0123258Y0055536D01*
X0123258Y0053499D01*
X0123380Y0053041D01*
X0123617Y0052631D01*
X0123953Y0052295D01*
X0123258Y0054062D02*
X0123141Y0054062D01*
X0122995Y0055660D02*
X0127858Y0055660D01*
X0128258Y0055660D02*
X0133308Y0055660D01*
X0132858Y0055536D02*
X0128258Y0055536D01*
X0128258Y0051936D01*
X0131295Y0051936D01*
X0131753Y0052058D01*
X0132163Y0052295D01*
X0132498Y0052631D01*
X0132735Y0053041D01*
X0132858Y0053499D01*
X0132858Y0055536D01*
X0132858Y0054062D02*
X0133184Y0054062D01*
X0133184Y0052463D02*
X0132331Y0052463D01*
X0128258Y0052463D02*
X0127858Y0052463D01*
X0127858Y0054062D02*
X0128258Y0054062D01*
X0132858Y0057259D02*
X0134100Y0057259D01*
X0132482Y0058857D02*
X0136459Y0058857D01*
X0139026Y0058857D02*
X0141765Y0058857D01*
X0143364Y0060456D02*
X0132648Y0060456D01*
X0135620Y0062985D02*
X0128058Y0062985D01*
X0116746Y0062985D01*
X0116434Y0063297D01*
X0120024Y0060456D02*
X0123468Y0060456D01*
X0123634Y0058857D02*
X0120236Y0058857D01*
X0122230Y0057259D02*
X0123258Y0057259D01*
X0135620Y0062985D02*
X0151680Y0079045D01*
X0151680Y0082982D01*
X0149022Y0085640D01*
X0144790Y0085640D01*
X0144790Y0083081D02*
X0144790Y0080030D01*
X0143806Y0079045D01*
X0143798Y0079045D01*
X0134299Y0069546D01*
X0121817Y0069546D01*
X0120942Y0070973D02*
X0120942Y0070973D01*
X0120270Y0071645D02*
X0092465Y0071645D01*
X0092465Y0073244D02*
X0118672Y0073244D01*
X0117073Y0074842D02*
X0092465Y0074842D01*
X0105299Y0081236D02*
X0110679Y0081236D01*
X0109081Y0082835D02*
X0104540Y0082835D01*
X0105089Y0084434D02*
X0107482Y0084434D01*
X0111046Y0087631D02*
X0117891Y0087631D01*
X0117794Y0087395D02*
X0117794Y0080883D01*
X0110403Y0088273D01*
X0110403Y0088273D01*
X0110210Y0088466D01*
X0118350Y0088466D01*
X0118157Y0088273D01*
X0117794Y0087395D01*
X0117794Y0086032D02*
X0112644Y0086032D01*
X0114243Y0084434D02*
X0117794Y0084434D01*
X0117794Y0082835D02*
X0115841Y0082835D01*
X0117440Y0081236D02*
X0117794Y0081236D01*
X0122574Y0081236D02*
X0123716Y0081236D01*
X0123318Y0081635D02*
X0124249Y0080703D01*
X0124683Y0080703D01*
X0124683Y0079554D01*
X0125047Y0078676D01*
X0126031Y0077691D01*
X0126224Y0077498D01*
X0125111Y0077498D01*
X0122574Y0080035D01*
X0122574Y0085809D01*
X0123318Y0085809D01*
X0123318Y0081635D01*
X0123318Y0082835D02*
X0122574Y0082835D01*
X0122574Y0084434D02*
X0123318Y0084434D01*
X0127073Y0085640D02*
X0130269Y0085640D01*
X0131473Y0086844D01*
X0131473Y0094271D01*
X0130638Y0095106D01*
X0124121Y0095106D01*
X0112185Y0095106D01*
X0108560Y0098730D01*
X0104970Y0098820D02*
X0103901Y0098820D01*
X0103901Y0097222D02*
X0104970Y0097222D01*
X0104970Y0095623D02*
X0103901Y0095623D01*
X0100311Y0098730D02*
X0092812Y0098730D01*
X0088688Y0102855D01*
X0088875Y0102667D01*
X0088688Y0102855D02*
X0073067Y0102855D01*
X0071129Y0104793D01*
X0075687Y0106813D02*
X0154834Y0106813D01*
X0156432Y0105214D02*
X0128703Y0105214D01*
X0128798Y0105049D02*
X0128561Y0105460D01*
X0128226Y0105795D01*
X0127816Y0106032D01*
X0127358Y0106155D01*
X0124321Y0106155D01*
X0124321Y0102555D01*
X0128921Y0102555D01*
X0128921Y0104592D01*
X0128798Y0105049D01*
X0128921Y0103616D02*
X0158031Y0103616D01*
X0158739Y0102355D02*
X0163847Y0097247D01*
X0163847Y0094793D01*
X0168528Y0090112D01*
X0168528Y0082720D01*
X0174188Y0077060D01*
X0188792Y0077060D01*
X0190777Y0079045D01*
X0201310Y0079045D01*
X0213121Y0090856D01*
X0257979Y0090856D01*
X0264790Y0084045D01*
X0264790Y0066722D01*
X0270109Y0061404D01*
X0280109Y0061404D01*
X0284790Y0056722D01*
X0284608Y0057259D02*
X0284973Y0057259D01*
X0284973Y0058857D02*
X0284608Y0058857D01*
X0284608Y0060456D02*
X0284973Y0060456D01*
X0286299Y0062054D02*
X0289023Y0062054D01*
X0289006Y0060456D02*
X0288269Y0060456D01*
X0283281Y0062054D02*
X0276299Y0062054D01*
X0275763Y0061832D02*
X0277560Y0062577D01*
X0278936Y0063952D01*
X0279680Y0065750D01*
X0279680Y0074295D01*
X0278936Y0076092D01*
X0277560Y0077468D01*
X0275763Y0078213D01*
X0273817Y0078213D01*
X0272020Y0077468D01*
X0270644Y0076092D01*
X0269900Y0074295D01*
X0269900Y0065750D01*
X0270644Y0063952D01*
X0272020Y0062577D01*
X0273817Y0061832D01*
X0275763Y0061832D01*
X0275763Y0061613D02*
X0273817Y0061613D01*
X0272020Y0060868D01*
X0270644Y0059492D01*
X0269900Y0057695D01*
X0269900Y0049150D01*
X0270644Y0047352D01*
X0272020Y0045977D01*
X0273817Y0045232D01*
X0275763Y0045232D01*
X0277560Y0045977D01*
X0278936Y0047352D01*
X0279680Y0049150D01*
X0279680Y0057695D01*
X0278936Y0059492D01*
X0277560Y0060868D01*
X0275763Y0061613D01*
X0277972Y0060456D02*
X0281311Y0060456D01*
X0280154Y0058857D02*
X0279199Y0058857D01*
X0279680Y0057259D02*
X0279711Y0057259D01*
X0279680Y0055660D02*
X0279690Y0055660D01*
X0279680Y0054062D02*
X0279690Y0054062D01*
X0279680Y0052463D02*
X0279690Y0052463D01*
X0279680Y0050865D02*
X0279690Y0050865D01*
X0279680Y0049266D02*
X0279762Y0049266D01*
X0280317Y0047668D02*
X0279066Y0047668D01*
X0277653Y0046069D02*
X0281692Y0046069D01*
X0284608Y0046069D02*
X0284973Y0046069D01*
X0284973Y0047668D02*
X0284608Y0047668D01*
X0284608Y0049266D02*
X0284973Y0049266D01*
X0284973Y0050865D02*
X0284608Y0050865D01*
X0284608Y0052463D02*
X0284973Y0052463D01*
X0284973Y0054062D02*
X0284608Y0054062D01*
X0284608Y0055660D02*
X0284973Y0055660D01*
X0289890Y0055660D02*
X0312354Y0055660D01*
X0313952Y0054062D02*
X0289890Y0054062D01*
X0289890Y0052463D02*
X0315551Y0052463D01*
X0317149Y0050865D02*
X0289890Y0050865D01*
X0289818Y0049266D02*
X0318748Y0049266D01*
X0320346Y0047668D02*
X0289263Y0047668D01*
X0287888Y0046069D02*
X0320718Y0046069D01*
X0320998Y0044471D02*
X0160285Y0044471D01*
X0160242Y0044439D02*
X0160849Y0044880D01*
X0161380Y0045411D01*
X0161821Y0046018D01*
X0162162Y0046687D01*
X0162394Y0047401D01*
X0162511Y0048142D01*
X0162511Y0051302D01*
X0157927Y0051302D01*
X0157927Y0043749D01*
X0158118Y0043749D01*
X0158859Y0043867D01*
X0159573Y0044099D01*
X0160242Y0044439D01*
X0161847Y0046069D02*
X0211927Y0046069D01*
X0210514Y0047668D02*
X0162436Y0047668D01*
X0162511Y0049266D02*
X0191416Y0049266D01*
X0191416Y0050865D02*
X0162511Y0050865D01*
X0162511Y0052463D02*
X0191416Y0052463D01*
X0191416Y0054062D02*
X0162511Y0054062D01*
X0162365Y0055660D02*
X0209900Y0055660D01*
X0209900Y0057259D02*
X0198558Y0057259D01*
X0198558Y0058857D02*
X0210381Y0058857D01*
X0211608Y0060456D02*
X0198558Y0060456D01*
X0198504Y0062054D02*
X0213281Y0062054D01*
X0210944Y0063653D02*
X0139668Y0063653D01*
X0141266Y0065251D02*
X0210106Y0065251D01*
X0212796Y0068717D02*
X0214790Y0066722D01*
X0209900Y0071107D02*
X0208486Y0071107D01*
X0209900Y0072521D01*
X0209900Y0071107D01*
X0209900Y0071645D02*
X0209025Y0071645D01*
X0205461Y0074842D02*
X0204421Y0074842D01*
X0206019Y0076441D02*
X0207060Y0076441D01*
X0207618Y0078039D02*
X0208658Y0078039D01*
X0209216Y0079638D02*
X0210257Y0079638D01*
X0210815Y0081236D02*
X0252400Y0081236D01*
X0252400Y0079638D02*
X0239323Y0079638D01*
X0240922Y0078039D02*
X0243399Y0078039D01*
X0241144Y0077817D02*
X0241144Y0077817D01*
X0246181Y0078039D02*
X0252400Y0078039D01*
X0250993Y0076441D02*
X0248587Y0076441D01*
X0249453Y0074842D02*
X0250127Y0074842D01*
X0249900Y0073244D02*
X0249680Y0073244D01*
X0249680Y0071645D02*
X0249900Y0071645D01*
X0249900Y0070047D02*
X0249680Y0070047D01*
X0249680Y0068448D02*
X0249900Y0068448D01*
X0249900Y0066850D02*
X0249680Y0066850D01*
X0249474Y0065251D02*
X0250106Y0065251D01*
X0250944Y0063653D02*
X0248636Y0063653D01*
X0246299Y0062054D02*
X0253281Y0062054D01*
X0253817Y0061613D02*
X0252020Y0060868D01*
X0250644Y0059492D01*
X0249900Y0057695D01*
X0249900Y0049150D01*
X0250644Y0047352D01*
X0252020Y0045977D01*
X0253817Y0045232D01*
X0255763Y0045232D01*
X0257560Y0045977D01*
X0258936Y0047352D01*
X0259680Y0049150D01*
X0259680Y0057695D01*
X0258936Y0059492D01*
X0257560Y0060868D01*
X0255763Y0061613D01*
X0253817Y0061613D01*
X0251608Y0060456D02*
X0247972Y0060456D01*
X0249199Y0058857D02*
X0250381Y0058857D01*
X0249900Y0057259D02*
X0249680Y0057259D01*
X0249680Y0055660D02*
X0249900Y0055660D01*
X0249900Y0054062D02*
X0249680Y0054062D01*
X0249680Y0052463D02*
X0249900Y0052463D01*
X0249900Y0050865D02*
X0249680Y0050865D01*
X0249680Y0049266D02*
X0249900Y0049266D01*
X0250514Y0047668D02*
X0249066Y0047668D01*
X0247653Y0046069D02*
X0251927Y0046069D01*
X0257653Y0046069D02*
X0261927Y0046069D01*
X0262020Y0045977D02*
X0263817Y0045232D01*
X0265763Y0045232D01*
X0267560Y0045977D01*
X0268936Y0047352D01*
X0269680Y0049150D01*
X0269680Y0057695D01*
X0268936Y0059492D01*
X0267560Y0060868D01*
X0265763Y0061613D01*
X0263817Y0061613D01*
X0262020Y0060868D01*
X0260644Y0059492D01*
X0259900Y0057695D01*
X0259900Y0049150D01*
X0260644Y0047352D01*
X0262020Y0045977D01*
X0260514Y0047668D02*
X0259066Y0047668D01*
X0259680Y0049266D02*
X0259900Y0049266D01*
X0259900Y0050865D02*
X0259680Y0050865D01*
X0259680Y0052463D02*
X0259900Y0052463D01*
X0259900Y0054062D02*
X0259680Y0054062D01*
X0259680Y0055660D02*
X0259900Y0055660D01*
X0259900Y0057259D02*
X0259680Y0057259D01*
X0259199Y0058857D02*
X0260381Y0058857D01*
X0261608Y0060456D02*
X0257972Y0060456D01*
X0256299Y0062054D02*
X0262718Y0062054D01*
X0262832Y0061996D02*
X0263596Y0061748D01*
X0264389Y0061622D01*
X0264608Y0061622D01*
X0264608Y0066540D01*
X0264973Y0066540D01*
X0264973Y0066905D01*
X0269890Y0066905D01*
X0269890Y0073724D01*
X0269764Y0074517D01*
X0269516Y0075280D01*
X0269152Y0075995D01*
X0268680Y0076645D01*
X0268112Y0077212D01*
X0267463Y0077684D01*
X0266748Y0078049D01*
X0265984Y0078297D01*
X0265191Y0078422D01*
X0264973Y0078422D01*
X0264973Y0066905D01*
X0264608Y0066905D01*
X0264608Y0078422D01*
X0264389Y0078422D01*
X0263596Y0078297D01*
X0262832Y0078049D01*
X0262117Y0077684D01*
X0261468Y0077212D01*
X0260900Y0076645D01*
X0260428Y0075995D01*
X0260064Y0075280D01*
X0259816Y0074517D01*
X0259690Y0073724D01*
X0259690Y0066905D01*
X0264607Y0066905D01*
X0264607Y0066540D01*
X0259690Y0066540D01*
X0259690Y0066321D01*
X0259816Y0065528D01*
X0260064Y0064765D01*
X0260428Y0064049D01*
X0260900Y0063400D01*
X0261468Y0062832D01*
X0262117Y0062361D01*
X0262832Y0061996D01*
X0264608Y0062054D02*
X0264973Y0062054D01*
X0264973Y0061622D02*
X0265191Y0061622D01*
X0265984Y0061748D01*
X0266748Y0061996D01*
X0267463Y0062361D01*
X0268112Y0062832D01*
X0268680Y0063400D01*
X0269152Y0064049D01*
X0269516Y0064765D01*
X0269764Y0065528D01*
X0269890Y0066321D01*
X0269890Y0066540D01*
X0264973Y0066540D01*
X0264973Y0061622D01*
X0266862Y0062054D02*
X0273281Y0062054D01*
X0271608Y0060456D02*
X0267972Y0060456D01*
X0269199Y0058857D02*
X0270381Y0058857D01*
X0269900Y0057259D02*
X0269680Y0057259D01*
X0269680Y0055660D02*
X0269900Y0055660D01*
X0269900Y0054062D02*
X0269680Y0054062D01*
X0269680Y0052463D02*
X0269900Y0052463D01*
X0269900Y0050865D02*
X0269680Y0050865D01*
X0269680Y0049266D02*
X0269900Y0049266D01*
X0270514Y0047668D02*
X0269066Y0047668D01*
X0267653Y0046069D02*
X0271927Y0046069D01*
X0293606Y0057259D02*
X0294006Y0057259D01*
X0294006Y0058857D02*
X0293606Y0058857D01*
X0294006Y0059552D02*
X0294006Y0059952D01*
X0297510Y0059952D01*
X0302110Y0059952D01*
X0302110Y0059552D01*
X0294006Y0059552D01*
X0297486Y0063433D02*
X0298058Y0064004D01*
X0298629Y0063433D01*
X0298615Y0063429D01*
X0298204Y0063192D01*
X0298058Y0063045D01*
X0297911Y0063192D01*
X0297501Y0063429D01*
X0297486Y0063433D01*
X0297707Y0063653D02*
X0298409Y0063653D01*
X0302310Y0067001D02*
X0293806Y0067001D01*
X0293527Y0066722D01*
X0284790Y0066722D01*
X0279900Y0066850D02*
X0279680Y0066850D01*
X0279680Y0068448D02*
X0279900Y0068448D01*
X0279900Y0070047D02*
X0279680Y0070047D01*
X0279680Y0071645D02*
X0279900Y0071645D01*
X0279900Y0073244D02*
X0279680Y0073244D01*
X0279453Y0074842D02*
X0280127Y0074842D01*
X0280993Y0076441D02*
X0278587Y0076441D01*
X0276181Y0078039D02*
X0281600Y0078039D01*
X0281600Y0079638D02*
X0257180Y0079638D01*
X0257180Y0081236D02*
X0281600Y0081236D01*
X0281174Y0082835D02*
X0257128Y0082835D01*
X0255971Y0084434D02*
X0279575Y0084434D01*
X0277977Y0086032D02*
X0254372Y0086032D01*
X0252774Y0087631D02*
X0276378Y0087631D01*
X0274780Y0089229D02*
X0250774Y0089229D01*
X0250105Y0086919D02*
X0254790Y0082234D01*
X0254790Y0066722D01*
X0259680Y0066850D02*
X0264607Y0066850D01*
X0264973Y0066850D02*
X0269900Y0066850D01*
X0269890Y0068448D02*
X0269900Y0068448D01*
X0269890Y0070047D02*
X0269900Y0070047D01*
X0269890Y0071645D02*
X0269900Y0071645D01*
X0269890Y0073244D02*
X0269900Y0073244D01*
X0270127Y0074842D02*
X0269659Y0074842D01*
X0268828Y0076441D02*
X0270993Y0076441D01*
X0273399Y0078039D02*
X0266766Y0078039D01*
X0264973Y0078039D02*
X0264608Y0078039D01*
X0264608Y0076441D02*
X0264973Y0076441D01*
X0264973Y0074842D02*
X0264608Y0074842D01*
X0264608Y0073244D02*
X0264973Y0073244D01*
X0264973Y0071645D02*
X0264608Y0071645D01*
X0264608Y0070047D02*
X0264973Y0070047D01*
X0264973Y0068448D02*
X0264608Y0068448D01*
X0264608Y0065251D02*
X0264973Y0065251D01*
X0264973Y0063653D02*
X0264608Y0063653D01*
X0260716Y0063653D02*
X0258636Y0063653D01*
X0259474Y0065251D02*
X0259906Y0065251D01*
X0259680Y0068448D02*
X0259690Y0068448D01*
X0259680Y0070047D02*
X0259690Y0070047D01*
X0259680Y0071645D02*
X0259690Y0071645D01*
X0259680Y0073244D02*
X0259690Y0073244D01*
X0259921Y0074842D02*
X0259453Y0074842D01*
X0258587Y0076441D02*
X0260752Y0076441D01*
X0262814Y0078039D02*
X0257180Y0078039D01*
X0250809Y0082835D02*
X0212413Y0082835D01*
X0214012Y0084434D02*
X0249211Y0084434D01*
X0250105Y0086919D02*
X0213117Y0086919D01*
X0200477Y0074279D01*
X0173036Y0074279D01*
X0149741Y0097574D01*
X0138717Y0097574D01*
X0134254Y0093111D01*
X0134254Y0085692D01*
X0133963Y0085401D01*
X0133963Y0081014D01*
X0131995Y0079045D01*
X0128058Y0079045D01*
X0127073Y0080030D01*
X0127073Y0083081D01*
X0127073Y0085640D02*
X0128058Y0085640D01*
X0130829Y0083285D02*
X0131573Y0083593D01*
X0131573Y0082004D01*
X0131005Y0081435D01*
X0130630Y0081435D01*
X0130829Y0081635D01*
X0130829Y0083285D01*
X0130829Y0082835D02*
X0131573Y0082835D01*
X0125683Y0078039D02*
X0124570Y0078039D01*
X0124683Y0079638D02*
X0122971Y0079638D01*
X0135845Y0071645D02*
X0140900Y0071645D01*
X0139301Y0070047D02*
X0133888Y0070047D01*
X0137444Y0073244D02*
X0142498Y0073244D01*
X0144097Y0074842D02*
X0139042Y0074842D01*
X0140641Y0076441D02*
X0145695Y0076441D01*
X0147294Y0078039D02*
X0142007Y0078039D01*
X0141170Y0076970D02*
X0141170Y0076970D01*
X0142206Y0079638D02*
X0148892Y0079638D01*
X0149290Y0081236D02*
X0148424Y0081236D01*
X0144790Y0081236D02*
X0144790Y0081236D01*
X0144790Y0080493D02*
X0144790Y0083081D01*
X0144790Y0083081D01*
X0144790Y0080493D01*
X0144790Y0082835D02*
X0144790Y0082835D01*
X0154070Y0079638D02*
X0155585Y0079638D01*
X0157183Y0078039D02*
X0153850Y0078039D01*
X0152456Y0076441D02*
X0158782Y0076441D01*
X0160380Y0074842D02*
X0150857Y0074842D01*
X0149259Y0073244D02*
X0161979Y0073244D01*
X0163577Y0071645D02*
X0147660Y0071645D01*
X0146062Y0070047D02*
X0165176Y0070047D01*
X0166774Y0068448D02*
X0144463Y0068448D01*
X0142865Y0066850D02*
X0168373Y0066850D01*
X0159837Y0059360D02*
X0194987Y0059360D01*
X0191470Y0062054D02*
X0138069Y0062054D01*
X0143666Y0060758D02*
X0143666Y0060758D01*
X0145693Y0059404D02*
X0142911Y0056623D01*
X0142880Y0056623D01*
X0137743Y0051486D01*
X0137774Y0051486D01*
X0142301Y0050865D02*
X0143184Y0050865D01*
X0143184Y0050308D02*
X0143184Y0053547D01*
X0142301Y0052665D01*
X0142301Y0049425D01*
X0143184Y0050308D01*
X0143184Y0052463D02*
X0142301Y0052463D01*
X0147743Y0051486D02*
X0139825Y0043568D01*
X0142509Y0042872D02*
X0322596Y0042872D01*
X0327220Y0042872D02*
X0360341Y0042872D01*
X0360341Y0044471D02*
X0350144Y0044471D01*
X0349942Y0044387D02*
X0352552Y0045468D01*
X0354549Y0047465D01*
X0355629Y0050074D01*
X0355629Y0052898D01*
X0354549Y0055508D01*
X0352552Y0057505D01*
X0349942Y0058585D01*
X0347118Y0058585D01*
X0344509Y0057505D01*
X0342512Y0055508D01*
X0341431Y0052898D01*
X0341431Y0050074D01*
X0342512Y0047465D01*
X0344509Y0045468D01*
X0347118Y0044387D01*
X0349942Y0044387D01*
X0346916Y0044471D02*
X0328818Y0044471D01*
X0329098Y0046069D02*
X0343907Y0046069D01*
X0342428Y0047668D02*
X0329098Y0047668D01*
X0328054Y0049266D02*
X0341766Y0049266D01*
X0341431Y0050865D02*
X0337451Y0050865D01*
X0337451Y0050726D02*
X0337451Y0056044D01*
X0336520Y0056975D01*
X0332651Y0056975D01*
X0331792Y0057834D01*
X0332661Y0057834D01*
X0332661Y0061434D01*
X0333061Y0061434D01*
X0333061Y0057834D01*
X0336098Y0057834D01*
X0336556Y0057957D01*
X0336966Y0058194D01*
X0337301Y0058529D01*
X0337538Y0058939D01*
X0337661Y0059397D01*
X0337661Y0061434D01*
X0333061Y0061434D01*
X0333061Y0061834D01*
X0337661Y0061834D01*
X0337661Y0063871D01*
X0337538Y0064329D01*
X0337301Y0064739D01*
X0336966Y0065075D01*
X0336556Y0065312D01*
X0336098Y0065434D01*
X0333061Y0065434D01*
X0333061Y0061834D01*
X0332661Y0061834D01*
X0332661Y0061434D01*
X0328061Y0061434D01*
X0328061Y0059397D01*
X0328111Y0059209D01*
X0326644Y0060676D01*
X0323173Y0060676D01*
X0320718Y0058222D01*
X0320718Y0054751D01*
X0323173Y0052296D01*
X0326644Y0052296D01*
X0328271Y0053923D01*
X0328271Y0050726D01*
X0329202Y0049795D01*
X0336520Y0049795D01*
X0337451Y0050726D01*
X0337451Y0052463D02*
X0341431Y0052463D01*
X0341913Y0054062D02*
X0337451Y0054062D01*
X0337451Y0055660D02*
X0342664Y0055660D01*
X0344263Y0057259D02*
X0332367Y0057259D01*
X0332661Y0058857D02*
X0333061Y0058857D01*
X0333061Y0060456D02*
X0332661Y0060456D01*
X0332861Y0061187D02*
X0332861Y0061634D01*
X0332861Y0063189D01*
X0340656Y0070984D01*
X0344406Y0067234D01*
X0352467Y0067234D01*
X0356404Y0071171D01*
X0356404Y0090856D01*
X0347223Y0090856D01*
X0336221Y0101859D01*
X0333431Y0101859D01*
X0332231Y0103059D01*
X0332435Y0099078D02*
X0328410Y0099078D01*
X0320765Y0106722D01*
X0314790Y0106722D01*
X0309900Y0106813D02*
X0309680Y0106813D01*
X0309680Y0107695D02*
X0308936Y0109492D01*
X0307560Y0110868D01*
X0305763Y0111613D01*
X0297217Y0111613D01*
X0295420Y0110868D01*
X0294044Y0109492D01*
X0293300Y0107695D01*
X0293300Y0105750D01*
X0294044Y0103952D01*
X0295420Y0102577D01*
X0297217Y0101832D01*
X0305763Y0101832D01*
X0307560Y0102577D01*
X0308936Y0103952D01*
X0309680Y0105750D01*
X0309680Y0107695D01*
X0309384Y0108411D02*
X0310196Y0108411D01*
X0311162Y0110010D02*
X0308418Y0110010D01*
X0305773Y0111608D02*
X0313807Y0111608D01*
X0311390Y0113207D02*
X0308190Y0113207D01*
X0309289Y0114805D02*
X0310291Y0114805D01*
X0309900Y0116404D02*
X0309680Y0116404D01*
X0309553Y0118002D02*
X0310027Y0118002D01*
X0310753Y0119601D02*
X0308827Y0119601D01*
X0306761Y0121199D02*
X0312819Y0121199D01*
X0311799Y0122798D02*
X0307781Y0122798D01*
X0309120Y0124396D02*
X0310460Y0124396D01*
X0309900Y0125995D02*
X0309680Y0125995D01*
X0309680Y0127593D02*
X0309900Y0127593D01*
X0310520Y0129192D02*
X0309060Y0129192D01*
X0310298Y0130790D02*
X0307638Y0130790D01*
X0307502Y0132389D02*
X0308699Y0132389D01*
X0309809Y0134659D02*
X0312746Y0131722D01*
X0313097Y0131722D01*
X0323859Y0131722D01*
X0328845Y0126736D01*
X0328845Y0122037D01*
X0348530Y0102352D01*
X0355084Y0105214D02*
X0360341Y0105214D01*
X0360341Y0103616D02*
X0355910Y0103616D01*
X0356057Y0102017D02*
X0360341Y0102017D01*
X0360341Y0100419D02*
X0355632Y0100419D01*
X0356404Y0100258D02*
X0356404Y0090856D01*
X0360341Y0090828D02*
X0324201Y0090828D01*
X0324160Y0090868D02*
X0322363Y0091613D01*
X0313817Y0091613D01*
X0312020Y0090868D01*
X0310644Y0089492D01*
X0309900Y0087695D01*
X0309900Y0085750D01*
X0310435Y0084458D01*
X0309523Y0085370D01*
X0309680Y0085750D01*
X0309680Y0087695D01*
X0308936Y0089492D01*
X0307560Y0090868D01*
X0305763Y0091613D01*
X0297217Y0091613D01*
X0295420Y0090868D01*
X0294044Y0089492D01*
X0293300Y0087695D01*
X0293300Y0085750D01*
X0294044Y0083952D01*
X0295420Y0082577D01*
X0297217Y0081832D01*
X0305763Y0081832D01*
X0306143Y0081990D01*
X0310441Y0077691D01*
X0311113Y0077019D01*
X0311992Y0076655D01*
X0333142Y0076655D01*
X0334021Y0077019D01*
X0336066Y0079064D01*
X0336066Y0076574D01*
X0336997Y0075643D01*
X0343552Y0075643D01*
X0344340Y0074855D01*
X0344340Y0074664D01*
X0343893Y0074784D01*
X0340856Y0074784D01*
X0340856Y0071184D01*
X0340456Y0071184D01*
X0340456Y0074784D01*
X0337419Y0074784D01*
X0336961Y0074661D01*
X0336551Y0074424D01*
X0336216Y0074089D01*
X0335979Y0073679D01*
X0335856Y0073221D01*
X0335856Y0071184D01*
X0340456Y0071184D01*
X0340456Y0070784D01*
X0335856Y0070784D01*
X0335856Y0068747D01*
X0335979Y0068289D01*
X0336216Y0067879D01*
X0336551Y0067543D01*
X0336961Y0067307D01*
X0337419Y0067184D01*
X0340456Y0067184D01*
X0340456Y0070784D01*
X0340856Y0070784D01*
X0340856Y0071184D01*
X0345456Y0071184D01*
X0345456Y0071194D01*
X0346795Y0069855D01*
X0350266Y0069855D01*
X0352720Y0072310D01*
X0352720Y0075781D01*
X0350266Y0078235D01*
X0347720Y0078235D01*
X0345369Y0080587D01*
X0345246Y0080709D01*
X0345246Y0080824D01*
X0345826Y0080824D01*
X0346795Y0079855D01*
X0350266Y0079855D01*
X0352720Y0082310D01*
X0352720Y0085781D01*
X0350266Y0088235D01*
X0346795Y0088235D01*
X0344340Y0085781D01*
X0344340Y0085604D01*
X0336360Y0085604D01*
X0335482Y0085240D01*
X0331677Y0081435D01*
X0313457Y0081435D01*
X0312525Y0082368D01*
X0313817Y0081832D01*
X0322363Y0081832D01*
X0324160Y0082577D01*
X0325536Y0083952D01*
X0326280Y0085750D01*
X0326280Y0087695D01*
X0325536Y0089492D01*
X0324160Y0090868D01*
X0323796Y0092426D02*
X0333148Y0092426D01*
X0333148Y0094025D02*
X0325566Y0094025D01*
X0326228Y0095623D02*
X0332509Y0095623D01*
X0332435Y0099078D02*
X0336719Y0094793D01*
X0340290Y0094025D02*
X0360341Y0094025D01*
X0360341Y0095623D02*
X0340290Y0095623D01*
X0340290Y0097222D02*
X0360341Y0097222D01*
X0360341Y0098820D02*
X0354413Y0098820D01*
X0356404Y0100258D02*
X0356448Y0100302D01*
X0356448Y0124434D01*
X0355499Y0125384D01*
X0355499Y0139353D01*
X0356448Y0140302D01*
X0356448Y0165659D01*
X0354842Y0167556D02*
X0360341Y0167556D01*
X0360341Y0165958D02*
X0287734Y0165958D01*
X0287463Y0165761D02*
X0288112Y0166232D01*
X0288680Y0166800D01*
X0289152Y0167449D01*
X0289516Y0168165D01*
X0289764Y0168928D01*
X0289890Y0169721D01*
X0289890Y0176540D01*
X0284973Y0176540D01*
X0284973Y0176905D01*
X0289890Y0176905D01*
X0289890Y0177124D01*
X0289764Y0177917D01*
X0289516Y0178680D01*
X0289152Y0179395D01*
X0288680Y0180045D01*
X0288112Y0180612D01*
X0287463Y0181084D01*
X0286748Y0181449D01*
X0285984Y0181697D01*
X0285191Y0181822D01*
X0284973Y0181822D01*
X0284973Y0176905D01*
X0284608Y0176905D01*
X0284608Y0181822D01*
X0284389Y0181822D01*
X0283596Y0181697D01*
X0282832Y0181449D01*
X0282117Y0181084D01*
X0281468Y0180612D01*
X0280900Y0180045D01*
X0280428Y0179395D01*
X0280064Y0178680D01*
X0279816Y0177917D01*
X0279690Y0177124D01*
X0279690Y0176905D01*
X0284607Y0176905D01*
X0284607Y0176540D01*
X0279690Y0176540D01*
X0279690Y0169721D01*
X0279816Y0168928D01*
X0280064Y0168165D01*
X0280428Y0167449D01*
X0280900Y0166800D01*
X0281468Y0166232D01*
X0282117Y0165761D01*
X0282832Y0165396D01*
X0283596Y0165148D01*
X0284389Y0165022D01*
X0284608Y0165022D01*
X0284608Y0176540D01*
X0284973Y0176540D01*
X0284973Y0165022D01*
X0285191Y0165022D01*
X0285984Y0165148D01*
X0286748Y0165396D01*
X0287463Y0165761D01*
X0284973Y0165958D02*
X0284608Y0165958D01*
X0284608Y0167556D02*
X0284973Y0167556D01*
X0284973Y0169155D02*
X0284608Y0169155D01*
X0284608Y0170753D02*
X0284973Y0170753D01*
X0284973Y0172352D02*
X0284608Y0172352D01*
X0284608Y0173950D02*
X0284973Y0173950D01*
X0284973Y0175549D02*
X0284608Y0175549D01*
X0284608Y0177147D02*
X0284973Y0177147D01*
X0284973Y0178746D02*
X0284608Y0178746D01*
X0284608Y0180344D02*
X0284973Y0180344D01*
X0285763Y0181832D02*
X0283817Y0181832D01*
X0282020Y0182577D01*
X0280644Y0183952D01*
X0279900Y0185750D01*
X0279900Y0194295D01*
X0280644Y0196092D01*
X0282020Y0197468D01*
X0283817Y0198213D01*
X0285763Y0198213D01*
X0287560Y0197468D01*
X0288936Y0196092D01*
X0289680Y0194295D01*
X0289680Y0189113D01*
X0332943Y0189113D01*
X0333821Y0188749D01*
X0334493Y0188076D01*
X0347352Y0175218D01*
X0352405Y0175218D01*
X0354081Y0174524D01*
X0355363Y0173242D01*
X0356057Y0171566D01*
X0356057Y0169753D01*
X0355363Y0168077D01*
X0354081Y0166795D01*
X0352405Y0166101D01*
X0344655Y0166101D01*
X0342979Y0166795D01*
X0341697Y0168077D01*
X0341003Y0169753D01*
X0341003Y0171566D01*
X0341697Y0173242D01*
X0342132Y0173677D01*
X0331477Y0184332D01*
X0289093Y0184332D01*
X0288936Y0183952D01*
X0287560Y0182577D01*
X0285763Y0181832D01*
X0286029Y0181943D02*
X0333867Y0181943D01*
X0332268Y0183541D02*
X0288525Y0183541D01*
X0288381Y0180344D02*
X0335465Y0180344D01*
X0337064Y0178746D02*
X0289483Y0178746D01*
X0289886Y0177147D02*
X0338662Y0177147D01*
X0340261Y0175549D02*
X0289890Y0175549D01*
X0289890Y0173950D02*
X0341859Y0173950D01*
X0341328Y0172352D02*
X0289890Y0172352D01*
X0289890Y0170753D02*
X0341003Y0170753D01*
X0341251Y0169155D02*
X0289800Y0169155D01*
X0289206Y0167556D02*
X0342218Y0167556D01*
X0342814Y0164359D02*
X0324137Y0164359D01*
X0323578Y0162004D02*
X0310071Y0162004D01*
X0304790Y0156722D01*
X0309274Y0154768D02*
X0310306Y0154768D01*
X0309900Y0156367D02*
X0309680Y0156367D01*
X0309568Y0157965D02*
X0310012Y0157965D01*
X0309192Y0153170D02*
X0311427Y0153170D01*
X0310790Y0151571D02*
X0313717Y0151571D01*
X0312259Y0146722D02*
X0307259Y0151722D01*
X0295721Y0151722D01*
X0295472Y0151972D01*
X0293829Y0153615D01*
X0289554Y0153615D01*
X0285305Y0153615D01*
X0281601Y0149911D01*
X0283984Y0148374D02*
X0284754Y0148374D01*
X0284754Y0146775D02*
X0282411Y0146775D01*
X0280812Y0145177D02*
X0284754Y0145177D01*
X0284930Y0143578D02*
X0279214Y0143578D01*
X0285042Y0149972D02*
X0285737Y0149972D01*
X0293234Y0150047D02*
X0293626Y0150438D01*
X0294308Y0149756D01*
X0294044Y0149492D01*
X0294018Y0149429D01*
X0293994Y0149471D01*
X0293659Y0149806D01*
X0293249Y0150043D01*
X0293234Y0150047D01*
X0293371Y0149972D02*
X0294091Y0149972D01*
X0293412Y0157965D02*
X0281183Y0157965D01*
X0281388Y0159564D02*
X0294115Y0159564D01*
X0296130Y0161162D02*
X0281388Y0161162D01*
X0281388Y0162761D02*
X0307448Y0162761D01*
X0309512Y0164359D02*
X0281388Y0164359D01*
X0280977Y0165958D02*
X0281846Y0165958D01*
X0280374Y0167556D02*
X0279020Y0167556D01*
X0279680Y0169155D02*
X0279780Y0169155D01*
X0279690Y0170753D02*
X0279680Y0170753D01*
X0279680Y0172352D02*
X0279690Y0172352D01*
X0279680Y0173950D02*
X0279690Y0173950D01*
X0279680Y0175549D02*
X0279690Y0175549D01*
X0279680Y0177147D02*
X0279694Y0177147D01*
X0280097Y0178746D02*
X0279245Y0178746D01*
X0278084Y0180344D02*
X0281199Y0180344D01*
X0283551Y0181943D02*
X0276029Y0181943D01*
X0273551Y0181943D02*
X0273390Y0181943D01*
X0269790Y0181722D02*
X0269790Y0162350D01*
X0270338Y0161801D01*
X0269790Y0161253D01*
X0269790Y0153848D01*
X0267151Y0154768D02*
X0217980Y0154768D01*
X0217980Y0153170D02*
X0267000Y0153170D01*
X0267000Y0151571D02*
X0217980Y0151571D01*
X0219122Y0149972D02*
X0267000Y0149972D01*
X0267400Y0156367D02*
X0217980Y0156367D01*
X0217980Y0157965D02*
X0219189Y0157965D01*
X0219189Y0157828D02*
X0220121Y0156896D01*
X0225438Y0156896D01*
X0226348Y0157806D01*
X0226351Y0157791D01*
X0226588Y0157381D01*
X0226923Y0157046D01*
X0227334Y0156809D01*
X0227792Y0156686D01*
X0229829Y0156686D01*
X0229829Y0161286D01*
X0230229Y0161286D01*
X0230229Y0161686D01*
X0233829Y0161686D01*
X0233829Y0164723D01*
X0233706Y0165181D01*
X0233632Y0165309D01*
X0233817Y0165232D01*
X0235763Y0165232D01*
X0237560Y0165977D01*
X0238936Y0167352D01*
X0239680Y0169150D01*
X0239680Y0177695D01*
X0238936Y0179492D01*
X0237560Y0180868D01*
X0235763Y0181613D01*
X0233817Y0181613D01*
X0232020Y0180868D01*
X0230644Y0179492D01*
X0229900Y0177695D01*
X0229900Y0169150D01*
X0230644Y0167352D01*
X0231711Y0166286D01*
X0230229Y0166286D01*
X0230229Y0161686D01*
X0229829Y0161686D01*
X0229829Y0166286D01*
X0227870Y0166286D01*
X0228936Y0167352D01*
X0229680Y0169150D01*
X0229680Y0177695D01*
X0228936Y0179492D01*
X0227560Y0180868D01*
X0225763Y0181613D01*
X0223817Y0181613D01*
X0222020Y0180868D01*
X0220644Y0179492D01*
X0219900Y0177695D01*
X0219900Y0169150D01*
X0220389Y0167968D01*
X0220389Y0166076D01*
X0220121Y0166076D01*
X0219189Y0165145D01*
X0219189Y0157828D01*
X0219189Y0159564D02*
X0217980Y0159564D01*
X0217980Y0161162D02*
X0219189Y0161162D01*
X0219189Y0162761D02*
X0217980Y0162761D01*
X0217980Y0164359D02*
X0219189Y0164359D01*
X0220002Y0165958D02*
X0217980Y0165958D01*
X0219020Y0167556D02*
X0220389Y0167556D01*
X0219900Y0169155D02*
X0219680Y0169155D01*
X0219680Y0170753D02*
X0219900Y0170753D01*
X0219900Y0172352D02*
X0219680Y0172352D01*
X0219680Y0173950D02*
X0219900Y0173950D01*
X0219900Y0175549D02*
X0219680Y0175549D01*
X0219680Y0177147D02*
X0219900Y0177147D01*
X0220335Y0178746D02*
X0219245Y0178746D01*
X0218084Y0180344D02*
X0221496Y0180344D01*
X0220159Y0181354D02*
X0226708Y0181354D01*
X0229421Y0178641D01*
X0229421Y0168023D01*
X0230029Y0167415D01*
X0230029Y0161486D01*
X0230229Y0161286D02*
X0233829Y0161286D01*
X0233829Y0158249D01*
X0233706Y0157791D01*
X0233469Y0157381D01*
X0233134Y0157046D01*
X0232723Y0156809D01*
X0232266Y0156686D01*
X0230229Y0156686D01*
X0230229Y0161286D01*
X0230229Y0161162D02*
X0229829Y0161162D01*
X0229829Y0159564D02*
X0230229Y0159564D01*
X0230229Y0157965D02*
X0229829Y0157965D01*
X0233752Y0157965D02*
X0266926Y0157965D01*
X0266748Y0159564D02*
X0233829Y0159564D01*
X0233829Y0161162D02*
X0266748Y0161162D01*
X0266748Y0162761D02*
X0233829Y0162761D01*
X0233829Y0164359D02*
X0266748Y0164359D01*
X0262066Y0165958D02*
X0257514Y0165958D01*
X0257560Y0165977D02*
X0258936Y0167352D01*
X0259680Y0169150D01*
X0259680Y0177695D01*
X0258936Y0179492D01*
X0257560Y0180868D01*
X0255763Y0181613D01*
X0253817Y0181613D01*
X0252020Y0180868D01*
X0250644Y0179492D01*
X0249900Y0177695D01*
X0249900Y0169150D01*
X0250644Y0167352D01*
X0252020Y0165977D01*
X0253817Y0165232D01*
X0255763Y0165232D01*
X0257560Y0165977D01*
X0259020Y0167556D02*
X0260560Y0167556D01*
X0259900Y0169155D02*
X0259680Y0169155D01*
X0259680Y0170753D02*
X0259900Y0170753D01*
X0259900Y0172352D02*
X0259680Y0172352D01*
X0259680Y0173950D02*
X0259900Y0173950D01*
X0259900Y0175549D02*
X0259680Y0175549D01*
X0259680Y0177147D02*
X0259900Y0177147D01*
X0260335Y0178746D02*
X0259245Y0178746D01*
X0258084Y0180344D02*
X0261496Y0180344D01*
X0263551Y0181943D02*
X0256029Y0181943D01*
X0255763Y0181832D02*
X0257560Y0182577D01*
X0258936Y0183952D01*
X0259680Y0185750D01*
X0259680Y0194295D01*
X0258936Y0196092D01*
X0257560Y0197468D01*
X0255763Y0198213D01*
X0253817Y0198213D01*
X0252020Y0197468D01*
X0250644Y0196092D01*
X0249900Y0194295D01*
X0249900Y0185750D01*
X0250644Y0183952D01*
X0252020Y0182577D01*
X0253817Y0181832D01*
X0255763Y0181832D01*
X0253551Y0181943D02*
X0246029Y0181943D01*
X0245763Y0181832D02*
X0247560Y0182577D01*
X0248936Y0183952D01*
X0249680Y0185750D01*
X0249680Y0194295D01*
X0248936Y0196092D01*
X0247560Y0197468D01*
X0245763Y0198213D01*
X0243817Y0198213D01*
X0242020Y0197468D01*
X0240644Y0196092D01*
X0239900Y0194295D01*
X0239900Y0185750D01*
X0240644Y0183952D01*
X0242020Y0182577D01*
X0243817Y0181832D01*
X0245763Y0181832D01*
X0245763Y0181613D02*
X0243817Y0181613D01*
X0242020Y0180868D01*
X0240644Y0179492D01*
X0239900Y0177695D01*
X0239900Y0169150D01*
X0240644Y0167352D01*
X0242020Y0165977D01*
X0243817Y0165232D01*
X0245763Y0165232D01*
X0247560Y0165977D01*
X0248936Y0167352D01*
X0249680Y0169150D01*
X0249680Y0177695D01*
X0248936Y0179492D01*
X0247560Y0180868D01*
X0245763Y0181613D01*
X0243551Y0181943D02*
X0236029Y0181943D01*
X0235763Y0181832D02*
X0237560Y0182577D01*
X0238936Y0183952D01*
X0239680Y0185750D01*
X0239680Y0194295D01*
X0238936Y0196092D01*
X0237560Y0197468D01*
X0235763Y0198213D01*
X0233817Y0198213D01*
X0232020Y0197468D01*
X0230644Y0196092D01*
X0229900Y0194295D01*
X0229900Y0185750D01*
X0230644Y0183952D01*
X0232020Y0182577D01*
X0233817Y0181832D01*
X0235763Y0181832D01*
X0233551Y0181943D02*
X0226029Y0181943D01*
X0225763Y0181832D02*
X0227560Y0182577D01*
X0228936Y0183952D01*
X0229680Y0185750D01*
X0229680Y0194295D01*
X0228936Y0196092D01*
X0227560Y0197468D01*
X0225763Y0198213D01*
X0223817Y0198213D01*
X0222020Y0197468D01*
X0220644Y0196092D01*
X0219900Y0194295D01*
X0219900Y0185750D01*
X0220644Y0183952D01*
X0222020Y0182577D01*
X0223817Y0181832D01*
X0225763Y0181832D01*
X0223551Y0181943D02*
X0216583Y0181943D01*
X0216748Y0181996D02*
X0217463Y0182361D01*
X0218112Y0182832D01*
X0218680Y0183400D01*
X0219152Y0184049D01*
X0219516Y0184765D01*
X0219764Y0185528D01*
X0219890Y0186321D01*
X0219890Y0186540D01*
X0214973Y0186540D01*
X0214973Y0181622D01*
X0215191Y0181622D01*
X0215984Y0181748D01*
X0216748Y0181996D01*
X0214973Y0181943D02*
X0214608Y0181943D01*
X0214608Y0183541D02*
X0214973Y0183541D01*
X0214973Y0185140D02*
X0214608Y0185140D01*
X0214790Y0186722D02*
X0220159Y0181354D01*
X0221056Y0183541D02*
X0218783Y0183541D01*
X0219638Y0185140D02*
X0220153Y0185140D01*
X0219900Y0186738D02*
X0214973Y0186738D01*
X0214973Y0188337D02*
X0214608Y0188337D01*
X0214608Y0189935D02*
X0214973Y0189935D01*
X0214973Y0191534D02*
X0214608Y0191534D01*
X0214608Y0193132D02*
X0214973Y0193132D01*
X0214973Y0194731D02*
X0214608Y0194731D01*
X0214608Y0196329D02*
X0214973Y0196329D01*
X0214973Y0197928D02*
X0214608Y0197928D01*
X0212595Y0197928D02*
X0137359Y0197928D01*
X0135760Y0199526D02*
X0341828Y0199526D01*
X0341431Y0198568D02*
X0341431Y0195743D01*
X0342512Y0193134D01*
X0344509Y0191137D01*
X0347118Y0190056D01*
X0349942Y0190056D01*
X0352552Y0191137D01*
X0354549Y0193134D01*
X0355629Y0195743D01*
X0355629Y0198568D01*
X0354549Y0201177D01*
X0352552Y0203174D01*
X0349942Y0204255D01*
X0347118Y0204255D01*
X0344509Y0203174D01*
X0342512Y0201177D01*
X0341431Y0198568D01*
X0341431Y0197928D02*
X0286450Y0197928D01*
X0288699Y0196329D02*
X0341431Y0196329D01*
X0341850Y0194731D02*
X0289500Y0194731D01*
X0289680Y0193132D02*
X0342514Y0193132D01*
X0344112Y0191534D02*
X0289680Y0191534D01*
X0289680Y0189935D02*
X0360341Y0189935D01*
X0360341Y0188337D02*
X0334233Y0188337D01*
X0335832Y0186738D02*
X0360341Y0186738D01*
X0360341Y0185140D02*
X0337430Y0185140D01*
X0339029Y0183541D02*
X0360341Y0183541D01*
X0360341Y0181943D02*
X0340627Y0181943D01*
X0342226Y0180344D02*
X0360341Y0180344D01*
X0360341Y0178746D02*
X0343824Y0178746D01*
X0345423Y0177147D02*
X0360341Y0177147D01*
X0360341Y0175549D02*
X0347021Y0175549D01*
X0348530Y0170659D02*
X0332467Y0186722D01*
X0284790Y0186722D01*
X0279900Y0186738D02*
X0279680Y0186738D01*
X0279680Y0188337D02*
X0279900Y0188337D01*
X0279900Y0189935D02*
X0279680Y0189935D01*
X0279680Y0191534D02*
X0279900Y0191534D01*
X0279900Y0193132D02*
X0279680Y0193132D01*
X0279500Y0194731D02*
X0280080Y0194731D01*
X0280881Y0196329D02*
X0278699Y0196329D01*
X0276450Y0197928D02*
X0283130Y0197928D01*
X0273130Y0197928D02*
X0266450Y0197928D01*
X0268699Y0196329D02*
X0270881Y0196329D01*
X0270080Y0194731D02*
X0269500Y0194731D01*
X0269680Y0193132D02*
X0269900Y0193132D01*
X0269900Y0191534D02*
X0269680Y0191534D01*
X0269680Y0189935D02*
X0269900Y0189935D01*
X0269900Y0188337D02*
X0269680Y0188337D01*
X0269680Y0186738D02*
X0269900Y0186738D01*
X0269827Y0185140D02*
X0269427Y0185140D01*
X0269790Y0181722D02*
X0274790Y0186722D01*
X0279427Y0185140D02*
X0280153Y0185140D01*
X0281056Y0183541D02*
X0278525Y0183541D01*
X0267400Y0181943D02*
X0266029Y0181943D01*
X0261056Y0183541D02*
X0258525Y0183541D01*
X0259427Y0185140D02*
X0260153Y0185140D01*
X0259900Y0186738D02*
X0259680Y0186738D01*
X0259680Y0188337D02*
X0259900Y0188337D01*
X0259900Y0189935D02*
X0259680Y0189935D01*
X0259680Y0191534D02*
X0259900Y0191534D01*
X0259900Y0193132D02*
X0259680Y0193132D01*
X0259500Y0194731D02*
X0260080Y0194731D01*
X0260881Y0196329D02*
X0258699Y0196329D01*
X0256450Y0197928D02*
X0263130Y0197928D01*
X0253130Y0197928D02*
X0246450Y0197928D01*
X0248699Y0196329D02*
X0250881Y0196329D01*
X0250080Y0194731D02*
X0249500Y0194731D01*
X0249680Y0193132D02*
X0249900Y0193132D01*
X0249900Y0191534D02*
X0249680Y0191534D01*
X0249680Y0189935D02*
X0249900Y0189935D01*
X0249900Y0188337D02*
X0249680Y0188337D01*
X0249680Y0186738D02*
X0249900Y0186738D01*
X0250153Y0185140D02*
X0249427Y0185140D01*
X0248525Y0183541D02*
X0251056Y0183541D01*
X0251496Y0180344D02*
X0248084Y0180344D01*
X0249245Y0178746D02*
X0250335Y0178746D01*
X0249900Y0177147D02*
X0249680Y0177147D01*
X0249680Y0175549D02*
X0249900Y0175549D01*
X0249900Y0173950D02*
X0249680Y0173950D01*
X0249680Y0172352D02*
X0249900Y0172352D01*
X0249900Y0170753D02*
X0249680Y0170753D01*
X0249680Y0169155D02*
X0249900Y0169155D01*
X0250560Y0167556D02*
X0249020Y0167556D01*
X0247514Y0165958D02*
X0252066Y0165958D01*
X0242066Y0165958D02*
X0237514Y0165958D01*
X0239020Y0167556D02*
X0240560Y0167556D01*
X0239900Y0169155D02*
X0239680Y0169155D01*
X0239680Y0170753D02*
X0239900Y0170753D01*
X0239900Y0172352D02*
X0239680Y0172352D01*
X0239680Y0173950D02*
X0239900Y0173950D01*
X0239900Y0175549D02*
X0239680Y0175549D01*
X0239680Y0177147D02*
X0239900Y0177147D01*
X0240335Y0178746D02*
X0239245Y0178746D01*
X0238084Y0180344D02*
X0241496Y0180344D01*
X0241056Y0183541D02*
X0238525Y0183541D01*
X0239427Y0185140D02*
X0240153Y0185140D01*
X0239900Y0186738D02*
X0239680Y0186738D01*
X0239680Y0188337D02*
X0239900Y0188337D01*
X0239900Y0189935D02*
X0239680Y0189935D01*
X0239680Y0191534D02*
X0239900Y0191534D01*
X0239900Y0193132D02*
X0239680Y0193132D01*
X0239500Y0194731D02*
X0240080Y0194731D01*
X0240881Y0196329D02*
X0238699Y0196329D01*
X0236450Y0197928D02*
X0243130Y0197928D01*
X0233130Y0197928D02*
X0226450Y0197928D01*
X0228699Y0196329D02*
X0230881Y0196329D01*
X0230080Y0194731D02*
X0229500Y0194731D01*
X0229680Y0193132D02*
X0229900Y0193132D01*
X0229900Y0191534D02*
X0229680Y0191534D01*
X0229680Y0189935D02*
X0229900Y0189935D01*
X0229900Y0188337D02*
X0229680Y0188337D01*
X0229680Y0186738D02*
X0229900Y0186738D01*
X0230153Y0185140D02*
X0229427Y0185140D01*
X0228525Y0183541D02*
X0231056Y0183541D01*
X0231496Y0180344D02*
X0228084Y0180344D01*
X0229245Y0178746D02*
X0230335Y0178746D01*
X0229900Y0177147D02*
X0229680Y0177147D01*
X0229680Y0175549D02*
X0229900Y0175549D01*
X0229900Y0173950D02*
X0229680Y0173950D01*
X0229680Y0172352D02*
X0229900Y0172352D01*
X0229900Y0170753D02*
X0229680Y0170753D01*
X0229680Y0169155D02*
X0229900Y0169155D01*
X0230560Y0167556D02*
X0229020Y0167556D01*
X0229829Y0165958D02*
X0230229Y0165958D01*
X0230229Y0164359D02*
X0229829Y0164359D01*
X0229829Y0162761D02*
X0230229Y0162761D01*
X0226348Y0165167D02*
X0226130Y0165384D01*
X0226575Y0165569D01*
X0226351Y0165181D01*
X0226348Y0165167D01*
X0222779Y0161486D02*
X0222779Y0174712D01*
X0224790Y0176722D01*
X0214790Y0176722D02*
X0206089Y0185423D01*
X0206089Y0185578D01*
X0198530Y0185578D01*
X0187125Y0174172D01*
X0171444Y0174172D01*
X0166853Y0173950D02*
X0165042Y0173950D01*
X0165042Y0172352D02*
X0166853Y0172352D01*
X0167614Y0170753D02*
X0165042Y0170753D01*
X0165042Y0169174D02*
X0164110Y0168243D01*
X0154919Y0168243D01*
X0153987Y0169174D01*
X0153987Y0170395D01*
X0153450Y0170395D01*
X0151203Y0168148D01*
X0147590Y0168148D01*
X0145035Y0170703D01*
X0145035Y0174317D01*
X0147590Y0176872D01*
X0151203Y0176872D01*
X0152899Y0175176D01*
X0153987Y0175176D01*
X0153987Y0176397D01*
X0154919Y0177328D01*
X0164110Y0177328D01*
X0165042Y0176397D01*
X0165042Y0169174D01*
X0165022Y0169155D02*
X0209900Y0169155D01*
X0209900Y0170753D02*
X0175273Y0170753D01*
X0175718Y0177147D02*
X0186719Y0177147D01*
X0188318Y0178746D02*
X0151801Y0178746D01*
X0151203Y0178148D02*
X0153175Y0180120D01*
X0154853Y0180120D01*
X0154919Y0180054D01*
X0164110Y0180054D01*
X0165042Y0180985D01*
X0165042Y0182206D01*
X0166853Y0182206D01*
X0166853Y0179763D01*
X0167785Y0178831D01*
X0175102Y0178831D01*
X0176034Y0179763D01*
X0176034Y0185080D01*
X0175102Y0186012D01*
X0171234Y0186012D01*
X0170623Y0186623D01*
X0169744Y0186987D01*
X0165042Y0186987D01*
X0165042Y0188208D01*
X0164110Y0189139D01*
X0154919Y0189139D01*
X0153987Y0188208D01*
X0153987Y0184900D01*
X0153175Y0184900D01*
X0151203Y0186872D01*
X0148415Y0186872D01*
X0151336Y0186738D02*
X0153987Y0186738D01*
X0153987Y0185140D02*
X0152935Y0185140D01*
X0149396Y0182510D02*
X0130814Y0201093D01*
X0080814Y0201093D01*
X0076877Y0197156D01*
X0076877Y0165659D01*
X0081010Y0161526D01*
X0084898Y0161526D01*
X0084829Y0161457D01*
X0087979Y0161457D02*
X0087979Y0169596D01*
X0086365Y0171211D01*
X0086365Y0171919D01*
X0087979Y0173533D01*
X0087979Y0169596D01*
X0086365Y0171211D02*
X0083806Y0173770D01*
X0082467Y0173770D01*
X0079267Y0177016D02*
X0079267Y0196165D01*
X0081804Y0198702D01*
X0090791Y0198702D01*
X0085953Y0193864D01*
X0085589Y0192985D01*
X0085589Y0177095D01*
X0084355Y0178328D01*
X0080579Y0178328D01*
X0079267Y0177016D01*
X0079267Y0177147D02*
X0079398Y0177147D01*
X0079267Y0178746D02*
X0085589Y0178746D01*
X0085589Y0180344D02*
X0079267Y0180344D01*
X0079267Y0181943D02*
X0085589Y0181943D01*
X0085589Y0183541D02*
X0079267Y0183541D01*
X0079267Y0185140D02*
X0085589Y0185140D01*
X0085589Y0186738D02*
X0079267Y0186738D01*
X0079267Y0188337D02*
X0085589Y0188337D01*
X0085589Y0189935D02*
X0079267Y0189935D01*
X0079267Y0191534D02*
X0085589Y0191534D01*
X0085650Y0193132D02*
X0079267Y0193132D01*
X0079267Y0194731D02*
X0086820Y0194731D01*
X0088418Y0196329D02*
X0079431Y0196329D01*
X0081029Y0197928D02*
X0090017Y0197928D01*
X0092625Y0197156D02*
X0087979Y0192510D01*
X0087979Y0173533D01*
X0090369Y0173950D02*
X0091888Y0173950D01*
X0091888Y0172352D02*
X0090369Y0172352D01*
X0090369Y0170753D02*
X0091888Y0170753D01*
X0091888Y0169155D02*
X0090369Y0169155D01*
X0090369Y0167556D02*
X0091888Y0167556D01*
X0091888Y0165958D02*
X0090369Y0165958D01*
X0090369Y0165757D02*
X0090369Y0191520D01*
X0093615Y0194765D01*
X0114269Y0194765D01*
X0114239Y0194735D01*
X0114239Y0189418D01*
X0114939Y0188718D01*
X0114939Y0186514D01*
X0110614Y0186514D01*
X0109735Y0186150D01*
X0098472Y0174887D01*
X0096668Y0173083D01*
X0096668Y0177319D01*
X0099283Y0179934D01*
X0100927Y0179934D01*
X0102467Y0180572D01*
X0103645Y0181750D01*
X0104283Y0183291D01*
X0104283Y0184784D01*
X0106332Y0186833D01*
X0108701Y0186833D01*
X0109632Y0187765D01*
X0109632Y0193082D01*
X0108701Y0194013D01*
X0104383Y0194013D01*
X0103452Y0193082D01*
X0103452Y0190713D01*
X0102952Y0190214D01*
X0102952Y0190423D01*
X0099652Y0190423D01*
X0096352Y0190423D01*
X0096352Y0188186D01*
X0096475Y0187728D01*
X0096712Y0187318D01*
X0097037Y0186993D01*
X0096541Y0186498D01*
X0095903Y0184957D01*
X0095903Y0183314D01*
X0092924Y0180335D01*
X0092252Y0179663D01*
X0091888Y0178784D01*
X0091888Y0165757D01*
X0091129Y0165757D01*
X0091129Y0161457D01*
X0091129Y0157157D01*
X0091129Y0161457D01*
X0091129Y0161457D01*
X0091129Y0161457D01*
X0091197Y0161389D01*
X0091197Y0181968D01*
X0099652Y0190423D01*
X0099652Y0190423D01*
X0096352Y0190423D01*
X0096352Y0192660D01*
X0096475Y0193118D01*
X0096712Y0193528D01*
X0097047Y0193864D01*
X0097457Y0194101D01*
X0097915Y0194223D01*
X0099652Y0194223D01*
X0099652Y0190423D01*
X0099652Y0190423D01*
X0099652Y0190423D01*
X0099652Y0194223D01*
X0101389Y0194223D01*
X0101847Y0194101D01*
X0102257Y0193864D01*
X0102593Y0193528D01*
X0102830Y0193118D01*
X0102952Y0192660D01*
X0102952Y0190423D01*
X0099652Y0190423D01*
X0099652Y0191534D02*
X0099652Y0191534D01*
X0099652Y0193132D02*
X0099652Y0193132D01*
X0096483Y0193132D02*
X0091982Y0193132D01*
X0093580Y0194731D02*
X0114239Y0194731D01*
X0114239Y0193132D02*
X0109582Y0193132D01*
X0109632Y0191534D02*
X0114239Y0191534D01*
X0114239Y0189935D02*
X0109632Y0189935D01*
X0109632Y0188337D02*
X0114939Y0188337D01*
X0114939Y0186738D02*
X0106237Y0186738D01*
X0104639Y0185140D02*
X0108725Y0185140D01*
X0107126Y0183541D02*
X0104283Y0183541D01*
X0103725Y0181943D02*
X0105528Y0181943D01*
X0103929Y0180344D02*
X0101917Y0180344D01*
X0102331Y0178746D02*
X0098095Y0178746D01*
X0096668Y0177147D02*
X0100732Y0177147D01*
X0099134Y0175549D02*
X0096668Y0175549D01*
X0096668Y0173950D02*
X0097535Y0173950D01*
X0100499Y0173533D02*
X0111089Y0184124D01*
X0119093Y0184124D01*
X0117329Y0185888D01*
X0117329Y0192077D01*
X0120420Y0191534D02*
X0120919Y0191534D01*
X0120919Y0192077D02*
X0120919Y0189840D01*
X0121042Y0189382D01*
X0121279Y0188972D01*
X0121614Y0188636D01*
X0122024Y0188399D01*
X0122482Y0188277D01*
X0124219Y0188277D01*
X0124219Y0192077D01*
X0120919Y0192077D01*
X0120919Y0193132D02*
X0120420Y0193132D01*
X0120420Y0194731D02*
X0121031Y0194731D01*
X0124219Y0192077D02*
X0124219Y0192077D01*
X0127519Y0192077D01*
X0127519Y0194314D01*
X0129605Y0192228D01*
X0129605Y0186089D01*
X0128346Y0184831D01*
X0124478Y0184831D01*
X0123546Y0183899D01*
X0123546Y0178582D01*
X0124478Y0177650D01*
X0131795Y0177650D01*
X0132727Y0178582D01*
X0132727Y0182451D01*
X0133349Y0183073D01*
X0134021Y0183745D01*
X0134385Y0184623D01*
X0134385Y0193694D01*
X0134069Y0194457D01*
X0145035Y0183491D01*
X0145035Y0180703D01*
X0147590Y0178148D01*
X0151203Y0178148D01*
X0152526Y0175549D02*
X0153987Y0175549D01*
X0154738Y0177147D02*
X0119179Y0177147D01*
X0119178Y0177149D02*
X0118941Y0177560D01*
X0118606Y0177895D01*
X0118196Y0178132D01*
X0117738Y0178255D01*
X0115701Y0178255D01*
X0115701Y0173655D01*
X0119301Y0173655D01*
X0119301Y0176692D01*
X0119178Y0177149D01*
X0119301Y0175549D02*
X0123546Y0175549D01*
X0123546Y0173950D02*
X0119301Y0173950D01*
X0119301Y0173255D02*
X0115701Y0173255D01*
X0115701Y0168655D01*
X0117738Y0168655D01*
X0118196Y0168777D01*
X0118606Y0169014D01*
X0118941Y0169349D01*
X0119178Y0169760D01*
X0119301Y0170218D01*
X0119301Y0173255D01*
X0119301Y0172352D02*
X0123546Y0172352D01*
X0122518Y0170753D02*
X0119301Y0170753D01*
X0118747Y0169155D02*
X0120920Y0169155D01*
X0119321Y0167556D02*
X0105733Y0167556D01*
X0107491Y0168474D02*
X0111072Y0168474D01*
X0115501Y0172902D01*
X0115301Y0172352D02*
X0115701Y0172352D01*
X0115701Y0173950D02*
X0115301Y0173950D01*
X0115301Y0175549D02*
X0115701Y0175549D01*
X0115701Y0177147D02*
X0115301Y0177147D01*
X0111823Y0177147D02*
X0111808Y0177147D01*
X0109091Y0178746D02*
X0123546Y0178746D01*
X0123546Y0180344D02*
X0120917Y0180344D01*
X0122725Y0181943D02*
X0123546Y0181943D01*
X0123546Y0183541D02*
X0123283Y0183541D01*
X0123208Y0185140D02*
X0128655Y0185140D01*
X0129605Y0186738D02*
X0122405Y0186738D01*
X0122258Y0188337D02*
X0119720Y0188337D01*
X0120420Y0189935D02*
X0120919Y0189935D01*
X0124219Y0189935D02*
X0124219Y0189935D01*
X0124219Y0188337D02*
X0124219Y0188337D01*
X0124219Y0188277D02*
X0125956Y0188277D01*
X0126414Y0188399D01*
X0126824Y0188636D01*
X0127160Y0188972D01*
X0127396Y0189382D01*
X0127519Y0189840D01*
X0127519Y0192077D01*
X0124219Y0192077D01*
X0124219Y0192077D01*
X0124219Y0188277D01*
X0126180Y0188337D02*
X0129605Y0188337D01*
X0129605Y0189935D02*
X0127519Y0189935D01*
X0127519Y0191534D02*
X0129605Y0191534D01*
X0128701Y0193132D02*
X0127519Y0193132D01*
X0127519Y0194314D02*
X0127519Y0194314D01*
X0128058Y0197156D02*
X0092625Y0197156D01*
X0090383Y0191534D02*
X0096352Y0191534D01*
X0096352Y0189935D02*
X0090369Y0189935D01*
X0090369Y0188337D02*
X0096352Y0188337D01*
X0096782Y0186738D02*
X0090369Y0186738D01*
X0090369Y0185140D02*
X0095979Y0185140D01*
X0095903Y0183541D02*
X0090369Y0183541D01*
X0090369Y0181943D02*
X0094532Y0181943D01*
X0092933Y0180344D02*
X0090369Y0180344D01*
X0090369Y0178746D02*
X0091888Y0178746D01*
X0091888Y0177147D02*
X0090369Y0177147D01*
X0090369Y0175549D02*
X0091888Y0175549D01*
X0094278Y0178309D02*
X0094278Y0161457D01*
X0091197Y0161389D02*
X0091197Y0158136D01*
X0095485Y0153848D01*
X0100499Y0153848D01*
X0103727Y0157077D01*
X0103727Y0161457D01*
X0103796Y0161526D01*
X0103796Y0164778D01*
X0107491Y0168474D01*
X0111201Y0169155D02*
X0112256Y0169155D01*
X0115301Y0169155D02*
X0115701Y0169155D01*
X0115701Y0170753D02*
X0115301Y0170753D01*
X0108252Y0173455D02*
X0100577Y0165780D01*
X0100577Y0161457D01*
X0097428Y0161457D02*
X0097428Y0170463D01*
X0100499Y0173533D01*
X0101853Y0171507D02*
X0104662Y0174316D01*
X0104662Y0173245D01*
X0099818Y0168401D01*
X0099818Y0169473D01*
X0101853Y0171507D01*
X0102170Y0170753D02*
X0101099Y0170753D01*
X0100572Y0169155D02*
X0099818Y0169155D01*
X0102697Y0172352D02*
X0103769Y0172352D01*
X0104296Y0173950D02*
X0104662Y0173950D01*
X0100093Y0184124D02*
X0094278Y0178309D01*
X0100093Y0184124D02*
X0100243Y0184124D01*
X0106542Y0190423D01*
X0103452Y0191534D02*
X0102952Y0191534D01*
X0102821Y0193132D02*
X0103502Y0193132D01*
X0124219Y0191534D02*
X0124219Y0191534D01*
X0128058Y0197156D02*
X0131995Y0193219D01*
X0131995Y0185099D01*
X0128136Y0181241D01*
X0132727Y0181943D02*
X0145035Y0181943D01*
X0144985Y0183541D02*
X0133817Y0183541D01*
X0133349Y0183073D02*
X0133349Y0183073D01*
X0134385Y0185140D02*
X0143386Y0185140D01*
X0141788Y0186738D02*
X0134385Y0186738D01*
X0134385Y0188337D02*
X0140189Y0188337D01*
X0138591Y0189935D02*
X0134385Y0189935D01*
X0134385Y0191534D02*
X0136992Y0191534D01*
X0135394Y0193132D02*
X0134385Y0193132D01*
X0134161Y0201125D02*
X0342490Y0201125D01*
X0344058Y0202723D02*
X0132563Y0202723D01*
X0153758Y0191534D02*
X0193415Y0191534D01*
X0193876Y0189935D02*
X0152990Y0189935D01*
X0154116Y0188337D02*
X0151392Y0188337D01*
X0157428Y0182510D02*
X0159514Y0184596D01*
X0169269Y0184596D01*
X0171444Y0182422D01*
X0176034Y0181943D02*
X0191515Y0181943D01*
X0193113Y0183541D02*
X0176034Y0183541D01*
X0175974Y0185140D02*
X0193625Y0185140D01*
X0193625Y0186738D02*
X0170344Y0186738D01*
X0164913Y0188337D02*
X0193625Y0188337D01*
X0198215Y0185893D02*
X0198530Y0185578D01*
X0202310Y0189047D02*
X0201896Y0189461D01*
X0201907Y0189464D01*
X0201984Y0189387D01*
X0202394Y0189150D01*
X0202409Y0189146D01*
X0202310Y0189047D01*
X0206289Y0192627D02*
X0206289Y0193027D01*
X0209690Y0193027D01*
X0209690Y0192627D01*
X0206289Y0192627D01*
X0206289Y0193132D02*
X0205889Y0193132D01*
X0205889Y0194731D02*
X0206289Y0194731D01*
X0206289Y0196329D02*
X0205889Y0196329D01*
X0210087Y0196329D02*
X0210671Y0196329D01*
X0216985Y0197928D02*
X0223130Y0197928D01*
X0220881Y0196329D02*
X0218909Y0196329D01*
X0219695Y0194731D02*
X0220080Y0194731D01*
X0219900Y0193132D02*
X0219890Y0193132D01*
X0219890Y0191534D02*
X0219900Y0191534D01*
X0219890Y0189935D02*
X0219900Y0189935D01*
X0219890Y0188337D02*
X0219900Y0188337D01*
X0212997Y0181943D02*
X0212950Y0181943D01*
X0209387Y0178746D02*
X0195078Y0178746D01*
X0196677Y0180344D02*
X0207788Y0180344D01*
X0206190Y0181943D02*
X0198275Y0181943D01*
X0193480Y0177147D02*
X0209900Y0177147D01*
X0209900Y0175549D02*
X0191881Y0175549D01*
X0190283Y0173950D02*
X0209900Y0173950D01*
X0209900Y0172352D02*
X0188684Y0172352D01*
X0203071Y0162510D02*
X0209579Y0156002D01*
X0209579Y0107443D01*
X0210811Y0106211D01*
X0210811Y0098730D01*
X0206671Y0094590D01*
X0206671Y0094535D01*
X0203859Y0091722D01*
X0192746Y0091722D01*
X0192321Y0091722D01*
X0187321Y0086722D01*
X0184790Y0086722D01*
X0184973Y0086540D02*
X0188696Y0086540D01*
X0189061Y0086905D01*
X0184973Y0086905D01*
X0184973Y0086540D01*
X0184973Y0086905D02*
X0184608Y0086905D01*
X0184608Y0091822D01*
X0177789Y0091822D01*
X0176996Y0091697D01*
X0176232Y0091449D01*
X0175517Y0091084D01*
X0175299Y0090926D01*
X0175299Y0092698D01*
X0175420Y0092577D01*
X0177217Y0091832D01*
X0185763Y0091832D01*
X0187560Y0092577D01*
X0188936Y0093952D01*
X0189680Y0095750D01*
X0189680Y0097695D01*
X0188936Y0099492D01*
X0187560Y0100868D01*
X0185763Y0101613D01*
X0177217Y0101613D01*
X0175420Y0100868D01*
X0174044Y0099492D01*
X0173300Y0097695D01*
X0173300Y0097370D01*
X0157424Y0113246D01*
X0156251Y0113731D01*
X0107337Y0113731D01*
X0107622Y0113896D01*
X0107957Y0114231D01*
X0108194Y0114642D01*
X0108317Y0115100D01*
X0108317Y0118137D01*
X0104717Y0118137D01*
X0104717Y0118537D01*
X0104317Y0118537D01*
X0104317Y0123137D01*
X0102280Y0123137D01*
X0101822Y0123014D01*
X0101412Y0122777D01*
X0101076Y0122442D01*
X0100839Y0122031D01*
X0100836Y0122017D01*
X0099926Y0122927D01*
X0096668Y0122927D01*
X0096668Y0123567D01*
X0108635Y0123567D01*
X0109567Y0124498D01*
X0109567Y0125267D01*
X0125767Y0125267D01*
X0126646Y0125631D01*
X0135634Y0134619D01*
X0138179Y0134619D01*
X0140634Y0137073D01*
X0140634Y0140545D01*
X0138179Y0142999D01*
X0136337Y0142999D01*
X0140859Y0147521D01*
X0150690Y0147521D01*
X0161101Y0137110D01*
X0161101Y0117940D01*
X0161465Y0117061D01*
X0173157Y0105369D01*
X0173157Y0105369D01*
X0173670Y0104856D01*
X0174044Y0103952D01*
X0175420Y0102577D01*
X0177217Y0101832D01*
X0185763Y0101832D01*
X0187560Y0102577D01*
X0188936Y0103952D01*
X0189680Y0105750D01*
X0189680Y0107695D01*
X0188936Y0109492D01*
X0187560Y0110868D01*
X0185763Y0111613D01*
X0177217Y0111613D01*
X0175420Y0110868D01*
X0174919Y0110367D01*
X0165881Y0119405D01*
X0165881Y0124456D01*
X0166074Y0124263D01*
X0170522Y0119815D01*
X0171400Y0119451D01*
X0174027Y0119451D01*
X0173300Y0117695D01*
X0173300Y0115750D01*
X0174044Y0113952D01*
X0175420Y0112577D01*
X0177217Y0111832D01*
X0185763Y0111832D01*
X0187560Y0112577D01*
X0188936Y0113952D01*
X0189680Y0115750D01*
X0189680Y0117695D01*
X0189145Y0118987D01*
X0190057Y0118075D01*
X0189900Y0117695D01*
X0189900Y0115750D01*
X0190644Y0113952D01*
X0192020Y0112577D01*
X0193817Y0111832D01*
X0202363Y0111832D01*
X0204160Y0112577D01*
X0204408Y0112824D01*
X0204408Y0110620D01*
X0204160Y0110868D01*
X0202363Y0111613D01*
X0193817Y0111613D01*
X0192020Y0110868D01*
X0190644Y0109492D01*
X0189900Y0107695D01*
X0189900Y0105750D01*
X0190644Y0103952D01*
X0192020Y0102577D01*
X0193817Y0101832D01*
X0196520Y0101832D01*
X0196300Y0101613D01*
X0193817Y0101613D01*
X0192020Y0100868D01*
X0190644Y0099492D01*
X0189900Y0097695D01*
X0189900Y0095750D01*
X0190644Y0093952D01*
X0192020Y0092577D01*
X0193817Y0091832D01*
X0202363Y0091832D01*
X0204160Y0092577D01*
X0205536Y0093952D01*
X0206280Y0095750D01*
X0206280Y0097695D01*
X0205536Y0099492D01*
X0205272Y0099756D01*
X0207496Y0101980D01*
X0207706Y0101770D01*
X0208116Y0101533D01*
X0208574Y0101411D01*
X0210611Y0101411D01*
X0210611Y0106011D01*
X0211011Y0106011D01*
X0211011Y0101411D01*
X0213048Y0101411D01*
X0213506Y0101533D01*
X0213916Y0101770D01*
X0214252Y0102105D01*
X0214489Y0102516D01*
X0214492Y0102530D01*
X0215159Y0101863D01*
X0214124Y0101435D01*
X0203734Y0091045D01*
X0202363Y0091613D01*
X0193817Y0091613D01*
X0192020Y0090868D01*
X0190644Y0089492D01*
X0189934Y0087778D01*
X0189807Y0087651D01*
X0189764Y0087917D01*
X0189516Y0088680D01*
X0189152Y0089395D01*
X0188680Y0090045D01*
X0188112Y0090612D01*
X0187463Y0091084D01*
X0186748Y0091449D01*
X0185984Y0091697D01*
X0185191Y0091822D01*
X0184973Y0091822D01*
X0184973Y0086905D01*
X0184973Y0087631D02*
X0184608Y0087631D01*
X0184608Y0089229D02*
X0184973Y0089229D01*
X0184973Y0090828D02*
X0184608Y0090828D01*
X0187196Y0092426D02*
X0192384Y0092426D01*
X0192746Y0091722D02*
X0189771Y0094697D01*
X0189771Y0098786D01*
X0186853Y0101704D01*
X0176165Y0101704D01*
X0154231Y0123637D01*
X0150396Y0123637D01*
X0156907Y0130148D01*
X0157107Y0130348D02*
X0160707Y0130348D01*
X0160707Y0133385D01*
X0160584Y0133842D01*
X0160347Y0134253D01*
X0160012Y0134588D01*
X0159601Y0134825D01*
X0159144Y0134948D01*
X0157107Y0134948D01*
X0157107Y0130348D01*
X0157107Y0129948D01*
X0160707Y0129948D01*
X0160707Y0126911D01*
X0160584Y0126453D01*
X0160347Y0126042D01*
X0160012Y0125707D01*
X0159601Y0125470D01*
X0159144Y0125348D01*
X0157107Y0125348D01*
X0157107Y0129948D01*
X0156707Y0129948D01*
X0156707Y0125348D01*
X0154670Y0125348D01*
X0154212Y0125470D01*
X0153801Y0125707D01*
X0153466Y0126042D01*
X0153229Y0126453D01*
X0153107Y0126911D01*
X0153107Y0129948D01*
X0156706Y0129948D01*
X0156706Y0130348D01*
X0153107Y0130348D01*
X0153107Y0133385D01*
X0153229Y0133842D01*
X0153466Y0134253D01*
X0153801Y0134588D01*
X0154212Y0134825D01*
X0154670Y0134948D01*
X0156707Y0134948D01*
X0156707Y0130348D01*
X0157107Y0130348D01*
X0157107Y0130790D02*
X0156707Y0130790D01*
X0156707Y0129192D02*
X0157107Y0129192D01*
X0157107Y0127593D02*
X0156707Y0127593D01*
X0156707Y0125995D02*
X0157107Y0125995D01*
X0160299Y0125995D02*
X0161101Y0125995D01*
X0161101Y0127593D02*
X0160707Y0127593D01*
X0160707Y0129192D02*
X0161101Y0129192D01*
X0161101Y0130790D02*
X0160707Y0130790D01*
X0160707Y0132389D02*
X0161101Y0132389D01*
X0161101Y0133987D02*
X0160500Y0133987D01*
X0161101Y0135586D02*
X0151047Y0135586D01*
X0151047Y0134738D02*
X0151047Y0137071D01*
X0150684Y0137949D01*
X0150634Y0137999D01*
X0150634Y0140545D01*
X0148179Y0142999D01*
X0144708Y0142999D01*
X0142253Y0140545D01*
X0142253Y0137073D01*
X0144708Y0134619D01*
X0145880Y0134619D01*
X0145067Y0133806D01*
X0145067Y0126489D01*
X0145999Y0125557D01*
X0151316Y0125557D01*
X0152247Y0126489D01*
X0152247Y0133806D01*
X0151316Y0134738D01*
X0151047Y0134738D01*
X0152066Y0133987D02*
X0153313Y0133987D01*
X0153107Y0132389D02*
X0152247Y0132389D01*
X0152247Y0130790D02*
X0153107Y0130790D01*
X0153107Y0129192D02*
X0152247Y0129192D01*
X0152247Y0127593D02*
X0153107Y0127593D01*
X0153514Y0125995D02*
X0151753Y0125995D01*
X0150396Y0123637D02*
X0145096Y0118337D01*
X0104517Y0118337D01*
X0104717Y0118537D02*
X0104717Y0123137D01*
X0106754Y0123137D01*
X0107212Y0123014D01*
X0107622Y0122777D01*
X0107957Y0122442D01*
X0108194Y0122031D01*
X0108317Y0121574D01*
X0108317Y0118537D01*
X0104717Y0118537D01*
X0104717Y0119601D02*
X0104317Y0119601D01*
X0104317Y0121199D02*
X0104717Y0121199D01*
X0104717Y0122798D02*
X0104317Y0122798D01*
X0101448Y0122798D02*
X0100055Y0122798D01*
X0097268Y0118337D02*
X0094278Y0121326D01*
X0094278Y0127657D01*
X0094347Y0127726D01*
X0094347Y0130978D01*
X0106877Y0143508D01*
X0106877Y0161457D01*
X0107063Y0161644D01*
X0117701Y0161644D01*
X0117701Y0162556D01*
X0128136Y0172991D01*
X0132727Y0172352D02*
X0145035Y0172352D01*
X0145035Y0173950D02*
X0132727Y0173950D01*
X0132727Y0175549D02*
X0146267Y0175549D01*
X0146992Y0178746D02*
X0132727Y0178746D01*
X0132727Y0180344D02*
X0145393Y0180344D01*
X0149396Y0182510D02*
X0157428Y0182510D01*
X0164401Y0180344D02*
X0166853Y0180344D01*
X0166853Y0181943D02*
X0165042Y0181943D01*
X0164291Y0177147D02*
X0167169Y0177147D01*
X0166853Y0175549D02*
X0165042Y0175549D01*
X0159514Y0172785D02*
X0149672Y0172785D01*
X0149396Y0172510D01*
X0146583Y0169155D02*
X0127680Y0169155D01*
X0126081Y0167556D02*
X0210560Y0167556D01*
X0211600Y0165958D02*
X0152414Y0165958D01*
X0151290Y0167081D02*
X0149482Y0167081D01*
X0149482Y0162596D01*
X0153968Y0162596D01*
X0153968Y0164403D01*
X0151290Y0167081D01*
X0149310Y0167081D02*
X0149310Y0162596D01*
X0144825Y0162596D01*
X0144825Y0164403D01*
X0147503Y0167081D01*
X0149310Y0167081D01*
X0149310Y0165958D02*
X0149482Y0165958D01*
X0149482Y0164359D02*
X0149310Y0164359D01*
X0149310Y0162761D02*
X0149482Y0162761D01*
X0149396Y0162510D02*
X0203071Y0162510D01*
X0202363Y0161613D02*
X0204160Y0160868D01*
X0205536Y0159492D01*
X0206280Y0157695D01*
X0206280Y0155750D01*
X0205536Y0153952D01*
X0204160Y0152577D01*
X0202363Y0151832D01*
X0193817Y0151832D01*
X0192020Y0152577D01*
X0190644Y0153952D01*
X0189900Y0155750D01*
X0189900Y0157695D01*
X0190644Y0159492D01*
X0192020Y0160868D01*
X0193817Y0161613D01*
X0202363Y0161613D01*
X0203450Y0161162D02*
X0211600Y0161162D01*
X0211600Y0159564D02*
X0205465Y0159564D01*
X0206168Y0157965D02*
X0211600Y0157965D01*
X0211600Y0156367D02*
X0206280Y0156367D01*
X0205874Y0154768D02*
X0211600Y0154768D01*
X0211600Y0153170D02*
X0204753Y0153170D01*
X0204160Y0150868D02*
X0202363Y0151613D01*
X0193817Y0151613D01*
X0192020Y0150868D01*
X0190644Y0149492D01*
X0189900Y0147695D01*
X0189900Y0145750D01*
X0190644Y0143952D01*
X0192020Y0142577D01*
X0193817Y0141832D01*
X0202363Y0141832D01*
X0204160Y0142577D01*
X0205536Y0143952D01*
X0206280Y0145750D01*
X0206280Y0147695D01*
X0205536Y0149492D01*
X0204160Y0150868D01*
X0205056Y0149972D02*
X0211600Y0149972D01*
X0211600Y0151571D02*
X0202463Y0151571D01*
X0205999Y0148374D02*
X0211925Y0148374D01*
X0213296Y0146775D02*
X0206280Y0146775D01*
X0206043Y0145177D02*
X0214895Y0145177D01*
X0216493Y0143578D02*
X0205162Y0143578D01*
X0202719Y0141980D02*
X0218092Y0141980D01*
X0219690Y0140381D02*
X0204647Y0140381D01*
X0205830Y0138783D02*
X0221289Y0138783D01*
X0222887Y0137184D02*
X0206280Y0137184D01*
X0206212Y0135586D02*
X0224486Y0135586D01*
X0226084Y0133987D02*
X0206053Y0133987D01*
X0205321Y0131704D02*
X0202861Y0131704D01*
X0173825Y0131704D01*
X0171365Y0134163D01*
X0171365Y0145974D01*
X0159582Y0157757D01*
X0147428Y0157757D01*
X0147399Y0157785D01*
X0139869Y0157785D01*
X0121916Y0139833D01*
X0112753Y0139833D01*
X0108663Y0140381D02*
X0107131Y0140381D01*
X0108663Y0141914D02*
X0108663Y0131775D01*
X0109594Y0130843D01*
X0115912Y0130843D01*
X0116212Y0131143D01*
X0123966Y0131143D01*
X0124845Y0131507D01*
X0132253Y0138916D01*
X0132253Y0137999D01*
X0124302Y0130047D01*
X0109567Y0130047D01*
X0109567Y0130816D01*
X0108635Y0131747D01*
X0098496Y0131747D01*
X0108663Y0141914D01*
X0108663Y0138783D02*
X0105532Y0138783D01*
X0103934Y0137184D02*
X0108663Y0137184D01*
X0108663Y0135586D02*
X0102335Y0135586D01*
X0100737Y0133987D02*
X0108663Y0133987D01*
X0108663Y0132389D02*
X0099138Y0132389D01*
X0095575Y0135586D02*
X0083043Y0135586D01*
X0083043Y0137184D02*
X0097173Y0137184D01*
X0098772Y0138783D02*
X0083043Y0138783D01*
X0083043Y0140381D02*
X0100370Y0140381D01*
X0101969Y0141980D02*
X0083043Y0141980D01*
X0083043Y0143578D02*
X0103567Y0143578D01*
X0104486Y0145177D02*
X0083043Y0145177D01*
X0083043Y0146775D02*
X0104486Y0146775D01*
X0104486Y0148374D02*
X0083043Y0148374D01*
X0083043Y0149972D02*
X0104486Y0149972D01*
X0104486Y0151571D02*
X0083043Y0151571D01*
X0083043Y0153170D02*
X0104486Y0153170D01*
X0104486Y0154768D02*
X0083043Y0154768D01*
X0083043Y0156367D02*
X0104486Y0156367D01*
X0103727Y0157965D02*
X0103727Y0157965D01*
X0103727Y0159564D02*
X0103727Y0159564D01*
X0103727Y0161162D02*
X0103727Y0161162D01*
X0109567Y0159254D02*
X0114110Y0159254D01*
X0114110Y0158271D01*
X0109594Y0158271D01*
X0109267Y0157943D01*
X0109267Y0157998D01*
X0109567Y0158298D01*
X0109567Y0159254D01*
X0109289Y0157965D02*
X0109267Y0157965D01*
X0109567Y0164359D02*
X0114110Y0164359D01*
X0114766Y0165958D02*
X0104135Y0165958D01*
X0091129Y0165757D02*
X0091129Y0161457D01*
X0091129Y0161162D02*
X0091129Y0161162D01*
X0091129Y0159564D02*
X0091129Y0159564D01*
X0091129Y0157965D02*
X0091129Y0157965D01*
X0083043Y0157339D02*
X0082112Y0158271D01*
X0075794Y0158271D01*
X0074863Y0157339D01*
X0074863Y0151672D01*
X0071834Y0151672D01*
X0070956Y0151308D01*
X0069194Y0149546D01*
X0066363Y0149546D01*
X0065431Y0148614D01*
X0065431Y0143335D01*
X0066363Y0142403D01*
X0071642Y0142403D01*
X0072574Y0143335D01*
X0072574Y0146165D01*
X0073300Y0146891D01*
X0074863Y0146891D01*
X0074863Y0131775D01*
X0075794Y0130843D01*
X0082112Y0130843D01*
X0083043Y0131775D01*
X0083043Y0157339D01*
X0082473Y0157965D02*
X0082417Y0157965D01*
X0079592Y0159564D02*
X0053873Y0159564D01*
X0053873Y0161162D02*
X0077994Y0161162D01*
X0076395Y0162761D02*
X0053873Y0162761D01*
X0053873Y0164359D02*
X0074828Y0164359D01*
X0074486Y0165958D02*
X0053873Y0165958D01*
X0053873Y0167556D02*
X0074486Y0167556D01*
X0074486Y0169155D02*
X0053873Y0169155D01*
X0053873Y0170753D02*
X0074486Y0170753D01*
X0074486Y0172352D02*
X0053873Y0172352D01*
X0053873Y0173950D02*
X0074486Y0173950D01*
X0074486Y0175549D02*
X0073818Y0175549D01*
X0079267Y0170523D02*
X0079267Y0166649D01*
X0082001Y0163916D01*
X0082139Y0163916D01*
X0082139Y0164616D01*
X0083071Y0165547D01*
X0085589Y0165547D01*
X0085589Y0168606D01*
X0084670Y0169525D01*
X0084355Y0169211D01*
X0080579Y0169211D01*
X0079267Y0170523D01*
X0079267Y0169155D02*
X0085041Y0169155D01*
X0085589Y0167556D02*
X0079267Y0167556D01*
X0079959Y0165958D02*
X0085589Y0165958D01*
X0082139Y0164359D02*
X0081557Y0164359D01*
X0075489Y0157965D02*
X0053873Y0157965D01*
X0053873Y0156367D02*
X0074863Y0156367D01*
X0074863Y0154768D02*
X0053873Y0154768D01*
X0053873Y0153170D02*
X0074863Y0153170D01*
X0071591Y0151571D02*
X0054975Y0151571D01*
X0056574Y0149972D02*
X0069620Y0149972D01*
X0072310Y0149281D02*
X0069003Y0145974D01*
X0072574Y0145177D02*
X0074863Y0145177D01*
X0074863Y0146775D02*
X0073184Y0146775D01*
X0072310Y0149281D02*
X0078953Y0149281D01*
X0074863Y0143578D02*
X0072574Y0143578D01*
X0074863Y0141980D02*
X0064566Y0141980D01*
X0065431Y0143578D02*
X0062968Y0143578D01*
X0061369Y0145177D02*
X0065431Y0145177D01*
X0065431Y0146775D02*
X0059771Y0146775D01*
X0058172Y0148374D02*
X0065431Y0148374D01*
X0066165Y0140381D02*
X0074863Y0140381D01*
X0074863Y0138783D02*
X0067763Y0138783D01*
X0069362Y0137184D02*
X0074863Y0137184D01*
X0074863Y0135586D02*
X0070960Y0135586D01*
X0072559Y0133987D02*
X0074863Y0133987D01*
X0074863Y0132389D02*
X0074157Y0132389D01*
X0075756Y0130790D02*
X0082139Y0130790D01*
X0083043Y0132389D02*
X0092378Y0132389D01*
X0093976Y0133987D02*
X0083043Y0133987D01*
X0071453Y0124396D02*
X0066144Y0124396D01*
X0066144Y0122872D02*
X0066144Y0129705D01*
X0074243Y0121605D01*
X0067411Y0121605D01*
X0066144Y0122872D01*
X0066218Y0122798D02*
X0073051Y0122798D01*
X0069854Y0125995D02*
X0066144Y0125995D01*
X0066144Y0127593D02*
X0068255Y0127593D01*
X0066657Y0129192D02*
X0066144Y0129192D01*
X0079018Y0120786D02*
X0087225Y0120786D01*
X0088104Y0121150D01*
X0088776Y0121822D01*
X0089264Y0122310D01*
X0089937Y0122983D01*
X0090179Y0123567D01*
X0091888Y0123567D01*
X0091888Y0120851D01*
X0092252Y0119972D01*
X0093677Y0118547D01*
X0093677Y0114678D01*
X0094609Y0113746D01*
X0094877Y0113746D01*
X0094877Y0113731D01*
X0086072Y0113731D01*
X0079581Y0120222D01*
X0079581Y0120222D01*
X0079018Y0120786D01*
X0080203Y0119601D02*
X0092623Y0119601D01*
X0091888Y0121199D02*
X0088153Y0121199D01*
X0089752Y0122798D02*
X0091888Y0122798D01*
X0093677Y0118002D02*
X0081801Y0118002D01*
X0083400Y0116404D02*
X0093677Y0116404D01*
X0093677Y0114805D02*
X0084998Y0114805D01*
X0080771Y0110010D02*
X0075132Y0110010D01*
X0075687Y0108411D02*
X0082369Y0108411D01*
X0082046Y0108734D02*
X0082046Y0108734D01*
X0079054Y0106836D02*
X0119640Y0106836D01*
X0124121Y0102355D01*
X0158739Y0102355D01*
X0159629Y0102017D02*
X0128921Y0102017D01*
X0128921Y0100419D02*
X0161228Y0100419D01*
X0162826Y0098820D02*
X0151875Y0098820D01*
X0153473Y0097222D02*
X0164425Y0097222D01*
X0166023Y0095623D02*
X0155072Y0095623D01*
X0156671Y0094025D02*
X0167622Y0094025D01*
X0168919Y0092426D02*
X0158269Y0092426D01*
X0159868Y0090828D02*
X0168919Y0090828D01*
X0168919Y0089229D02*
X0161466Y0089229D01*
X0163065Y0087631D02*
X0168919Y0087631D01*
X0168919Y0086032D02*
X0164663Y0086032D01*
X0166262Y0084434D02*
X0168919Y0084434D01*
X0169223Y0082835D02*
X0167860Y0082835D01*
X0169459Y0081236D02*
X0170564Y0081236D01*
X0170302Y0081499D02*
X0170302Y0081499D01*
X0171057Y0079638D02*
X0172163Y0079638D01*
X0172656Y0078039D02*
X0173761Y0078039D01*
X0189219Y0078039D02*
X0200857Y0078039D01*
X0202456Y0079638D02*
X0190817Y0079638D01*
X0192416Y0081236D02*
X0204055Y0081236D01*
X0204418Y0082835D02*
X0205653Y0082835D01*
X0206146Y0084434D02*
X0207252Y0084434D01*
X0207744Y0086032D02*
X0208850Y0086032D01*
X0209343Y0087631D02*
X0210449Y0087631D01*
X0211091Y0088273D02*
X0211091Y0088273D01*
X0210941Y0089229D02*
X0212448Y0089229D01*
X0212540Y0090828D02*
X0273181Y0090828D01*
X0271583Y0092426D02*
X0214138Y0092426D01*
X0215737Y0094025D02*
X0269984Y0094025D01*
X0268386Y0095623D02*
X0223381Y0095623D01*
X0225549Y0097222D02*
X0266787Y0097222D01*
X0265189Y0098820D02*
X0227147Y0098820D01*
X0228746Y0100419D02*
X0263590Y0100419D01*
X0261992Y0102017D02*
X0230344Y0102017D01*
X0231943Y0103616D02*
X0260393Y0103616D01*
X0258795Y0105214D02*
X0233541Y0105214D01*
X0235140Y0106813D02*
X0257196Y0106813D01*
X0255598Y0108411D02*
X0236738Y0108411D01*
X0238337Y0110010D02*
X0253999Y0110010D01*
X0259825Y0113207D02*
X0270181Y0113207D01*
X0270156Y0111608D02*
X0261424Y0111608D01*
X0263022Y0110010D02*
X0270156Y0110010D01*
X0270156Y0108411D02*
X0264621Y0108411D01*
X0266219Y0106813D02*
X0293300Y0106813D01*
X0293522Y0105214D02*
X0267818Y0105214D01*
X0269416Y0103616D02*
X0294381Y0103616D01*
X0296771Y0102017D02*
X0271015Y0102017D01*
X0272613Y0100419D02*
X0294970Y0100419D01*
X0295420Y0100868D02*
X0294044Y0099492D01*
X0293300Y0097695D01*
X0293300Y0095750D01*
X0294044Y0093952D01*
X0295420Y0092577D01*
X0297217Y0091832D01*
X0305763Y0091832D01*
X0307560Y0092577D01*
X0308936Y0093952D01*
X0309680Y0095750D01*
X0309680Y0097695D01*
X0308936Y0099492D01*
X0307560Y0100868D01*
X0305763Y0101613D01*
X0297217Y0101613D01*
X0295420Y0100868D01*
X0293766Y0098820D02*
X0274212Y0098820D01*
X0275810Y0097222D02*
X0293300Y0097222D01*
X0293352Y0095623D02*
X0277409Y0095623D01*
X0279007Y0094025D02*
X0294014Y0094025D01*
X0295784Y0092426D02*
X0280606Y0092426D01*
X0282204Y0090828D02*
X0295379Y0090828D01*
X0293935Y0089229D02*
X0283803Y0089229D01*
X0285401Y0087631D02*
X0293300Y0087631D01*
X0293300Y0086032D02*
X0287000Y0086032D01*
X0287952Y0084434D02*
X0293845Y0084434D01*
X0295162Y0082835D02*
X0287980Y0082835D01*
X0287980Y0081236D02*
X0306896Y0081236D01*
X0308494Y0079638D02*
X0287980Y0079638D01*
X0287980Y0078039D02*
X0310093Y0078039D01*
X0312467Y0079045D02*
X0332667Y0079045D01*
X0336836Y0083214D01*
X0347699Y0083214D01*
X0348530Y0084045D01*
X0351647Y0081236D02*
X0360341Y0081236D01*
X0360341Y0079638D02*
X0346318Y0079638D01*
X0343342Y0079233D02*
X0340656Y0079233D01*
X0343342Y0079233D02*
X0348530Y0074045D01*
X0352056Y0071645D02*
X0360341Y0071645D01*
X0360341Y0070047D02*
X0350458Y0070047D01*
X0346603Y0070047D02*
X0345456Y0070047D01*
X0345456Y0070784D02*
X0340856Y0070784D01*
X0340856Y0067184D01*
X0343893Y0067184D01*
X0344351Y0067307D01*
X0344761Y0067543D01*
X0345097Y0067879D01*
X0345333Y0068289D01*
X0345456Y0068747D01*
X0345456Y0070784D01*
X0345376Y0068448D02*
X0360341Y0068448D01*
X0360341Y0066850D02*
X0307925Y0066850D01*
X0306900Y0068448D02*
X0335936Y0068448D01*
X0335856Y0070047D02*
X0306512Y0070047D01*
X0304394Y0067001D02*
X0302310Y0067001D01*
X0304394Y0067001D02*
X0324908Y0046486D01*
X0323910Y0050865D02*
X0328271Y0050865D01*
X0328271Y0052463D02*
X0326811Y0052463D01*
X0323005Y0052463D02*
X0322311Y0052463D01*
X0321407Y0054062D02*
X0320713Y0054062D01*
X0320718Y0055660D02*
X0319114Y0055660D01*
X0317516Y0057259D02*
X0320718Y0057259D01*
X0321353Y0058857D02*
X0315917Y0058857D01*
X0314319Y0060456D02*
X0322952Y0060456D01*
X0326864Y0060456D02*
X0328061Y0060456D01*
X0328061Y0061834D02*
X0332661Y0061834D01*
X0332661Y0065434D01*
X0329624Y0065434D01*
X0329166Y0065312D01*
X0328756Y0065075D01*
X0328421Y0064739D01*
X0328184Y0064329D01*
X0328061Y0063871D01*
X0328061Y0061834D01*
X0328061Y0062054D02*
X0312720Y0062054D01*
X0311122Y0063653D02*
X0328061Y0063653D01*
X0329062Y0065251D02*
X0309523Y0065251D01*
X0307558Y0060456D02*
X0307110Y0060456D01*
X0307110Y0058857D02*
X0309157Y0058857D01*
X0310755Y0057259D02*
X0307041Y0057259D01*
X0302510Y0057259D02*
X0302110Y0057259D01*
X0302110Y0058857D02*
X0302510Y0058857D01*
X0289905Y0063653D02*
X0288636Y0063653D01*
X0280944Y0063653D02*
X0278636Y0063653D01*
X0279474Y0065251D02*
X0280106Y0065251D01*
X0270944Y0063653D02*
X0268864Y0063653D01*
X0269674Y0065251D02*
X0270106Y0065251D01*
X0289680Y0071645D02*
X0335856Y0071645D01*
X0335862Y0073244D02*
X0289680Y0073244D01*
X0289453Y0074842D02*
X0344340Y0074842D01*
X0340856Y0073244D02*
X0340456Y0073244D01*
X0340456Y0071645D02*
X0340856Y0071645D01*
X0340856Y0070047D02*
X0340456Y0070047D01*
X0340456Y0068448D02*
X0340856Y0068448D01*
X0336660Y0065251D02*
X0360341Y0065251D01*
X0360341Y0063653D02*
X0337661Y0063653D01*
X0337661Y0062054D02*
X0360341Y0062054D01*
X0360341Y0060456D02*
X0337661Y0060456D01*
X0337491Y0058857D02*
X0360341Y0058857D01*
X0360341Y0057259D02*
X0352797Y0057259D01*
X0354396Y0055660D02*
X0360341Y0055660D01*
X0360341Y0054062D02*
X0355147Y0054062D01*
X0355629Y0052463D02*
X0360341Y0052463D01*
X0360341Y0050865D02*
X0355629Y0050865D01*
X0355295Y0049266D02*
X0360341Y0049266D01*
X0360341Y0047668D02*
X0354633Y0047668D01*
X0353153Y0046069D02*
X0360341Y0046069D01*
X0332861Y0053385D02*
X0329760Y0056486D01*
X0324908Y0056486D01*
X0332661Y0062054D02*
X0333061Y0062054D01*
X0333061Y0063653D02*
X0332661Y0063653D01*
X0332661Y0065251D02*
X0333061Y0065251D01*
X0352720Y0073244D02*
X0360341Y0073244D01*
X0360341Y0074842D02*
X0352720Y0074842D01*
X0352060Y0076441D02*
X0360341Y0076441D01*
X0360341Y0078039D02*
X0350462Y0078039D01*
X0352720Y0082835D02*
X0360341Y0082835D01*
X0360341Y0084434D02*
X0352720Y0084434D01*
X0352469Y0086032D02*
X0360341Y0086032D01*
X0360341Y0087631D02*
X0350871Y0087631D01*
X0346190Y0087631D02*
X0326280Y0087631D01*
X0326280Y0086032D02*
X0344591Y0086032D01*
X0334675Y0084434D02*
X0325735Y0084434D01*
X0324418Y0082835D02*
X0333076Y0082835D01*
X0335041Y0078039D02*
X0336066Y0078039D01*
X0336199Y0076441D02*
X0288587Y0076441D01*
X0298008Y0070047D02*
X0298107Y0070047D01*
X0312467Y0079045D02*
X0304790Y0086722D01*
X0309045Y0089229D02*
X0310535Y0089229D01*
X0309900Y0087631D02*
X0309680Y0087631D01*
X0309680Y0086032D02*
X0309900Y0086032D01*
X0311979Y0090828D02*
X0307601Y0090828D01*
X0307196Y0092426D02*
X0312384Y0092426D01*
X0310614Y0094025D02*
X0308966Y0094025D01*
X0309628Y0095623D02*
X0309952Y0095623D01*
X0309900Y0097222D02*
X0309680Y0097222D01*
X0309214Y0098820D02*
X0310366Y0098820D01*
X0311570Y0100419D02*
X0308010Y0100419D01*
X0306209Y0102017D02*
X0313371Y0102017D01*
X0310981Y0103616D02*
X0308599Y0103616D01*
X0309458Y0105214D02*
X0310122Y0105214D01*
X0319509Y0112004D02*
X0323578Y0112004D01*
X0325273Y0110308D01*
X0332231Y0110308D01*
X0336821Y0110010D02*
X0337493Y0110010D01*
X0336821Y0108411D02*
X0339091Y0108411D01*
X0340690Y0106813D02*
X0335985Y0106813D01*
X0337031Y0105214D02*
X0341977Y0105214D01*
X0341151Y0103616D02*
X0337031Y0103616D01*
X0337031Y0102017D02*
X0341003Y0102017D01*
X0341428Y0100419D02*
X0336923Y0100419D01*
X0336073Y0098820D02*
X0342647Y0098820D01*
X0340290Y0092426D02*
X0360341Y0092426D01*
X0360341Y0089229D02*
X0325645Y0089229D01*
X0326280Y0097222D02*
X0326886Y0097222D01*
X0327431Y0103437D02*
X0325940Y0104928D01*
X0326280Y0105750D01*
X0326280Y0107695D01*
X0326188Y0107918D01*
X0327641Y0107918D01*
X0327641Y0107649D01*
X0328550Y0106740D01*
X0328536Y0106736D01*
X0328126Y0106499D01*
X0327791Y0106164D01*
X0327554Y0105753D01*
X0327431Y0105296D01*
X0327431Y0103437D01*
X0327431Y0103616D02*
X0327252Y0103616D01*
X0327431Y0105214D02*
X0326058Y0105214D01*
X0326280Y0106813D02*
X0328477Y0106813D01*
X0327881Y0113207D02*
X0325755Y0113207D01*
X0325889Y0114805D02*
X0332697Y0114805D01*
X0331099Y0116404D02*
X0326280Y0116404D01*
X0326153Y0118002D02*
X0329500Y0118002D01*
X0327902Y0119601D02*
X0325427Y0119601D01*
X0326605Y0121199D02*
X0323361Y0121199D01*
X0324381Y0122798D02*
X0326455Y0122798D01*
X0326455Y0124396D02*
X0325720Y0124396D01*
X0331235Y0124396D02*
X0333106Y0124396D01*
X0334705Y0122798D02*
X0331465Y0122798D01*
X0331235Y0123027D02*
X0331235Y0126267D01*
X0331428Y0126074D01*
X0342132Y0115370D01*
X0341697Y0114935D01*
X0341003Y0113260D01*
X0331235Y0123027D01*
X0333063Y0121199D02*
X0336303Y0121199D01*
X0337902Y0119601D02*
X0334662Y0119601D01*
X0336260Y0118002D02*
X0339500Y0118002D01*
X0341099Y0116404D02*
X0337859Y0116404D01*
X0339457Y0114805D02*
X0341643Y0114805D01*
X0348530Y0112352D02*
X0332782Y0128100D01*
X0332782Y0134163D01*
X0330223Y0136722D01*
X0314790Y0136722D01*
X0309809Y0134659D02*
X0309809Y0141704D01*
X0304790Y0146722D01*
X0309523Y0145370D02*
X0310435Y0144458D01*
X0309934Y0145667D01*
X0309680Y0145921D01*
X0309680Y0145750D01*
X0309523Y0145370D01*
X0309716Y0145177D02*
X0310137Y0145177D01*
X0312259Y0146722D02*
X0314790Y0146722D01*
X0344160Y0146722D01*
X0348530Y0142352D01*
X0352733Y0146775D02*
X0360341Y0146775D01*
X0360341Y0145177D02*
X0355121Y0145177D01*
X0355925Y0143578D02*
X0360341Y0143578D01*
X0360341Y0141980D02*
X0356057Y0141980D01*
X0355617Y0140381D02*
X0360341Y0140381D01*
X0360341Y0138783D02*
X0354376Y0138783D01*
X0353329Y0136771D02*
X0352615Y0137003D01*
X0351874Y0137121D01*
X0348714Y0137121D01*
X0348714Y0132537D01*
X0348346Y0132537D01*
X0348346Y0137121D01*
X0345186Y0137121D01*
X0344445Y0137003D01*
X0343731Y0136771D01*
X0343062Y0136431D01*
X0342455Y0135990D01*
X0341924Y0135459D01*
X0341483Y0134852D01*
X0341143Y0134183D01*
X0340911Y0133469D01*
X0340793Y0132728D01*
X0340793Y0132537D01*
X0348346Y0132537D01*
X0348346Y0132168D01*
X0348714Y0132168D01*
X0348714Y0127584D01*
X0351874Y0127584D01*
X0352615Y0127701D01*
X0353329Y0127933D01*
X0353998Y0128274D01*
X0354605Y0128715D01*
X0355136Y0129246D01*
X0355577Y0129853D01*
X0355918Y0130522D01*
X0356150Y0131236D01*
X0356267Y0131977D01*
X0356267Y0132168D01*
X0348715Y0132168D01*
X0348715Y0132537D01*
X0356267Y0132537D01*
X0356267Y0132728D01*
X0356150Y0133469D01*
X0355918Y0134183D01*
X0355577Y0134852D01*
X0355136Y0135459D01*
X0354605Y0135990D01*
X0353998Y0136431D01*
X0353329Y0136771D01*
X0355009Y0135586D02*
X0360341Y0135586D01*
X0360341Y0137184D02*
X0333141Y0137184D01*
X0334740Y0135586D02*
X0342052Y0135586D01*
X0341079Y0133987D02*
X0335172Y0133987D01*
X0335172Y0132389D02*
X0348346Y0132389D01*
X0348530Y0132352D02*
X0355499Y0125384D01*
X0355586Y0124396D02*
X0360341Y0124396D01*
X0360341Y0122798D02*
X0356057Y0122798D01*
X0355955Y0121199D02*
X0360341Y0121199D01*
X0360341Y0119601D02*
X0355194Y0119601D01*
X0352909Y0118002D02*
X0360341Y0118002D01*
X0360341Y0116404D02*
X0353630Y0116404D01*
X0355417Y0114805D02*
X0360341Y0114805D01*
X0360341Y0113207D02*
X0356057Y0113207D01*
X0356057Y0111608D02*
X0360341Y0111608D01*
X0360341Y0110010D02*
X0355463Y0110010D01*
X0353896Y0108411D02*
X0360341Y0108411D01*
X0360341Y0106813D02*
X0352643Y0106813D01*
X0319509Y0112004D02*
X0314790Y0116722D01*
X0304790Y0116722D02*
X0279908Y0116722D01*
X0273727Y0110541D01*
X0277298Y0110010D02*
X0294562Y0110010D01*
X0293596Y0108411D02*
X0277298Y0108411D01*
X0278174Y0111608D02*
X0297207Y0111608D01*
X0294790Y0113207D02*
X0279773Y0113207D01*
X0274611Y0114805D02*
X0258227Y0114805D01*
X0235104Y0116404D02*
X0209188Y0116404D01*
X0209188Y0118002D02*
X0235104Y0118002D01*
X0235104Y0119601D02*
X0209188Y0119601D01*
X0209188Y0121199D02*
X0235104Y0121199D01*
X0235104Y0122798D02*
X0209188Y0122798D01*
X0209188Y0124396D02*
X0235104Y0124396D01*
X0234077Y0125995D02*
X0209188Y0125995D01*
X0209188Y0127593D02*
X0232478Y0127593D01*
X0230880Y0129192D02*
X0209188Y0129192D01*
X0209151Y0130790D02*
X0229281Y0130790D01*
X0227683Y0132389D02*
X0208016Y0132389D01*
X0206798Y0130226D02*
X0206798Y0104662D01*
X0203578Y0101441D01*
X0199509Y0101441D01*
X0194790Y0096722D01*
X0190366Y0098820D02*
X0189214Y0098820D01*
X0189680Y0097222D02*
X0189900Y0097222D01*
X0189952Y0095623D02*
X0189628Y0095623D01*
X0188966Y0094025D02*
X0190614Y0094025D01*
X0191979Y0090828D02*
X0187816Y0090828D01*
X0189237Y0089229D02*
X0190535Y0089229D01*
X0203796Y0092426D02*
X0205115Y0092426D01*
X0205566Y0094025D02*
X0206714Y0094025D01*
X0206228Y0095623D02*
X0208312Y0095623D01*
X0209911Y0097222D02*
X0206280Y0097222D01*
X0205814Y0098820D02*
X0211509Y0098820D01*
X0213108Y0100419D02*
X0205935Y0100419D01*
X0210611Y0102017D02*
X0211011Y0102017D01*
X0211011Y0103616D02*
X0210611Y0103616D01*
X0210611Y0105214D02*
X0211011Y0105214D01*
X0211011Y0106813D02*
X0210611Y0106813D01*
X0210611Y0108411D02*
X0211011Y0108411D01*
X0211011Y0110010D02*
X0210611Y0110010D01*
X0209188Y0111608D02*
X0230912Y0111608D01*
X0229314Y0110010D02*
X0221510Y0110010D01*
X0221651Y0108411D02*
X0227715Y0108411D01*
X0226117Y0106813D02*
X0221651Y0106813D01*
X0221651Y0105214D02*
X0224518Y0105214D01*
X0222920Y0103616D02*
X0221651Y0103616D01*
X0221321Y0102017D02*
X0221116Y0102017D01*
X0218060Y0099279D02*
X0218609Y0098730D01*
X0218060Y0099279D02*
X0218060Y0106211D01*
X0215005Y0102017D02*
X0214163Y0102017D01*
X0214428Y0110010D02*
X0214611Y0110010D01*
X0209188Y0113207D02*
X0232511Y0113207D01*
X0234109Y0114805D02*
X0209188Y0114805D01*
X0204408Y0111608D02*
X0202373Y0111608D01*
X0193807Y0111608D02*
X0185773Y0111608D01*
X0188190Y0113207D02*
X0191390Y0113207D01*
X0190291Y0114805D02*
X0189289Y0114805D01*
X0189680Y0116404D02*
X0189900Y0116404D01*
X0190027Y0118002D02*
X0189553Y0118002D01*
X0189671Y0121841D02*
X0194790Y0116722D01*
X0193437Y0121455D02*
X0192525Y0122368D01*
X0193817Y0121832D01*
X0202363Y0121832D01*
X0204160Y0122577D01*
X0204408Y0122824D01*
X0204408Y0120620D01*
X0204160Y0120868D01*
X0202363Y0121613D01*
X0193817Y0121613D01*
X0193437Y0121455D01*
X0189671Y0121841D02*
X0171876Y0121841D01*
X0167428Y0126289D01*
X0167428Y0142037D01*
X0155617Y0153848D01*
X0139865Y0153848D01*
X0122768Y0136752D01*
X0112822Y0136752D01*
X0112753Y0136683D01*
X0112753Y0133533D02*
X0123491Y0133533D01*
X0139869Y0149911D01*
X0151680Y0149911D01*
X0163491Y0138100D01*
X0163491Y0118415D01*
X0175184Y0106722D01*
X0184790Y0106722D01*
X0189680Y0106813D02*
X0189900Y0106813D01*
X0190122Y0105214D02*
X0189458Y0105214D01*
X0188599Y0103616D02*
X0190981Y0103616D01*
X0193371Y0102017D02*
X0186209Y0102017D01*
X0188010Y0100419D02*
X0191570Y0100419D01*
X0190196Y0108411D02*
X0189384Y0108411D01*
X0188418Y0110010D02*
X0191162Y0110010D01*
X0177207Y0111608D02*
X0173678Y0111608D01*
X0174790Y0113207D02*
X0172080Y0113207D01*
X0170481Y0114805D02*
X0173691Y0114805D01*
X0173300Y0116404D02*
X0168883Y0116404D01*
X0167284Y0118002D02*
X0173427Y0118002D01*
X0171039Y0119601D02*
X0165881Y0119601D01*
X0165881Y0121199D02*
X0169138Y0121199D01*
X0167539Y0122798D02*
X0165881Y0122798D01*
X0165881Y0124396D02*
X0165941Y0124396D01*
X0169818Y0127279D02*
X0172866Y0124231D01*
X0173929Y0124231D01*
X0173300Y0125750D01*
X0173300Y0127695D01*
X0173970Y0129313D01*
X0173349Y0129313D01*
X0172471Y0129677D01*
X0171798Y0130350D01*
X0170011Y0132137D01*
X0169818Y0132330D01*
X0169818Y0127279D01*
X0169818Y0127593D02*
X0173300Y0127593D01*
X0173300Y0125995D02*
X0171103Y0125995D01*
X0172701Y0124396D02*
X0173860Y0124396D01*
X0173920Y0129192D02*
X0169818Y0129192D01*
X0169818Y0130790D02*
X0171358Y0130790D01*
X0161101Y0124396D02*
X0109465Y0124396D01*
X0107586Y0122798D02*
X0161101Y0122798D01*
X0161101Y0121199D02*
X0108317Y0121199D01*
X0108317Y0119601D02*
X0161101Y0119601D01*
X0161101Y0118002D02*
X0108317Y0118002D01*
X0108317Y0116404D02*
X0162122Y0116404D01*
X0163721Y0114805D02*
X0108238Y0114805D01*
X0101697Y0113731D02*
X0099658Y0113731D01*
X0099658Y0113746D01*
X0099926Y0113746D01*
X0100836Y0114656D01*
X0100839Y0114642D01*
X0101076Y0114231D01*
X0101412Y0113896D01*
X0101697Y0113731D01*
X0097268Y0111247D02*
X0096562Y0110541D01*
X0097268Y0111247D02*
X0097268Y0118337D01*
X0106877Y0127657D02*
X0125292Y0127657D01*
X0136444Y0138809D01*
X0140634Y0138783D02*
X0142253Y0138783D01*
X0142253Y0140381D02*
X0140634Y0140381D01*
X0139198Y0141980D02*
X0143689Y0141980D01*
X0146444Y0138809D02*
X0148657Y0136595D01*
X0148657Y0130148D01*
X0145067Y0130790D02*
X0131805Y0130790D01*
X0130207Y0129192D02*
X0145067Y0129192D01*
X0145067Y0127593D02*
X0128608Y0127593D01*
X0127009Y0125995D02*
X0145561Y0125995D01*
X0145067Y0132389D02*
X0133404Y0132389D01*
X0135002Y0133987D02*
X0145248Y0133987D01*
X0143741Y0135586D02*
X0139146Y0135586D01*
X0140634Y0137184D02*
X0142253Y0137184D01*
X0149198Y0141980D02*
X0156231Y0141980D01*
X0154633Y0143578D02*
X0136916Y0143578D01*
X0138514Y0145177D02*
X0153034Y0145177D01*
X0151436Y0146775D02*
X0140113Y0146775D01*
X0128980Y0150277D02*
X0120926Y0142223D01*
X0116843Y0142223D01*
X0116843Y0143673D01*
X0120748Y0143673D01*
X0121627Y0144037D01*
X0127867Y0150277D01*
X0128980Y0150277D01*
X0128676Y0149972D02*
X0127562Y0149972D01*
X0127077Y0148374D02*
X0125963Y0148374D01*
X0125479Y0146775D02*
X0124365Y0146775D01*
X0123880Y0145177D02*
X0122766Y0145177D01*
X0122282Y0143578D02*
X0116843Y0143578D01*
X0120273Y0146063D02*
X0112822Y0146063D01*
X0112753Y0146132D01*
X0116843Y0148454D02*
X0116843Y0157054D01*
X0120359Y0157054D01*
X0121269Y0157963D01*
X0121273Y0157949D01*
X0121509Y0157538D01*
X0121845Y0157203D01*
X0122255Y0156966D01*
X0122713Y0156844D01*
X0124750Y0156844D01*
X0124750Y0161444D01*
X0125150Y0161444D01*
X0125150Y0157152D01*
X0124486Y0156488D01*
X0124486Y0153657D01*
X0119283Y0148454D01*
X0116843Y0148454D01*
X0116843Y0149972D02*
X0120802Y0149972D01*
X0122400Y0151571D02*
X0116843Y0151571D01*
X0116843Y0153170D02*
X0123999Y0153170D01*
X0124486Y0154768D02*
X0116843Y0154768D01*
X0116843Y0156367D02*
X0124486Y0156367D01*
X0124750Y0157965D02*
X0125150Y0157965D01*
X0125150Y0159564D02*
X0124750Y0159564D01*
X0124750Y0161162D02*
X0125150Y0161162D01*
X0124950Y0161644D02*
X0148530Y0161644D01*
X0149396Y0162510D01*
X0135184Y0176722D01*
X0132727Y0170753D02*
X0145035Y0170753D01*
X0152210Y0169155D02*
X0154007Y0169155D01*
X0146379Y0165958D02*
X0128182Y0165958D01*
X0128055Y0166084D02*
X0127645Y0166321D01*
X0127187Y0166444D01*
X0125150Y0166444D01*
X0125150Y0161844D01*
X0128750Y0161844D01*
X0128750Y0164881D01*
X0128627Y0165338D01*
X0128390Y0165749D01*
X0128055Y0166084D01*
X0128750Y0164359D02*
X0144825Y0164359D01*
X0144825Y0162761D02*
X0128750Y0162761D01*
X0128750Y0161162D02*
X0144825Y0161162D01*
X0138267Y0159564D02*
X0128750Y0159564D01*
X0128631Y0157965D02*
X0136668Y0157965D01*
X0135070Y0156367D02*
X0131629Y0156367D01*
X0131629Y0154768D02*
X0133471Y0154768D01*
X0131873Y0153170D02*
X0131629Y0153170D01*
X0128058Y0153848D02*
X0120273Y0146063D01*
X0130522Y0137184D02*
X0131439Y0137184D01*
X0132120Y0138783D02*
X0132253Y0138783D01*
X0129840Y0135586D02*
X0128923Y0135586D01*
X0128242Y0133987D02*
X0127325Y0133987D01*
X0126643Y0132389D02*
X0125726Y0132389D01*
X0125045Y0130790D02*
X0109567Y0130790D01*
X0079054Y0106836D02*
X0073179Y0112711D01*
X0073729Y0111608D02*
X0079172Y0111608D01*
X0093278Y0105214D02*
X0119538Y0105214D01*
X0119321Y0103616D02*
X0093278Y0103616D01*
X0093278Y0102017D02*
X0096721Y0102017D01*
X0103901Y0102017D02*
X0104970Y0102017D01*
X0104970Y0100419D02*
X0103901Y0100419D01*
X0112150Y0100419D02*
X0119321Y0100419D01*
X0119321Y0102017D02*
X0112150Y0102017D01*
X0112150Y0098820D02*
X0120179Y0098820D01*
X0123921Y0103616D02*
X0124321Y0103616D01*
X0124321Y0105214D02*
X0123921Y0105214D01*
X0128063Y0098820D02*
X0136582Y0098820D01*
X0134984Y0097222D02*
X0131776Y0097222D01*
X0139816Y0090804D02*
X0139869Y0090856D01*
X0147743Y0094785D02*
X0147743Y0094793D01*
X0165456Y0105214D02*
X0173312Y0105214D01*
X0174381Y0103616D02*
X0167054Y0103616D01*
X0168653Y0102017D02*
X0176771Y0102017D01*
X0174970Y0100419D02*
X0170251Y0100419D01*
X0171850Y0098820D02*
X0173766Y0098820D01*
X0175299Y0092426D02*
X0175784Y0092426D01*
X0171713Y0106813D02*
X0163857Y0106813D01*
X0162259Y0108411D02*
X0170115Y0108411D01*
X0168516Y0110010D02*
X0160660Y0110010D01*
X0159061Y0111608D02*
X0166918Y0111608D01*
X0165319Y0113207D02*
X0157463Y0113207D01*
X0189051Y0124231D02*
X0189680Y0125750D01*
X0189680Y0127695D01*
X0189010Y0129313D01*
X0190570Y0129313D01*
X0189900Y0127695D01*
X0189900Y0125750D01*
X0190608Y0124040D01*
X0190147Y0124231D01*
X0189051Y0124231D01*
X0189120Y0124396D02*
X0190460Y0124396D01*
X0189900Y0125995D02*
X0189680Y0125995D01*
X0189680Y0127593D02*
X0189900Y0127593D01*
X0190520Y0129192D02*
X0189060Y0129192D01*
X0189612Y0135586D02*
X0189968Y0135586D01*
X0189900Y0137184D02*
X0189680Y0137184D01*
X0189230Y0138783D02*
X0190350Y0138783D01*
X0191533Y0140381D02*
X0188047Y0140381D01*
X0186119Y0141980D02*
X0193461Y0141980D01*
X0191018Y0143578D02*
X0188562Y0143578D01*
X0189443Y0145177D02*
X0190137Y0145177D01*
X0189900Y0146775D02*
X0189680Y0146775D01*
X0189399Y0148374D02*
X0190181Y0148374D01*
X0191124Y0149972D02*
X0188456Y0149972D01*
X0187560Y0152577D02*
X0185763Y0151832D01*
X0177217Y0151832D01*
X0175420Y0152577D01*
X0174044Y0153952D01*
X0173300Y0155750D01*
X0173300Y0157695D01*
X0174044Y0159492D01*
X0175420Y0160868D01*
X0177217Y0161613D01*
X0185763Y0161613D01*
X0187560Y0160868D01*
X0188936Y0159492D01*
X0189680Y0157695D01*
X0189680Y0155750D01*
X0188936Y0153952D01*
X0187560Y0152577D01*
X0188153Y0153170D02*
X0191427Y0153170D01*
X0190306Y0154768D02*
X0189274Y0154768D01*
X0189680Y0156367D02*
X0189900Y0156367D01*
X0190012Y0157965D02*
X0189568Y0157965D01*
X0188865Y0159564D02*
X0190715Y0159564D01*
X0192730Y0161162D02*
X0186850Y0161162D01*
X0176130Y0161162D02*
X0153968Y0161162D01*
X0153968Y0162761D02*
X0211600Y0162761D01*
X0211600Y0164359D02*
X0153968Y0164359D01*
X0161156Y0159564D02*
X0174115Y0159564D01*
X0173412Y0157965D02*
X0162754Y0157965D01*
X0164353Y0156367D02*
X0173300Y0156367D01*
X0173706Y0154768D02*
X0165951Y0154768D01*
X0167550Y0153170D02*
X0174827Y0153170D01*
X0177117Y0151571D02*
X0169148Y0151571D01*
X0170747Y0149972D02*
X0174524Y0149972D01*
X0173581Y0148374D02*
X0172345Y0148374D01*
X0168975Y0144984D02*
X0168975Y0143871D01*
X0168782Y0144064D01*
X0157478Y0155367D01*
X0158592Y0155367D01*
X0168975Y0144984D01*
X0168782Y0145177D02*
X0167668Y0145177D01*
X0167184Y0146775D02*
X0166070Y0146775D01*
X0165585Y0148374D02*
X0164471Y0148374D01*
X0163987Y0149972D02*
X0162873Y0149972D01*
X0162388Y0151571D02*
X0161274Y0151571D01*
X0160790Y0153170D02*
X0159676Y0153170D01*
X0159191Y0154768D02*
X0158077Y0154768D01*
X0154627Y0151458D02*
X0153513Y0151458D01*
X0165038Y0139934D01*
X0165038Y0141047D01*
X0154627Y0151458D01*
X0154999Y0149972D02*
X0156113Y0149972D01*
X0156597Y0148374D02*
X0157711Y0148374D01*
X0158196Y0146775D02*
X0159310Y0146775D01*
X0159794Y0145177D02*
X0160908Y0145177D01*
X0161393Y0143578D02*
X0162507Y0143578D01*
X0162991Y0141980D02*
X0164105Y0141980D01*
X0164590Y0140381D02*
X0165038Y0140381D01*
X0161027Y0137184D02*
X0151000Y0137184D01*
X0150634Y0138783D02*
X0159428Y0138783D01*
X0157830Y0140381D02*
X0150634Y0140381D01*
X0156707Y0133987D02*
X0157107Y0133987D01*
X0157107Y0132389D02*
X0156707Y0132389D01*
X0173755Y0140381D02*
X0174933Y0140381D01*
X0173755Y0141980D02*
X0176861Y0141980D01*
X0174418Y0143578D02*
X0173755Y0143578D01*
X0185863Y0151571D02*
X0193717Y0151571D01*
X0205321Y0131704D02*
X0206798Y0130226D01*
X0204408Y0122798D02*
X0204381Y0122798D01*
X0204408Y0121199D02*
X0203361Y0121199D01*
X0125150Y0162761D02*
X0124750Y0162761D01*
X0124750Y0164359D02*
X0125150Y0164359D01*
X0125150Y0165958D02*
X0124750Y0165958D01*
X0117269Y0180344D02*
X0110690Y0180344D01*
X0085589Y0177147D02*
X0085537Y0177147D01*
X0090369Y0165757D02*
X0091129Y0165757D01*
X0091129Y0164359D02*
X0091129Y0164359D01*
X0091129Y0162761D02*
X0091129Y0162761D01*
X0062219Y0175549D02*
X0060394Y0175549D01*
X0060444Y0175634D02*
X0060566Y0176092D01*
X0060566Y0180266D01*
X0057782Y0180266D01*
X0057782Y0180266D01*
X0057782Y0174529D01*
X0059003Y0174529D01*
X0059461Y0174651D01*
X0059872Y0174888D01*
X0060207Y0175224D01*
X0060444Y0175634D01*
X0060566Y0177147D02*
X0061507Y0177147D01*
X0061507Y0178746D02*
X0060566Y0178746D01*
X0060566Y0180344D02*
X0061507Y0180344D01*
X0061507Y0181943D02*
X0060566Y0181943D01*
X0060566Y0183541D02*
X0061507Y0183541D01*
X0061507Y0185140D02*
X0060304Y0185140D01*
X0059566Y0186738D02*
X0062006Y0186738D01*
X0059566Y0188337D02*
X0074486Y0188337D01*
X0074486Y0189935D02*
X0059566Y0189935D01*
X0067440Y0191534D02*
X0074486Y0191534D01*
X0074486Y0193132D02*
X0067440Y0193132D01*
X0067440Y0194731D02*
X0074486Y0194731D01*
X0074486Y0196329D02*
X0074018Y0196329D01*
X0074740Y0199526D02*
X0075867Y0199526D01*
X0074740Y0201125D02*
X0077466Y0201125D01*
X0078787Y0202446D02*
X0078787Y0202446D01*
X0079064Y0202723D02*
X0068818Y0202723D01*
X0068818Y0202916D02*
X0074740Y0202916D01*
X0074740Y0206684D01*
X0074617Y0207142D01*
X0074380Y0207552D01*
X0074045Y0207887D01*
X0073634Y0208124D01*
X0073177Y0208247D01*
X0068818Y0208247D01*
X0068818Y0202916D01*
X0068818Y0204322D02*
X0067218Y0204322D01*
X0067218Y0205920D02*
X0068818Y0205920D01*
X0068818Y0207519D02*
X0067440Y0207519D01*
X0067218Y0201125D02*
X0068818Y0201125D01*
X0068818Y0199526D02*
X0067218Y0199526D01*
X0067440Y0197928D02*
X0068818Y0197928D01*
X0068818Y0196329D02*
X0067440Y0196329D01*
X0074740Y0204322D02*
X0360341Y0204322D01*
X0360341Y0205920D02*
X0074740Y0205920D01*
X0074399Y0207519D02*
X0360341Y0207519D01*
X0360341Y0202723D02*
X0353002Y0202723D01*
X0354570Y0201125D02*
X0360341Y0201125D01*
X0360341Y0199526D02*
X0355232Y0199526D01*
X0355629Y0197928D02*
X0360341Y0197928D01*
X0360341Y0196329D02*
X0355629Y0196329D01*
X0355210Y0194731D02*
X0360341Y0194731D01*
X0360341Y0193132D02*
X0354547Y0193132D01*
X0352948Y0191534D02*
X0360341Y0191534D01*
X0360341Y0173950D02*
X0354655Y0173950D01*
X0355732Y0172352D02*
X0360341Y0172352D01*
X0360341Y0170753D02*
X0356057Y0170753D01*
X0355810Y0169155D02*
X0360341Y0169155D01*
X0360341Y0164359D02*
X0354246Y0164359D01*
X0355563Y0162761D02*
X0360341Y0162761D01*
X0360341Y0161162D02*
X0356057Y0161162D01*
X0355979Y0159564D02*
X0360341Y0159564D01*
X0360341Y0157965D02*
X0355251Y0157965D01*
X0353047Y0156367D02*
X0360341Y0156367D01*
X0360341Y0154768D02*
X0325874Y0154768D01*
X0326280Y0156367D02*
X0344013Y0156367D01*
X0341809Y0157965D02*
X0326168Y0157965D01*
X0324922Y0160659D02*
X0323578Y0162004D01*
X0324922Y0160659D02*
X0348530Y0160659D01*
X0360341Y0153170D02*
X0324753Y0153170D01*
X0322463Y0151571D02*
X0360341Y0151571D01*
X0360341Y0149972D02*
X0325056Y0149972D01*
X0325162Y0143578D02*
X0341135Y0143578D01*
X0341003Y0141980D02*
X0322719Y0141980D01*
X0324647Y0140381D02*
X0341444Y0140381D01*
X0342684Y0138783D02*
X0331494Y0138783D01*
X0329233Y0134332D02*
X0325693Y0134332D01*
X0325536Y0133952D01*
X0325272Y0133689D01*
X0325885Y0133076D01*
X0330392Y0128569D01*
X0330392Y0133173D01*
X0329233Y0134332D01*
X0329578Y0133987D02*
X0325550Y0133987D01*
X0326572Y0132389D02*
X0330392Y0132389D01*
X0330392Y0130790D02*
X0328171Y0130790D01*
X0329769Y0129192D02*
X0330392Y0129192D01*
X0331235Y0125995D02*
X0331508Y0125995D01*
X0335172Y0129192D02*
X0341979Y0129192D01*
X0341924Y0129246D02*
X0342455Y0128715D01*
X0343062Y0128274D01*
X0343731Y0127933D01*
X0344445Y0127701D01*
X0345186Y0127584D01*
X0348346Y0127584D01*
X0348346Y0132168D01*
X0340793Y0132168D01*
X0340793Y0131977D01*
X0340911Y0131236D01*
X0341143Y0130522D01*
X0341483Y0129853D01*
X0341924Y0129246D01*
X0341055Y0130790D02*
X0335172Y0130790D01*
X0336669Y0127593D02*
X0345127Y0127593D01*
X0342757Y0125995D02*
X0338268Y0125995D01*
X0339866Y0124396D02*
X0341474Y0124396D01*
X0348346Y0127593D02*
X0348714Y0127593D01*
X0348714Y0129192D02*
X0348346Y0129192D01*
X0348346Y0130790D02*
X0348714Y0130790D01*
X0348715Y0132389D02*
X0360341Y0132389D01*
X0360341Y0133987D02*
X0355981Y0133987D01*
X0356005Y0130790D02*
X0360341Y0130790D01*
X0360341Y0129192D02*
X0355082Y0129192D01*
X0354303Y0125995D02*
X0360341Y0125995D01*
X0360341Y0127593D02*
X0351934Y0127593D01*
X0348714Y0133987D02*
X0348346Y0133987D01*
X0348346Y0135586D02*
X0348714Y0135586D01*
X0345889Y0148374D02*
X0360341Y0148374D01*
X0313461Y0141980D02*
X0312199Y0141980D01*
X0306152Y0141980D02*
X0306119Y0141980D01*
X0304973Y0140381D02*
X0304608Y0140381D01*
X0304608Y0138783D02*
X0304973Y0138783D01*
X0304973Y0137184D02*
X0304608Y0137184D01*
X0304608Y0135586D02*
X0304973Y0135586D01*
X0304973Y0133987D02*
X0304608Y0133987D01*
X0304608Y0132389D02*
X0304973Y0132389D01*
X0230127Y0074842D02*
X0229453Y0074842D01*
X0229680Y0073244D02*
X0229900Y0073244D01*
X0229900Y0071645D02*
X0229680Y0071645D01*
X0229680Y0070047D02*
X0229900Y0070047D01*
X0229900Y0068448D02*
X0229680Y0068448D01*
X0229680Y0066850D02*
X0229900Y0066850D01*
X0230106Y0065251D02*
X0229474Y0065251D01*
X0228636Y0063653D02*
X0230944Y0063653D01*
X0239680Y0057259D02*
X0239900Y0057259D01*
X0239900Y0055660D02*
X0239680Y0055660D01*
X0239680Y0054062D02*
X0239900Y0054062D01*
X0239900Y0052463D02*
X0239680Y0052463D01*
X0239680Y0050865D02*
X0239900Y0050865D01*
X0239900Y0049266D02*
X0239680Y0049266D01*
X0239066Y0047668D02*
X0240514Y0047668D01*
X0241927Y0046069D02*
X0237653Y0046069D01*
X0218609Y0043612D02*
X0165617Y0043612D01*
X0157743Y0051486D01*
X0157559Y0050865D02*
X0157927Y0050865D01*
X0157927Y0049266D02*
X0157559Y0049266D01*
X0157559Y0047668D02*
X0157927Y0047668D01*
X0157927Y0046069D02*
X0157559Y0046069D01*
X0157559Y0044471D02*
X0157927Y0044471D01*
X0155200Y0044471D02*
X0149885Y0044471D01*
X0151663Y0046069D02*
X0153639Y0046069D01*
X0153049Y0047668D02*
X0152301Y0047668D01*
X0152301Y0049266D02*
X0152974Y0049266D01*
X0152974Y0050865D02*
X0152301Y0050865D01*
X0152301Y0052463D02*
X0152974Y0052463D01*
X0152974Y0054062D02*
X0152301Y0054062D01*
X0152178Y0055660D02*
X0153121Y0055660D01*
X0159793Y0059404D02*
X0145693Y0059404D01*
X0159793Y0059404D02*
X0159837Y0059360D01*
X0145601Y0044471D02*
X0144107Y0044471D01*
X0104499Y0045958D02*
X0102247Y0045958D01*
X0102931Y0047611D01*
X0102931Y0054663D01*
X0103945Y0055677D01*
X0103814Y0055361D01*
X0103814Y0047611D01*
X0104499Y0045958D01*
X0104453Y0046069D02*
X0102293Y0046069D01*
X0102931Y0047668D02*
X0103814Y0047668D01*
X0103814Y0049266D02*
X0102931Y0049266D01*
X0102931Y0050865D02*
X0103814Y0050865D01*
X0103814Y0052463D02*
X0102931Y0052463D01*
X0102931Y0054062D02*
X0103814Y0054062D01*
X0103928Y0055660D02*
X0103938Y0055660D01*
X0096749Y0051486D02*
X0088875Y0059360D01*
X0085285Y0058857D02*
X0084216Y0058857D01*
X0084216Y0057259D02*
X0085285Y0057259D01*
X0085326Y0055660D02*
X0084175Y0055660D01*
X0078236Y0054062D02*
X0070429Y0054062D01*
X0070429Y0055660D02*
X0077077Y0055660D01*
X0077036Y0057259D02*
X0070429Y0057259D01*
X0070110Y0058857D02*
X0077036Y0058857D01*
X0076338Y0060456D02*
X0068512Y0060456D01*
X0066913Y0062054D02*
X0074174Y0062054D01*
X0072575Y0063653D02*
X0065315Y0063653D01*
X0056943Y0063653D02*
X0006010Y0063653D01*
X0006010Y0062054D02*
X0055344Y0062054D01*
X0053746Y0060456D02*
X0006010Y0060456D01*
X0006010Y0058857D02*
X0052147Y0058857D01*
X0051829Y0057259D02*
X0022089Y0057259D01*
X0021843Y0057505D02*
X0019234Y0058585D01*
X0016409Y0058585D01*
X0013800Y0057505D01*
X0011803Y0055508D01*
X0010722Y0052898D01*
X0010722Y0050074D01*
X0011803Y0047465D01*
X0013800Y0045468D01*
X0016409Y0044387D01*
X0019234Y0044387D01*
X0021843Y0045468D01*
X0023840Y0047465D01*
X0024921Y0050074D01*
X0024921Y0052898D01*
X0023840Y0055508D01*
X0021843Y0057505D01*
X0023687Y0055660D02*
X0051829Y0055660D01*
X0051829Y0054062D02*
X0024439Y0054062D01*
X0024921Y0052463D02*
X0051829Y0052463D01*
X0052012Y0050865D02*
X0024921Y0050865D01*
X0024586Y0049266D02*
X0053610Y0049266D01*
X0055209Y0047668D02*
X0023924Y0047668D01*
X0022444Y0046069D02*
X0056807Y0046069D01*
X0065450Y0046069D02*
X0078913Y0046069D01*
X0078236Y0047668D02*
X0067049Y0047668D01*
X0068647Y0049266D02*
X0078236Y0049266D01*
X0078236Y0050865D02*
X0070246Y0050865D01*
X0070429Y0052463D02*
X0078236Y0052463D01*
X0080512Y0044471D02*
X0019436Y0044471D01*
X0016207Y0044471D02*
X0006010Y0044471D01*
X0006010Y0046069D02*
X0013199Y0046069D01*
X0011719Y0047668D02*
X0006010Y0047668D01*
X0006010Y0049266D02*
X0011057Y0049266D01*
X0010722Y0050865D02*
X0006010Y0050865D01*
X0006010Y0052463D02*
X0010722Y0052463D01*
X0011204Y0054062D02*
X0006010Y0054062D01*
X0006010Y0055660D02*
X0011956Y0055660D01*
X0013554Y0057259D02*
X0006010Y0057259D01*
X0006010Y0042872D02*
X0082110Y0042872D01*
X0084150Y0041274D02*
X0006010Y0041274D01*
X0084216Y0060456D02*
X0085285Y0060456D01*
X0085285Y0062054D02*
X0084216Y0062054D01*
X0083582Y0063653D02*
X0085919Y0063653D01*
X0093278Y0094025D02*
X0109886Y0094025D01*
X0096721Y0095623D02*
X0093278Y0095623D01*
X0030656Y0102017D02*
X0018858Y0102017D01*
X0017260Y0103616D02*
X0029570Y0103616D01*
X0029570Y0105214D02*
X0017075Y0105214D01*
X0057782Y0175549D02*
X0057782Y0175549D01*
X0057782Y0177147D02*
X0057782Y0177147D01*
X0057782Y0178746D02*
X0057782Y0178746D01*
X0074031Y0186738D02*
X0074486Y0186738D01*
X0176034Y0180344D02*
X0189916Y0180344D01*
X0198015Y0194731D02*
X0198415Y0194731D01*
X0198415Y0196329D02*
X0198015Y0196329D01*
X0214790Y0056722D02*
X0209554Y0051486D01*
X0194987Y0051486D01*
X0198558Y0054062D02*
X0208749Y0054062D01*
D28*
X0187309Y0080641D02*
X0175671Y0080641D01*
X0172109Y0084204D01*
X0172109Y0094049D01*
X0155617Y0110541D01*
X0096562Y0110541D01*
X0084751Y0110541D01*
X0076877Y0118415D01*
X0066089Y0118415D01*
X0060617Y0123888D01*
X0045381Y0123888D01*
X0035814Y0123888D01*
X0030725Y0129622D02*
X0026883Y0125780D01*
X0025617Y0125780D01*
X0021249Y0125780D01*
X0013885Y0118415D01*
X0013885Y0102480D01*
X0025696Y0090669D01*
X0026041Y0091014D01*
X0045538Y0091014D01*
X0049318Y0094793D01*
X0049318Y0102982D01*
X0051129Y0104793D01*
X0025696Y0090669D02*
X0025696Y0082982D01*
X0025696Y0079045D01*
X0037507Y0067234D01*
X0072940Y0067234D01*
X0080626Y0059548D02*
X0080626Y0059360D01*
X0033570Y0082794D02*
X0033382Y0082982D01*
X0032492Y0129622D02*
X0030725Y0129622D01*
X0032492Y0129622D02*
X0035814Y0132943D01*
X0029633Y0139124D01*
X0029633Y0145974D01*
X0022782Y0152825D01*
X0018333Y0152825D01*
X0019436Y0161722D02*
X0018333Y0162825D01*
X0019436Y0161722D02*
X0037507Y0161722D01*
X0187309Y0080641D02*
X0193390Y0086722D01*
X0194790Y0086722D01*
X0203923Y0086722D01*
X0215931Y0098730D01*
X0218609Y0098730D01*
X0222546Y0098730D01*
X0238294Y0114478D01*
X0238294Y0118415D01*
X0242231Y0114478D01*
X0250105Y0114478D01*
X0252073Y0116447D01*
X0254042Y0114478D01*
X0254042Y0118415D01*
X0273727Y0138100D01*
X0273727Y0142037D01*
X0271759Y0144006D01*
X0275696Y0144006D01*
X0273727Y0142037D01*
X0271759Y0144006D02*
X0270338Y0145426D01*
X0238294Y0126289D02*
X0238294Y0118415D01*
X0238294Y0114478D02*
X0242231Y0114478D01*
X0250105Y0114478D02*
X0254042Y0114478D01*
X0284790Y0083730D01*
X0284790Y0066722D01*
X0252073Y0116447D02*
X0254042Y0118415D01*
X0238294Y0126289D02*
X0214790Y0149793D01*
X0214790Y0176722D01*
D29*
X0269790Y0153848D02*
X0269790Y0145974D01*
X0270338Y0145426D01*
X0275696Y0144006D02*
X0281601Y0149911D01*
X0076877Y0063297D02*
X0072940Y0067234D01*
X0037507Y0161722D02*
X0045152Y0169368D01*
X0045152Y0169400D01*
D30*
X0069003Y0145974D03*
X0128058Y0153848D03*
X0273727Y0110541D03*
X0336719Y0094793D03*
X0194987Y0059360D03*
X0194987Y0051486D03*
M02*
